%TF.GenerationSoftware,KiCad,Pcbnew,5.1.10-88a1d61d58~90~ubuntu20.04.1*%
%TF.CreationDate,2021-10-06T22:46:20-04:00*%
%TF.ProjectId,jrgbwww24,6a726762-7777-4773-9234-2e6b69636164,rev?*%
%TF.SameCoordinates,Original*%
%TF.FileFunction,Legend,Top*%
%TF.FilePolarity,Positive*%
%FSLAX46Y46*%
G04 Gerber Fmt 4.6, Leading zero omitted, Abs format (unit mm)*
G04 Created by KiCad (PCBNEW 5.1.10-88a1d61d58~90~ubuntu20.04.1) date 2021-10-06 22:46:20*
%MOMM*%
%LPD*%
G01*
G04 APERTURE LIST*
%ADD10C,0.300000*%
%ADD11C,0.120000*%
%ADD12C,0.010000*%
%ADD13C,0.150000*%
G04 APERTURE END LIST*
D10*
X93742857Y-80800000D02*
X94771428Y-80800000D01*
X94885714Y-80857142D01*
X94942857Y-80971428D01*
X94942857Y-81028571D01*
X93342857Y-80800000D02*
X93400000Y-80857142D01*
X93457142Y-80800000D01*
X93400000Y-80742857D01*
X93342857Y-80800000D01*
X93457142Y-80800000D01*
X94542857Y-80228571D02*
X93742857Y-80228571D01*
X93971428Y-80228571D02*
X93857142Y-80171428D01*
X93800000Y-80114285D01*
X93742857Y-80000000D01*
X93742857Y-79885714D01*
X93742857Y-78971428D02*
X94714285Y-78971428D01*
X94828571Y-79028571D01*
X94885714Y-79085714D01*
X94942857Y-79200000D01*
X94942857Y-79371428D01*
X94885714Y-79485714D01*
X94485714Y-78971428D02*
X94542857Y-79085714D01*
X94542857Y-79314285D01*
X94485714Y-79428571D01*
X94428571Y-79485714D01*
X94314285Y-79542857D01*
X93971428Y-79542857D01*
X93857142Y-79485714D01*
X93800000Y-79428571D01*
X93742857Y-79314285D01*
X93742857Y-79085714D01*
X93800000Y-78971428D01*
X94542857Y-78400000D02*
X93342857Y-78400000D01*
X93800000Y-78400000D02*
X93742857Y-78285714D01*
X93742857Y-78057142D01*
X93800000Y-77942857D01*
X93857142Y-77885714D01*
X93971428Y-77828571D01*
X94314285Y-77828571D01*
X94428571Y-77885714D01*
X94485714Y-77942857D01*
X94542857Y-78057142D01*
X94542857Y-78285714D01*
X94485714Y-78400000D01*
X93742857Y-77428571D02*
X94542857Y-77200000D01*
X93971428Y-76971428D01*
X94542857Y-76742857D01*
X93742857Y-76514285D01*
X93742857Y-76171428D02*
X94542857Y-75942857D01*
X93971428Y-75714285D01*
X94542857Y-75485714D01*
X93742857Y-75257142D01*
X93742857Y-74914285D02*
X94542857Y-74685714D01*
X93971428Y-74457142D01*
X94542857Y-74228571D01*
X93742857Y-74000000D01*
X93457142Y-73600000D02*
X93400000Y-73542857D01*
X93342857Y-73428571D01*
X93342857Y-73142857D01*
X93400000Y-73028571D01*
X93457142Y-72971428D01*
X93571428Y-72914285D01*
X93685714Y-72914285D01*
X93857142Y-72971428D01*
X94542857Y-73657142D01*
X94542857Y-72914285D01*
X93742857Y-71885714D02*
X94542857Y-71885714D01*
X93285714Y-72171428D02*
X94142857Y-72457142D01*
X94142857Y-71714285D01*
X93742857Y-70342857D02*
X94085714Y-71257142D01*
X94428571Y-70342857D01*
X93342857Y-69885714D02*
X93342857Y-69142857D01*
X93800000Y-69542857D01*
X93800000Y-69371428D01*
X93857142Y-69257142D01*
X93914285Y-69200000D01*
X94028571Y-69142857D01*
X94314285Y-69142857D01*
X94428571Y-69200000D01*
X94485714Y-69257142D01*
X94542857Y-69371428D01*
X94542857Y-69714285D01*
X94485714Y-69828571D01*
X94428571Y-69885714D01*
D11*
%TO.C,Q4*%
X154250000Y-101832000D02*
X164750000Y-101832000D01*
X154250000Y-106773000D02*
X164750000Y-106773000D01*
X154250000Y-101832000D02*
X154250000Y-106773000D01*
X164750000Y-101832000D02*
X164750000Y-106773000D01*
X154250000Y-104592000D02*
X155857000Y-104592000D01*
X158063000Y-104592000D02*
X158398000Y-104592000D01*
X160603000Y-104592000D02*
X160938000Y-104592000D01*
X163143000Y-104592000D02*
X164750000Y-104592000D01*
X157650000Y-101832000D02*
X157650000Y-103850000D01*
X161351000Y-101832000D02*
X161351000Y-103850000D01*
%TO.C,Q10*%
X154250000Y-67832000D02*
X164750000Y-67832000D01*
X154250000Y-72773000D02*
X164750000Y-72773000D01*
X154250000Y-67832000D02*
X154250000Y-72773000D01*
X164750000Y-67832000D02*
X164750000Y-72773000D01*
X154250000Y-70592000D02*
X155857000Y-70592000D01*
X158063000Y-70592000D02*
X158398000Y-70592000D01*
X160603000Y-70592000D02*
X160938000Y-70592000D01*
X163143000Y-70592000D02*
X164750000Y-70592000D01*
X157650000Y-67832000D02*
X157650000Y-69850000D01*
X161351000Y-67832000D02*
X161351000Y-69850000D01*
%TO.C,Q9*%
X154250000Y-76332000D02*
X164750000Y-76332000D01*
X154250000Y-81273000D02*
X164750000Y-81273000D01*
X154250000Y-76332000D02*
X154250000Y-81273000D01*
X164750000Y-76332000D02*
X164750000Y-81273000D01*
X154250000Y-79092000D02*
X155857000Y-79092000D01*
X158063000Y-79092000D02*
X158398000Y-79092000D01*
X160603000Y-79092000D02*
X160938000Y-79092000D01*
X163143000Y-79092000D02*
X164750000Y-79092000D01*
X157650000Y-76332000D02*
X157650000Y-78350000D01*
X161351000Y-76332000D02*
X161351000Y-78350000D01*
%TO.C,Q6*%
X154290000Y-84832000D02*
X164790000Y-84832000D01*
X154290000Y-89773000D02*
X164790000Y-89773000D01*
X154290000Y-84832000D02*
X154290000Y-89773000D01*
X164790000Y-84832000D02*
X164790000Y-89773000D01*
X154290000Y-87592000D02*
X155897000Y-87592000D01*
X158103000Y-87592000D02*
X158438000Y-87592000D01*
X160643000Y-87592000D02*
X160978000Y-87592000D01*
X163183000Y-87592000D02*
X164790000Y-87592000D01*
X157690000Y-84832000D02*
X157690000Y-86850000D01*
X161391000Y-84832000D02*
X161391000Y-86850000D01*
%TO.C,Q5*%
X154250000Y-93332000D02*
X164750000Y-93332000D01*
X154250000Y-98273000D02*
X164750000Y-98273000D01*
X154250000Y-93332000D02*
X154250000Y-98273000D01*
X164750000Y-93332000D02*
X164750000Y-98273000D01*
X154250000Y-96092000D02*
X155857000Y-96092000D01*
X158063000Y-96092000D02*
X158398000Y-96092000D01*
X160603000Y-96092000D02*
X160938000Y-96092000D01*
X163143000Y-96092000D02*
X164750000Y-96092000D01*
X157650000Y-93332000D02*
X157650000Y-95350000D01*
X161351000Y-93332000D02*
X161351000Y-95350000D01*
%TO.C,SW1*%
X111350000Y-115302000D02*
X98650000Y-115302000D01*
X98650000Y-115302000D02*
X98650000Y-108571000D01*
X98650000Y-108571000D02*
X111350000Y-108571000D01*
X111350000Y-108571000D02*
X111350000Y-115302000D01*
%TO.C,U1*%
X147388100Y-61022100D02*
X99318600Y-61022100D01*
X99318600Y-61022100D02*
X99318600Y-88555700D01*
X99318600Y-88555700D02*
X147362700Y-88555700D01*
X147362700Y-88555700D02*
X147362700Y-61022100D01*
D12*
%TO.C,G\u002A\u002A\u002A*%
G36*
X129056081Y-72577652D02*
G01*
X129427580Y-72700290D01*
X129783542Y-72905155D01*
X130125239Y-73192881D01*
X130253356Y-73325987D01*
X130558200Y-73710943D01*
X130792696Y-74125125D01*
X130963644Y-74582368D01*
X131052124Y-74950807D01*
X131102537Y-75382251D01*
X131088109Y-75798319D01*
X131012427Y-76189484D01*
X130879082Y-76546223D01*
X130691662Y-76859011D01*
X130453757Y-77118323D01*
X130168955Y-77314634D01*
X130159500Y-77319566D01*
X129955055Y-77393157D01*
X129700467Y-77437810D01*
X129425695Y-77452013D01*
X129160697Y-77434254D01*
X128935431Y-77383022D01*
X128931280Y-77381554D01*
X128539554Y-77198160D01*
X128181844Y-76945310D01*
X127863600Y-76633247D01*
X127590276Y-76272217D01*
X127367325Y-75872467D01*
X127302898Y-75707385D01*
X128490357Y-75707385D01*
X128552692Y-75902655D01*
X128675481Y-76071930D01*
X128768481Y-76147323D01*
X128915356Y-76207103D01*
X129080000Y-76227109D01*
X129258437Y-76203571D01*
X129391518Y-76147323D01*
X129559114Y-75991763D01*
X129652272Y-75796736D01*
X129672109Y-75635000D01*
X129633478Y-75414016D01*
X129518949Y-75229831D01*
X129391518Y-75122677D01*
X129207724Y-75048634D01*
X129007615Y-75045357D01*
X128812345Y-75107692D01*
X128643069Y-75230481D01*
X128567677Y-75323481D01*
X128493634Y-75507275D01*
X128490357Y-75707385D01*
X127302898Y-75707385D01*
X127200198Y-75444242D01*
X127094347Y-74997787D01*
X127055226Y-74543348D01*
X127088286Y-74091171D01*
X127111962Y-73962833D01*
X127231241Y-73566227D01*
X127408628Y-73225787D01*
X127641313Y-72945395D01*
X127926488Y-72728932D01*
X128053936Y-72661442D01*
X128207956Y-72595007D01*
X128342381Y-72556971D01*
X128493349Y-72539982D01*
X128667769Y-72536605D01*
X129056081Y-72577652D01*
G37*
X129056081Y-72577652D02*
X129427580Y-72700290D01*
X129783542Y-72905155D01*
X130125239Y-73192881D01*
X130253356Y-73325987D01*
X130558200Y-73710943D01*
X130792696Y-74125125D01*
X130963644Y-74582368D01*
X131052124Y-74950807D01*
X131102537Y-75382251D01*
X131088109Y-75798319D01*
X131012427Y-76189484D01*
X130879082Y-76546223D01*
X130691662Y-76859011D01*
X130453757Y-77118323D01*
X130168955Y-77314634D01*
X130159500Y-77319566D01*
X129955055Y-77393157D01*
X129700467Y-77437810D01*
X129425695Y-77452013D01*
X129160697Y-77434254D01*
X128935431Y-77383022D01*
X128931280Y-77381554D01*
X128539554Y-77198160D01*
X128181844Y-76945310D01*
X127863600Y-76633247D01*
X127590276Y-76272217D01*
X127367325Y-75872467D01*
X127302898Y-75707385D01*
X128490357Y-75707385D01*
X128552692Y-75902655D01*
X128675481Y-76071930D01*
X128768481Y-76147323D01*
X128915356Y-76207103D01*
X129080000Y-76227109D01*
X129258437Y-76203571D01*
X129391518Y-76147323D01*
X129559114Y-75991763D01*
X129652272Y-75796736D01*
X129672109Y-75635000D01*
X129633478Y-75414016D01*
X129518949Y-75229831D01*
X129391518Y-75122677D01*
X129207724Y-75048634D01*
X129007615Y-75045357D01*
X128812345Y-75107692D01*
X128643069Y-75230481D01*
X128567677Y-75323481D01*
X128493634Y-75507275D01*
X128490357Y-75707385D01*
X127302898Y-75707385D01*
X127200198Y-75444242D01*
X127094347Y-74997787D01*
X127055226Y-74543348D01*
X127088286Y-74091171D01*
X127111962Y-73962833D01*
X127231241Y-73566227D01*
X127408628Y-73225787D01*
X127641313Y-72945395D01*
X127926488Y-72728932D01*
X128053936Y-72661442D01*
X128207956Y-72595007D01*
X128342381Y-72556971D01*
X128493349Y-72539982D01*
X128667769Y-72536605D01*
X129056081Y-72577652D01*
G36*
X119527416Y-72541190D02*
G01*
X119674384Y-72560380D01*
X119809273Y-72601527D01*
X119946064Y-72661442D01*
X120251343Y-72851387D01*
X120505251Y-73106806D01*
X120704979Y-73423818D01*
X120847716Y-73798539D01*
X120888037Y-73962833D01*
X120943418Y-74364864D01*
X120936194Y-74766406D01*
X120864931Y-75186980D01*
X120774625Y-75508000D01*
X120588977Y-75962982D01*
X120340639Y-76377315D01*
X120037560Y-76741392D01*
X119687689Y-77045607D01*
X119314413Y-77272790D01*
X119153518Y-77348892D01*
X119024866Y-77396758D01*
X118897122Y-77423674D01*
X118738953Y-77436930D01*
X118586082Y-77442171D01*
X118396665Y-77443256D01*
X118228994Y-77437368D01*
X118108213Y-77425688D01*
X118073333Y-77418068D01*
X117757678Y-77272034D01*
X117485131Y-77059363D01*
X117259505Y-76788411D01*
X117084613Y-76467537D01*
X116964266Y-76105096D01*
X116902277Y-75709447D01*
X116902309Y-75635000D01*
X118327891Y-75635000D01*
X118365815Y-75853901D01*
X118471692Y-76032654D01*
X118633682Y-76159418D01*
X118839944Y-76222353D01*
X118920000Y-76227109D01*
X119098437Y-76203571D01*
X119231518Y-76147323D01*
X119399114Y-75991763D01*
X119492272Y-75796736D01*
X119512109Y-75635000D01*
X119474185Y-75416099D01*
X119368308Y-75237346D01*
X119206318Y-75110582D01*
X119000055Y-75047647D01*
X118920000Y-75042891D01*
X118701099Y-75080815D01*
X118522346Y-75186692D01*
X118395582Y-75348682D01*
X118332647Y-75554944D01*
X118327891Y-75635000D01*
X116902309Y-75635000D01*
X116902458Y-75288947D01*
X116947876Y-74950807D01*
X117076780Y-74453450D01*
X117264273Y-74009240D01*
X117517156Y-73604342D01*
X117746643Y-73325987D01*
X118083185Y-73006167D01*
X118433500Y-72769452D01*
X118798861Y-72615207D01*
X119180544Y-72542798D01*
X119332230Y-72536605D01*
X119527416Y-72541190D01*
G37*
X119527416Y-72541190D02*
X119674384Y-72560380D01*
X119809273Y-72601527D01*
X119946064Y-72661442D01*
X120251343Y-72851387D01*
X120505251Y-73106806D01*
X120704979Y-73423818D01*
X120847716Y-73798539D01*
X120888037Y-73962833D01*
X120943418Y-74364864D01*
X120936194Y-74766406D01*
X120864931Y-75186980D01*
X120774625Y-75508000D01*
X120588977Y-75962982D01*
X120340639Y-76377315D01*
X120037560Y-76741392D01*
X119687689Y-77045607D01*
X119314413Y-77272790D01*
X119153518Y-77348892D01*
X119024866Y-77396758D01*
X118897122Y-77423674D01*
X118738953Y-77436930D01*
X118586082Y-77442171D01*
X118396665Y-77443256D01*
X118228994Y-77437368D01*
X118108213Y-77425688D01*
X118073333Y-77418068D01*
X117757678Y-77272034D01*
X117485131Y-77059363D01*
X117259505Y-76788411D01*
X117084613Y-76467537D01*
X116964266Y-76105096D01*
X116902277Y-75709447D01*
X116902309Y-75635000D01*
X118327891Y-75635000D01*
X118365815Y-75853901D01*
X118471692Y-76032654D01*
X118633682Y-76159418D01*
X118839944Y-76222353D01*
X118920000Y-76227109D01*
X119098437Y-76203571D01*
X119231518Y-76147323D01*
X119399114Y-75991763D01*
X119492272Y-75796736D01*
X119512109Y-75635000D01*
X119474185Y-75416099D01*
X119368308Y-75237346D01*
X119206318Y-75110582D01*
X119000055Y-75047647D01*
X118920000Y-75042891D01*
X118701099Y-75080815D01*
X118522346Y-75186692D01*
X118395582Y-75348682D01*
X118332647Y-75554944D01*
X118327891Y-75635000D01*
X116902309Y-75635000D01*
X116902458Y-75288947D01*
X116947876Y-74950807D01*
X117076780Y-74453450D01*
X117264273Y-74009240D01*
X117517156Y-73604342D01*
X117746643Y-73325987D01*
X118083185Y-73006167D01*
X118433500Y-72769452D01*
X118798861Y-72615207D01*
X119180544Y-72542798D01*
X119332230Y-72536605D01*
X119527416Y-72541190D01*
G36*
X124133045Y-77554715D02*
G01*
X124326414Y-77569337D01*
X124479106Y-77596748D01*
X124550461Y-77624745D01*
X124577136Y-77660885D01*
X124558777Y-77723486D01*
X124494294Y-77825567D01*
X124326025Y-78024358D01*
X124155250Y-78139668D01*
X123983166Y-78171179D01*
X123810973Y-78118573D01*
X123696904Y-78036787D01*
X123554010Y-77895519D01*
X123461665Y-77772337D01*
X123426157Y-77677755D01*
X123450256Y-77624302D01*
X123557605Y-77587673D01*
X123723767Y-77563873D01*
X123923872Y-77552890D01*
X124133045Y-77554715D01*
G37*
X124133045Y-77554715D02*
X124326414Y-77569337D01*
X124479106Y-77596748D01*
X124550461Y-77624745D01*
X124577136Y-77660885D01*
X124558777Y-77723486D01*
X124494294Y-77825567D01*
X124326025Y-78024358D01*
X124155250Y-78139668D01*
X123983166Y-78171179D01*
X123810973Y-78118573D01*
X123696904Y-78036787D01*
X123554010Y-77895519D01*
X123461665Y-77772337D01*
X123426157Y-77677755D01*
X123450256Y-77624302D01*
X123557605Y-77587673D01*
X123723767Y-77563873D01*
X123923872Y-77552890D01*
X124133045Y-77554715D01*
G36*
X131332194Y-64849071D02*
G01*
X131680593Y-64888550D01*
X131747865Y-64901130D01*
X132298950Y-65054566D01*
X132812323Y-65281288D01*
X133282351Y-65576228D01*
X133703403Y-65934319D01*
X134069848Y-66350492D01*
X134376053Y-66819680D01*
X134616389Y-67336815D01*
X134690709Y-67549333D01*
X134755817Y-67815724D01*
X134803246Y-68135922D01*
X134831210Y-68480955D01*
X134837925Y-68821848D01*
X134821605Y-69129629D01*
X134798309Y-69295520D01*
X134752418Y-69498369D01*
X134690018Y-69719229D01*
X134616812Y-69943302D01*
X134538501Y-70155788D01*
X134460787Y-70341887D01*
X134389372Y-70486800D01*
X134329958Y-70575727D01*
X134296974Y-70596786D01*
X134261825Y-70563308D01*
X134193556Y-70474018D01*
X134103984Y-70344861D01*
X134054167Y-70269178D01*
X133842012Y-69962169D01*
X133582444Y-69619852D01*
X133292043Y-69262357D01*
X132987390Y-68909811D01*
X132685065Y-68582344D01*
X132555661Y-68449996D01*
X131818451Y-67769591D01*
X131032217Y-67157065D01*
X130193693Y-66610088D01*
X129299614Y-66126333D01*
X129293237Y-66123206D01*
X129061649Y-66008697D01*
X128858323Y-65906218D01*
X128694699Y-65821697D01*
X128582216Y-65761059D01*
X128532312Y-65730232D01*
X128530848Y-65728219D01*
X128563554Y-65694924D01*
X128651845Y-65628929D01*
X128778840Y-65541319D01*
X128927658Y-65443182D01*
X129081418Y-65345601D01*
X129223240Y-65259663D01*
X129336242Y-65196454D01*
X129355167Y-65186891D01*
X129475682Y-65134732D01*
X129645635Y-65069899D01*
X129833440Y-65004289D01*
X129884333Y-64987590D01*
X130197028Y-64911158D01*
X130561707Y-64861707D01*
X130949664Y-64840567D01*
X131332194Y-64849071D01*
G37*
X131332194Y-64849071D02*
X131680593Y-64888550D01*
X131747865Y-64901130D01*
X132298950Y-65054566D01*
X132812323Y-65281288D01*
X133282351Y-65576228D01*
X133703403Y-65934319D01*
X134069848Y-66350492D01*
X134376053Y-66819680D01*
X134616389Y-67336815D01*
X134690709Y-67549333D01*
X134755817Y-67815724D01*
X134803246Y-68135922D01*
X134831210Y-68480955D01*
X134837925Y-68821848D01*
X134821605Y-69129629D01*
X134798309Y-69295520D01*
X134752418Y-69498369D01*
X134690018Y-69719229D01*
X134616812Y-69943302D01*
X134538501Y-70155788D01*
X134460787Y-70341887D01*
X134389372Y-70486800D01*
X134329958Y-70575727D01*
X134296974Y-70596786D01*
X134261825Y-70563308D01*
X134193556Y-70474018D01*
X134103984Y-70344861D01*
X134054167Y-70269178D01*
X133842012Y-69962169D01*
X133582444Y-69619852D01*
X133292043Y-69262357D01*
X132987390Y-68909811D01*
X132685065Y-68582344D01*
X132555661Y-68449996D01*
X131818451Y-67769591D01*
X131032217Y-67157065D01*
X130193693Y-66610088D01*
X129299614Y-66126333D01*
X129293237Y-66123206D01*
X129061649Y-66008697D01*
X128858323Y-65906218D01*
X128694699Y-65821697D01*
X128582216Y-65761059D01*
X128532312Y-65730232D01*
X128530848Y-65728219D01*
X128563554Y-65694924D01*
X128651845Y-65628929D01*
X128778840Y-65541319D01*
X128927658Y-65443182D01*
X129081418Y-65345601D01*
X129223240Y-65259663D01*
X129336242Y-65196454D01*
X129355167Y-65186891D01*
X129475682Y-65134732D01*
X129645635Y-65069899D01*
X129833440Y-65004289D01*
X129884333Y-64987590D01*
X130197028Y-64911158D01*
X130561707Y-64861707D01*
X130949664Y-64840567D01*
X131332194Y-64849071D01*
G36*
X117356376Y-64854766D02*
G01*
X117728440Y-64898280D01*
X118054654Y-64969058D01*
X118115667Y-64987590D01*
X118302833Y-65051314D01*
X118480887Y-65117552D01*
X118618245Y-65174409D01*
X118644833Y-65186891D01*
X118749424Y-65243758D01*
X118886468Y-65325740D01*
X119039084Y-65421751D01*
X119190392Y-65520705D01*
X119323510Y-65611517D01*
X119421558Y-65683101D01*
X119467654Y-65724371D01*
X119469152Y-65728219D01*
X119432575Y-65752644D01*
X119331222Y-65808016D01*
X119176533Y-65888410D01*
X118979944Y-65987900D01*
X118752896Y-66100559D01*
X118706762Y-66123206D01*
X117812288Y-66606533D01*
X116973391Y-67153064D01*
X116186807Y-67765130D01*
X115449270Y-68445059D01*
X115444338Y-68449996D01*
X115148379Y-68759837D01*
X114842714Y-69103712D01*
X114543925Y-69461491D01*
X114268593Y-69813045D01*
X114033298Y-70138247D01*
X113945833Y-70269178D01*
X113849972Y-70412466D01*
X113769417Y-70523977D01*
X113715986Y-70587766D01*
X113703026Y-70596786D01*
X113669570Y-70562179D01*
X113612780Y-70471258D01*
X113550197Y-70353917D01*
X113370624Y-69939432D01*
X113250193Y-69524005D01*
X113184551Y-69085894D01*
X113169345Y-68603356D01*
X113173036Y-68470020D01*
X113186816Y-68200420D01*
X113207350Y-67988427D01*
X113238637Y-67807025D01*
X113284676Y-67629198D01*
X113309291Y-67549333D01*
X113522546Y-67014955D01*
X113803858Y-66526558D01*
X114147593Y-66089209D01*
X114548122Y-65707977D01*
X114999812Y-65387927D01*
X115497032Y-65134129D01*
X116034151Y-64951650D01*
X116252135Y-64901130D01*
X116589518Y-64854859D01*
X116967167Y-64839848D01*
X117356376Y-64854766D01*
G37*
X117356376Y-64854766D02*
X117728440Y-64898280D01*
X118054654Y-64969058D01*
X118115667Y-64987590D01*
X118302833Y-65051314D01*
X118480887Y-65117552D01*
X118618245Y-65174409D01*
X118644833Y-65186891D01*
X118749424Y-65243758D01*
X118886468Y-65325740D01*
X119039084Y-65421751D01*
X119190392Y-65520705D01*
X119323510Y-65611517D01*
X119421558Y-65683101D01*
X119467654Y-65724371D01*
X119469152Y-65728219D01*
X119432575Y-65752644D01*
X119331222Y-65808016D01*
X119176533Y-65888410D01*
X118979944Y-65987900D01*
X118752896Y-66100559D01*
X118706762Y-66123206D01*
X117812288Y-66606533D01*
X116973391Y-67153064D01*
X116186807Y-67765130D01*
X115449270Y-68445059D01*
X115444338Y-68449996D01*
X115148379Y-68759837D01*
X114842714Y-69103712D01*
X114543925Y-69461491D01*
X114268593Y-69813045D01*
X114033298Y-70138247D01*
X113945833Y-70269178D01*
X113849972Y-70412466D01*
X113769417Y-70523977D01*
X113715986Y-70587766D01*
X113703026Y-70596786D01*
X113669570Y-70562179D01*
X113612780Y-70471258D01*
X113550197Y-70353917D01*
X113370624Y-69939432D01*
X113250193Y-69524005D01*
X113184551Y-69085894D01*
X113169345Y-68603356D01*
X113173036Y-68470020D01*
X113186816Y-68200420D01*
X113207350Y-67988427D01*
X113238637Y-67807025D01*
X113284676Y-67629198D01*
X113309291Y-67549333D01*
X113522546Y-67014955D01*
X113803858Y-66526558D01*
X114147593Y-66089209D01*
X114548122Y-65707977D01*
X114999812Y-65387927D01*
X115497032Y-65134129D01*
X116034151Y-64951650D01*
X116252135Y-64901130D01*
X116589518Y-64854859D01*
X116967167Y-64839848D01*
X117356376Y-64854766D01*
G36*
X124450918Y-66135723D02*
G01*
X124834843Y-66144196D01*
X125169351Y-66160771D01*
X125472018Y-66187460D01*
X125760419Y-66226269D01*
X126052129Y-66279209D01*
X126364723Y-66348288D01*
X126715778Y-66435515D01*
X126772831Y-66450286D01*
X127657498Y-66723471D01*
X128513639Y-67073633D01*
X129336241Y-67496429D01*
X130120292Y-67987515D01*
X130860780Y-68542544D01*
X131552693Y-69157174D01*
X132191017Y-69827058D01*
X132770740Y-70547852D01*
X133286849Y-71315212D01*
X133734333Y-72124792D01*
X134006558Y-72720264D01*
X134310234Y-73524697D01*
X134541765Y-74322008D01*
X134704434Y-75128832D01*
X134801526Y-75961803D01*
X134836323Y-76837556D01*
X134836507Y-76924902D01*
X134815191Y-77658368D01*
X134750834Y-78331981D01*
X134640452Y-78960481D01*
X134481065Y-79558603D01*
X134269692Y-80141088D01*
X134114458Y-80493938D01*
X133757468Y-81158198D01*
X133331566Y-81774001D01*
X132837776Y-82340610D01*
X132277123Y-82857290D01*
X131650631Y-83323302D01*
X130959325Y-83737912D01*
X130204230Y-84100382D01*
X129386371Y-84409976D01*
X128506772Y-84665957D01*
X128212167Y-84736488D01*
X127594967Y-84865772D01*
X126988148Y-84968942D01*
X126374811Y-85047642D01*
X125738056Y-85103512D01*
X125060983Y-85138195D01*
X124326691Y-85153334D01*
X123915333Y-85154023D01*
X123561194Y-85150744D01*
X123201356Y-85144026D01*
X122854006Y-85134453D01*
X122537332Y-85122609D01*
X122269518Y-85109077D01*
X122073833Y-85094910D01*
X121022443Y-84969444D01*
X120034497Y-84791283D01*
X119110482Y-84560808D01*
X118250886Y-84278401D01*
X117456196Y-83944442D01*
X116726901Y-83559313D01*
X116063487Y-83123394D01*
X115466443Y-82637066D01*
X114936256Y-82100710D01*
X114473414Y-81514707D01*
X114078403Y-80879439D01*
X113975515Y-80663971D01*
X120871546Y-80663971D01*
X120874900Y-80840834D01*
X120876475Y-80865600D01*
X120942088Y-81244445D01*
X121081540Y-81592343D01*
X121287177Y-81901315D01*
X121551347Y-82163384D01*
X121866397Y-82370570D01*
X122224673Y-82514896D01*
X122518333Y-82577251D01*
X122642522Y-82587783D01*
X122836901Y-82596459D01*
X123087014Y-82603261D01*
X123378404Y-82608172D01*
X123696613Y-82611174D01*
X124027187Y-82612251D01*
X124355668Y-82611385D01*
X124667599Y-82608558D01*
X124948524Y-82603755D01*
X125183986Y-82596957D01*
X125359529Y-82588147D01*
X125439333Y-82580732D01*
X125839093Y-82489770D01*
X126196946Y-82332377D01*
X126506312Y-82115255D01*
X126760608Y-81845105D01*
X126953255Y-81528630D01*
X127077671Y-81172532D01*
X127123524Y-80865600D01*
X127129081Y-80681129D01*
X127113698Y-80550034D01*
X127073548Y-80442771D01*
X127067199Y-80430683D01*
X126931645Y-80263551D01*
X126745588Y-80157694D01*
X126535003Y-80122612D01*
X126317275Y-80160535D01*
X126140457Y-80269593D01*
X126010552Y-80443790D01*
X125933559Y-80677127D01*
X125924736Y-80732619D01*
X125859391Y-80985380D01*
X125739624Y-81175896D01*
X125615642Y-81275917D01*
X125530418Y-81312987D01*
X125414810Y-81335968D01*
X125249710Y-81347419D01*
X125062385Y-81350000D01*
X124635000Y-81350000D01*
X124635000Y-79243605D01*
X124772583Y-79186980D01*
X124906893Y-79106077D01*
X125068717Y-78969679D01*
X125242121Y-78794961D01*
X125411176Y-78599097D01*
X125559947Y-78399264D01*
X125667583Y-78222152D01*
X125791204Y-77927284D01*
X125854629Y-77638917D01*
X125855148Y-77374268D01*
X125823532Y-77232192D01*
X125710545Y-77014792D01*
X125526222Y-76810923D01*
X125283811Y-76630392D01*
X124996558Y-76483008D01*
X124677714Y-76378580D01*
X124667184Y-76376069D01*
X124419252Y-76336392D01*
X124123485Y-76317617D01*
X123814094Y-76319744D01*
X123525290Y-76342774D01*
X123332815Y-76376069D01*
X123013182Y-76478967D01*
X122724719Y-76625133D01*
X122480674Y-76804760D01*
X122294296Y-77008037D01*
X122178833Y-77225157D01*
X122176468Y-77232192D01*
X122137388Y-77473987D01*
X122162865Y-77749976D01*
X122250188Y-78042940D01*
X122332416Y-78222152D01*
X122447351Y-78409940D01*
X122597634Y-78609999D01*
X122767334Y-78805154D01*
X122940519Y-78978231D01*
X123101256Y-79112055D01*
X123227417Y-79186980D01*
X123365000Y-79243605D01*
X123365000Y-81350000D01*
X122937615Y-81350000D01*
X122717208Y-81346145D01*
X122562082Y-81332873D01*
X122453126Y-81307627D01*
X122384358Y-81275917D01*
X122224980Y-81133678D01*
X122118849Y-80927135D01*
X122075263Y-80732619D01*
X122010048Y-80487718D01*
X121890670Y-80300708D01*
X121723130Y-80177586D01*
X121513428Y-80124351D01*
X121464997Y-80122612D01*
X121246047Y-80160691D01*
X121061726Y-80269234D01*
X120932800Y-80430683D01*
X120889571Y-80537102D01*
X120871546Y-80663971D01*
X113975515Y-80663971D01*
X113751713Y-80195286D01*
X113493831Y-79462629D01*
X113305243Y-78681849D01*
X113224263Y-78180772D01*
X113195435Y-77889936D01*
X113176169Y-77537511D01*
X113166435Y-77146029D01*
X113166203Y-76738022D01*
X113175445Y-76336022D01*
X113194130Y-75962562D01*
X113222229Y-75640174D01*
X113227651Y-75594402D01*
X113231762Y-75570025D01*
X115682771Y-75570025D01*
X115703390Y-75958092D01*
X115754318Y-76305280D01*
X115780989Y-76418167D01*
X115953672Y-76921127D01*
X116186903Y-77370388D01*
X116477281Y-77762266D01*
X116821407Y-78093080D01*
X117215879Y-78359150D01*
X117657298Y-78556793D01*
X117798167Y-78602132D01*
X118027043Y-78648723D01*
X118306445Y-78674482D01*
X118604741Y-78679039D01*
X118890300Y-78662024D01*
X119131490Y-78623068D01*
X119151919Y-78617959D01*
X119669939Y-78440128D01*
X120154947Y-78187918D01*
X120601615Y-77866963D01*
X121004616Y-77482897D01*
X121358623Y-77041353D01*
X121658308Y-76547964D01*
X121898344Y-76008365D01*
X122039257Y-75564608D01*
X122108423Y-75218318D01*
X122147849Y-74830126D01*
X122154767Y-74534333D01*
X125850314Y-74534333D01*
X125865839Y-74979509D01*
X125917163Y-75375564D01*
X126011040Y-75752168D01*
X126154223Y-76138989D01*
X126277565Y-76411275D01*
X126550211Y-76898364D01*
X126877282Y-77342641D01*
X127250157Y-77736608D01*
X127660211Y-78072768D01*
X128098821Y-78343623D01*
X128557365Y-78541676D01*
X128814137Y-78616664D01*
X129040638Y-78654506D01*
X129313740Y-78674517D01*
X129602698Y-78676667D01*
X129876769Y-78660922D01*
X130105207Y-78627252D01*
X130143955Y-78618043D01*
X130589476Y-78460079D01*
X130996004Y-78229726D01*
X131358772Y-77932038D01*
X131673018Y-77572063D01*
X131933975Y-77154854D01*
X132136881Y-76685461D01*
X132219011Y-76418167D01*
X132281258Y-76093211D01*
X132313096Y-75717080D01*
X132314792Y-75317512D01*
X132286613Y-74922244D01*
X132228829Y-74559016D01*
X132199900Y-74437925D01*
X132009088Y-73866913D01*
X131751482Y-73330060D01*
X131433929Y-72839534D01*
X131063272Y-72407502D01*
X131050416Y-72394584D01*
X130641174Y-72034204D01*
X130212431Y-71747304D01*
X129770628Y-71533207D01*
X129322205Y-71391236D01*
X128873601Y-71320714D01*
X128431257Y-71320964D01*
X128001612Y-71391309D01*
X127591107Y-71531072D01*
X127206181Y-71739577D01*
X126853275Y-72016146D01*
X126538829Y-72360102D01*
X126269282Y-72770769D01*
X126199312Y-72904500D01*
X126060665Y-73210865D01*
X125961733Y-73499522D01*
X125897229Y-73795157D01*
X125861867Y-74122455D01*
X125850363Y-74506102D01*
X125850314Y-74534333D01*
X122154767Y-74534333D01*
X122157261Y-74427729D01*
X122136382Y-74038824D01*
X122084937Y-73691108D01*
X122059011Y-73581833D01*
X121890712Y-73091047D01*
X121664380Y-72650504D01*
X121385413Y-72264754D01*
X121059207Y-71938344D01*
X120691161Y-71675821D01*
X120286672Y-71481736D01*
X119851139Y-71360634D01*
X119389959Y-71317066D01*
X119371056Y-71317000D01*
X118894523Y-71350964D01*
X118439532Y-71455275D01*
X117996257Y-71633557D01*
X117554873Y-71889438D01*
X117275734Y-72090279D01*
X116920368Y-72411278D01*
X116591987Y-72800671D01*
X116299608Y-73244114D01*
X116052247Y-73727263D01*
X115858919Y-74235774D01*
X115800100Y-74437925D01*
X115731394Y-74782203D01*
X115692195Y-75168816D01*
X115682771Y-75570025D01*
X113231762Y-75570025D01*
X113385453Y-74658812D01*
X113622665Y-73748016D01*
X113936555Y-72866282D01*
X114324391Y-72017878D01*
X114783444Y-71207073D01*
X115310981Y-70438134D01*
X115904271Y-69715330D01*
X116560582Y-69042929D01*
X117277184Y-68425199D01*
X118051345Y-67866408D01*
X118258062Y-67733594D01*
X119071901Y-67273165D01*
X119930947Y-66883761D01*
X120833160Y-66566151D01*
X121776498Y-66321103D01*
X122264333Y-66225788D01*
X122435234Y-66197616D01*
X122596138Y-66175710D01*
X122761275Y-66159312D01*
X122944875Y-66147664D01*
X123161164Y-66140008D01*
X123424374Y-66135586D01*
X123748733Y-66133641D01*
X124000000Y-66133346D01*
X124450918Y-66135723D01*
G37*
X124450918Y-66135723D02*
X124834843Y-66144196D01*
X125169351Y-66160771D01*
X125472018Y-66187460D01*
X125760419Y-66226269D01*
X126052129Y-66279209D01*
X126364723Y-66348288D01*
X126715778Y-66435515D01*
X126772831Y-66450286D01*
X127657498Y-66723471D01*
X128513639Y-67073633D01*
X129336241Y-67496429D01*
X130120292Y-67987515D01*
X130860780Y-68542544D01*
X131552693Y-69157174D01*
X132191017Y-69827058D01*
X132770740Y-70547852D01*
X133286849Y-71315212D01*
X133734333Y-72124792D01*
X134006558Y-72720264D01*
X134310234Y-73524697D01*
X134541765Y-74322008D01*
X134704434Y-75128832D01*
X134801526Y-75961803D01*
X134836323Y-76837556D01*
X134836507Y-76924902D01*
X134815191Y-77658368D01*
X134750834Y-78331981D01*
X134640452Y-78960481D01*
X134481065Y-79558603D01*
X134269692Y-80141088D01*
X134114458Y-80493938D01*
X133757468Y-81158198D01*
X133331566Y-81774001D01*
X132837776Y-82340610D01*
X132277123Y-82857290D01*
X131650631Y-83323302D01*
X130959325Y-83737912D01*
X130204230Y-84100382D01*
X129386371Y-84409976D01*
X128506772Y-84665957D01*
X128212167Y-84736488D01*
X127594967Y-84865772D01*
X126988148Y-84968942D01*
X126374811Y-85047642D01*
X125738056Y-85103512D01*
X125060983Y-85138195D01*
X124326691Y-85153334D01*
X123915333Y-85154023D01*
X123561194Y-85150744D01*
X123201356Y-85144026D01*
X122854006Y-85134453D01*
X122537332Y-85122609D01*
X122269518Y-85109077D01*
X122073833Y-85094910D01*
X121022443Y-84969444D01*
X120034497Y-84791283D01*
X119110482Y-84560808D01*
X118250886Y-84278401D01*
X117456196Y-83944442D01*
X116726901Y-83559313D01*
X116063487Y-83123394D01*
X115466443Y-82637066D01*
X114936256Y-82100710D01*
X114473414Y-81514707D01*
X114078403Y-80879439D01*
X113975515Y-80663971D01*
X120871546Y-80663971D01*
X120874900Y-80840834D01*
X120876475Y-80865600D01*
X120942088Y-81244445D01*
X121081540Y-81592343D01*
X121287177Y-81901315D01*
X121551347Y-82163384D01*
X121866397Y-82370570D01*
X122224673Y-82514896D01*
X122518333Y-82577251D01*
X122642522Y-82587783D01*
X122836901Y-82596459D01*
X123087014Y-82603261D01*
X123378404Y-82608172D01*
X123696613Y-82611174D01*
X124027187Y-82612251D01*
X124355668Y-82611385D01*
X124667599Y-82608558D01*
X124948524Y-82603755D01*
X125183986Y-82596957D01*
X125359529Y-82588147D01*
X125439333Y-82580732D01*
X125839093Y-82489770D01*
X126196946Y-82332377D01*
X126506312Y-82115255D01*
X126760608Y-81845105D01*
X126953255Y-81528630D01*
X127077671Y-81172532D01*
X127123524Y-80865600D01*
X127129081Y-80681129D01*
X127113698Y-80550034D01*
X127073548Y-80442771D01*
X127067199Y-80430683D01*
X126931645Y-80263551D01*
X126745588Y-80157694D01*
X126535003Y-80122612D01*
X126317275Y-80160535D01*
X126140457Y-80269593D01*
X126010552Y-80443790D01*
X125933559Y-80677127D01*
X125924736Y-80732619D01*
X125859391Y-80985380D01*
X125739624Y-81175896D01*
X125615642Y-81275917D01*
X125530418Y-81312987D01*
X125414810Y-81335968D01*
X125249710Y-81347419D01*
X125062385Y-81350000D01*
X124635000Y-81350000D01*
X124635000Y-79243605D01*
X124772583Y-79186980D01*
X124906893Y-79106077D01*
X125068717Y-78969679D01*
X125242121Y-78794961D01*
X125411176Y-78599097D01*
X125559947Y-78399264D01*
X125667583Y-78222152D01*
X125791204Y-77927284D01*
X125854629Y-77638917D01*
X125855148Y-77374268D01*
X125823532Y-77232192D01*
X125710545Y-77014792D01*
X125526222Y-76810923D01*
X125283811Y-76630392D01*
X124996558Y-76483008D01*
X124677714Y-76378580D01*
X124667184Y-76376069D01*
X124419252Y-76336392D01*
X124123485Y-76317617D01*
X123814094Y-76319744D01*
X123525290Y-76342774D01*
X123332815Y-76376069D01*
X123013182Y-76478967D01*
X122724719Y-76625133D01*
X122480674Y-76804760D01*
X122294296Y-77008037D01*
X122178833Y-77225157D01*
X122176468Y-77232192D01*
X122137388Y-77473987D01*
X122162865Y-77749976D01*
X122250188Y-78042940D01*
X122332416Y-78222152D01*
X122447351Y-78409940D01*
X122597634Y-78609999D01*
X122767334Y-78805154D01*
X122940519Y-78978231D01*
X123101256Y-79112055D01*
X123227417Y-79186980D01*
X123365000Y-79243605D01*
X123365000Y-81350000D01*
X122937615Y-81350000D01*
X122717208Y-81346145D01*
X122562082Y-81332873D01*
X122453126Y-81307627D01*
X122384358Y-81275917D01*
X122224980Y-81133678D01*
X122118849Y-80927135D01*
X122075263Y-80732619D01*
X122010048Y-80487718D01*
X121890670Y-80300708D01*
X121723130Y-80177586D01*
X121513428Y-80124351D01*
X121464997Y-80122612D01*
X121246047Y-80160691D01*
X121061726Y-80269234D01*
X120932800Y-80430683D01*
X120889571Y-80537102D01*
X120871546Y-80663971D01*
X113975515Y-80663971D01*
X113751713Y-80195286D01*
X113493831Y-79462629D01*
X113305243Y-78681849D01*
X113224263Y-78180772D01*
X113195435Y-77889936D01*
X113176169Y-77537511D01*
X113166435Y-77146029D01*
X113166203Y-76738022D01*
X113175445Y-76336022D01*
X113194130Y-75962562D01*
X113222229Y-75640174D01*
X113227651Y-75594402D01*
X113231762Y-75570025D01*
X115682771Y-75570025D01*
X115703390Y-75958092D01*
X115754318Y-76305280D01*
X115780989Y-76418167D01*
X115953672Y-76921127D01*
X116186903Y-77370388D01*
X116477281Y-77762266D01*
X116821407Y-78093080D01*
X117215879Y-78359150D01*
X117657298Y-78556793D01*
X117798167Y-78602132D01*
X118027043Y-78648723D01*
X118306445Y-78674482D01*
X118604741Y-78679039D01*
X118890300Y-78662024D01*
X119131490Y-78623068D01*
X119151919Y-78617959D01*
X119669939Y-78440128D01*
X120154947Y-78187918D01*
X120601615Y-77866963D01*
X121004616Y-77482897D01*
X121358623Y-77041353D01*
X121658308Y-76547964D01*
X121898344Y-76008365D01*
X122039257Y-75564608D01*
X122108423Y-75218318D01*
X122147849Y-74830126D01*
X122154767Y-74534333D01*
X125850314Y-74534333D01*
X125865839Y-74979509D01*
X125917163Y-75375564D01*
X126011040Y-75752168D01*
X126154223Y-76138989D01*
X126277565Y-76411275D01*
X126550211Y-76898364D01*
X126877282Y-77342641D01*
X127250157Y-77736608D01*
X127660211Y-78072768D01*
X128098821Y-78343623D01*
X128557365Y-78541676D01*
X128814137Y-78616664D01*
X129040638Y-78654506D01*
X129313740Y-78674517D01*
X129602698Y-78676667D01*
X129876769Y-78660922D01*
X130105207Y-78627252D01*
X130143955Y-78618043D01*
X130589476Y-78460079D01*
X130996004Y-78229726D01*
X131358772Y-77932038D01*
X131673018Y-77572063D01*
X131933975Y-77154854D01*
X132136881Y-76685461D01*
X132219011Y-76418167D01*
X132281258Y-76093211D01*
X132313096Y-75717080D01*
X132314792Y-75317512D01*
X132286613Y-74922244D01*
X132228829Y-74559016D01*
X132199900Y-74437925D01*
X132009088Y-73866913D01*
X131751482Y-73330060D01*
X131433929Y-72839534D01*
X131063272Y-72407502D01*
X131050416Y-72394584D01*
X130641174Y-72034204D01*
X130212431Y-71747304D01*
X129770628Y-71533207D01*
X129322205Y-71391236D01*
X128873601Y-71320714D01*
X128431257Y-71320964D01*
X128001612Y-71391309D01*
X127591107Y-71531072D01*
X127206181Y-71739577D01*
X126853275Y-72016146D01*
X126538829Y-72360102D01*
X126269282Y-72770769D01*
X126199312Y-72904500D01*
X126060665Y-73210865D01*
X125961733Y-73499522D01*
X125897229Y-73795157D01*
X125861867Y-74122455D01*
X125850363Y-74506102D01*
X125850314Y-74534333D01*
X122154767Y-74534333D01*
X122157261Y-74427729D01*
X122136382Y-74038824D01*
X122084937Y-73691108D01*
X122059011Y-73581833D01*
X121890712Y-73091047D01*
X121664380Y-72650504D01*
X121385413Y-72264754D01*
X121059207Y-71938344D01*
X120691161Y-71675821D01*
X120286672Y-71481736D01*
X119851139Y-71360634D01*
X119389959Y-71317066D01*
X119371056Y-71317000D01*
X118894523Y-71350964D01*
X118439532Y-71455275D01*
X117996257Y-71633557D01*
X117554873Y-71889438D01*
X117275734Y-72090279D01*
X116920368Y-72411278D01*
X116591987Y-72800671D01*
X116299608Y-73244114D01*
X116052247Y-73727263D01*
X115858919Y-74235774D01*
X115800100Y-74437925D01*
X115731394Y-74782203D01*
X115692195Y-75168816D01*
X115682771Y-75570025D01*
X113231762Y-75570025D01*
X113385453Y-74658812D01*
X113622665Y-73748016D01*
X113936555Y-72866282D01*
X114324391Y-72017878D01*
X114783444Y-71207073D01*
X115310981Y-70438134D01*
X115904271Y-69715330D01*
X116560582Y-69042929D01*
X117277184Y-68425199D01*
X118051345Y-67866408D01*
X118258062Y-67733594D01*
X119071901Y-67273165D01*
X119930947Y-66883761D01*
X120833160Y-66566151D01*
X121776498Y-66321103D01*
X122264333Y-66225788D01*
X122435234Y-66197616D01*
X122596138Y-66175710D01*
X122761275Y-66159312D01*
X122944875Y-66147664D01*
X123161164Y-66140008D01*
X123424374Y-66135586D01*
X123748733Y-66133641D01*
X124000000Y-66133346D01*
X124450918Y-66135723D01*
D11*
%TO.C,U2*%
X97690000Y-98080000D02*
X95150000Y-98080000D01*
X97690000Y-95540000D02*
X95150000Y-95540000D01*
X97690000Y-93000000D02*
X95150000Y-93000000D01*
X113580000Y-100660000D02*
X97690000Y-100660000D01*
X113580000Y-90420000D02*
X97690000Y-90420000D01*
X113580000Y-90420000D02*
X113580000Y-100660000D01*
X97690000Y-90420000D02*
X97690000Y-100660000D01*
%TO.C,R8*%
X114920000Y-107630000D02*
X114920000Y-107960000D01*
X121460000Y-107630000D02*
X114920000Y-107630000D01*
X121460000Y-107960000D02*
X121460000Y-107630000D01*
X114920000Y-110370000D02*
X114920000Y-110040000D01*
X121460000Y-110370000D02*
X114920000Y-110370000D01*
X121460000Y-110040000D02*
X121460000Y-110370000D01*
%TO.C,R7*%
X114920000Y-102630000D02*
X114920000Y-102960000D01*
X121460000Y-102630000D02*
X114920000Y-102630000D01*
X121460000Y-102960000D02*
X121460000Y-102630000D01*
X114920000Y-105370000D02*
X114920000Y-105040000D01*
X121460000Y-105370000D02*
X114920000Y-105370000D01*
X121460000Y-105040000D02*
X121460000Y-105370000D01*
%TO.C,R6*%
X100920000Y-103630000D02*
X100920000Y-103960000D01*
X107460000Y-103630000D02*
X100920000Y-103630000D01*
X107460000Y-103960000D02*
X107460000Y-103630000D01*
X100920000Y-106370000D02*
X100920000Y-106040000D01*
X107460000Y-106370000D02*
X100920000Y-106370000D01*
X107460000Y-106040000D02*
X107460000Y-106370000D01*
%TO.C,R5*%
X134080000Y-108870000D02*
X134080000Y-108540000D01*
X127540000Y-108870000D02*
X134080000Y-108870000D01*
X127540000Y-108540000D02*
X127540000Y-108870000D01*
X134080000Y-106130000D02*
X134080000Y-106460000D01*
X127540000Y-106130000D02*
X134080000Y-106130000D01*
X127540000Y-106460000D02*
X127540000Y-106130000D01*
%TO.C,R4*%
X139460000Y-103370000D02*
X139460000Y-103040000D01*
X132920000Y-103370000D02*
X139460000Y-103370000D01*
X132920000Y-103040000D02*
X132920000Y-103370000D01*
X139460000Y-100630000D02*
X139460000Y-100960000D01*
X132920000Y-100630000D02*
X139460000Y-100630000D01*
X132920000Y-100960000D02*
X132920000Y-100630000D01*
%TO.C,R3*%
X151080000Y-103370000D02*
X151080000Y-103040000D01*
X144540000Y-103370000D02*
X151080000Y-103370000D01*
X144540000Y-103040000D02*
X144540000Y-103370000D01*
X151080000Y-100630000D02*
X151080000Y-100960000D01*
X144540000Y-100630000D02*
X151080000Y-100630000D01*
X144540000Y-100960000D02*
X144540000Y-100630000D01*
%TO.C,R2*%
X146080000Y-108870000D02*
X146080000Y-108540000D01*
X139540000Y-108870000D02*
X146080000Y-108870000D01*
X139540000Y-108540000D02*
X139540000Y-108870000D01*
X146080000Y-106130000D02*
X146080000Y-106460000D01*
X139540000Y-106130000D02*
X146080000Y-106130000D01*
X139540000Y-106460000D02*
X139540000Y-106130000D01*
%TO.C,R1*%
X146080000Y-114370000D02*
X146080000Y-114040000D01*
X139540000Y-114370000D02*
X146080000Y-114370000D01*
X139540000Y-114040000D02*
X139540000Y-114370000D01*
X146080000Y-111630000D02*
X146080000Y-111960000D01*
X139540000Y-111630000D02*
X146080000Y-111630000D01*
X139540000Y-111960000D02*
X139540000Y-111630000D01*
%TO.C,Q8*%
X116430000Y-95350000D02*
X120030000Y-95350000D01*
X120068478Y-95338478D02*
G75*
G03*
X118230000Y-90900000I-1838478J1838478D01*
G01*
X116391522Y-95338478D02*
G75*
G02*
X118230000Y-90900000I1838478J1838478D01*
G01*
%TO.C,Q7*%
X123930000Y-95350000D02*
X127530000Y-95350000D01*
X127568478Y-95338478D02*
G75*
G03*
X125730000Y-90900000I-1838478J1838478D01*
G01*
X123891522Y-95338478D02*
G75*
G02*
X125730000Y-90900000I1838478J1838478D01*
G01*
%TO.C,Q3*%
X131970000Y-95350000D02*
X135570000Y-95350000D01*
X135608478Y-95338478D02*
G75*
G03*
X133770000Y-90900000I-1838478J1838478D01*
G01*
X131931522Y-95338478D02*
G75*
G02*
X133770000Y-90900000I1838478J1838478D01*
G01*
%TO.C,Q2*%
X139470000Y-95350000D02*
X143070000Y-95350000D01*
X143108478Y-95338478D02*
G75*
G03*
X141270000Y-90900000I-1838478J1838478D01*
G01*
X139431522Y-95338478D02*
G75*
G02*
X141270000Y-90900000I1838478J1838478D01*
G01*
%TO.C,Q1*%
X146970000Y-95350000D02*
X150570000Y-95350000D01*
X150608478Y-95338478D02*
G75*
G03*
X148770000Y-90900000I-1838478J1838478D01*
G01*
X146931522Y-95338478D02*
G75*
G02*
X148770000Y-90900000I1838478J1838478D01*
G01*
%TO.C,J2*%
X174735300Y-98270600D02*
X174735300Y-67790600D01*
X167115300Y-98270600D02*
X167115300Y-67790600D01*
X173465300Y-98270600D02*
X173465300Y-67790600D01*
X174735300Y-67790600D02*
X167115300Y-67790600D01*
X167115300Y-98270600D02*
X174735300Y-98270600D01*
%TO.C,J1*%
X174735300Y-108430600D02*
X174735300Y-98270600D01*
X167115300Y-108430600D02*
X174735300Y-108430600D01*
X167115300Y-98270600D02*
X167115300Y-108430600D01*
X174735300Y-98270600D02*
X167115300Y-98270600D01*
X173465300Y-98270600D02*
X173465300Y-108430600D01*
%TO.C,D3*%
X129685000Y-112865000D02*
X125800000Y-112865000D01*
X129685000Y-115135000D02*
X129685000Y-112865000D01*
X125800000Y-115135000D02*
X129685000Y-115135000D01*
%TO.C,D2*%
X123685000Y-112865000D02*
X119800000Y-112865000D01*
X123685000Y-115135000D02*
X123685000Y-112865000D01*
X119800000Y-115135000D02*
X123685000Y-115135000D01*
%TO.C,D1*%
X117685000Y-112865000D02*
X113800000Y-112865000D01*
X117685000Y-115135000D02*
X117685000Y-112865000D01*
X113800000Y-115135000D02*
X117685000Y-115135000D01*
%TO.C,C2*%
X95725000Y-101745225D02*
X95225000Y-101745225D01*
X95475000Y-101495225D02*
X95475000Y-101995225D01*
X94284000Y-106901000D02*
X93716000Y-106901000D01*
X94518000Y-106861000D02*
X93482000Y-106861000D01*
X94677000Y-106821000D02*
X93323000Y-106821000D01*
X94805000Y-106781000D02*
X93195000Y-106781000D01*
X94915000Y-106741000D02*
X93085000Y-106741000D01*
X95011000Y-106701000D02*
X92989000Y-106701000D01*
X95098000Y-106661000D02*
X92902000Y-106661000D01*
X95178000Y-106621000D02*
X92822000Y-106621000D01*
X95251000Y-106581000D02*
X92749000Y-106581000D01*
X95319000Y-106541000D02*
X92681000Y-106541000D01*
X95383000Y-106501000D02*
X92617000Y-106501000D01*
X95443000Y-106461000D02*
X92557000Y-106461000D01*
X95500000Y-106421000D02*
X92500000Y-106421000D01*
X95554000Y-106381000D02*
X92446000Y-106381000D01*
X95605000Y-106341000D02*
X92395000Y-106341000D01*
X92960000Y-106301000D02*
X92347000Y-106301000D01*
X95653000Y-106301000D02*
X95040000Y-106301000D01*
X92960000Y-106261000D02*
X92301000Y-106261000D01*
X95699000Y-106261000D02*
X95040000Y-106261000D01*
X92960000Y-106221000D02*
X92257000Y-106221000D01*
X95743000Y-106221000D02*
X95040000Y-106221000D01*
X92960000Y-106181000D02*
X92215000Y-106181000D01*
X95785000Y-106181000D02*
X95040000Y-106181000D01*
X92960000Y-106141000D02*
X92174000Y-106141000D01*
X95826000Y-106141000D02*
X95040000Y-106141000D01*
X92960000Y-106101000D02*
X92136000Y-106101000D01*
X95864000Y-106101000D02*
X95040000Y-106101000D01*
X92960000Y-106061000D02*
X92099000Y-106061000D01*
X95901000Y-106061000D02*
X95040000Y-106061000D01*
X92960000Y-106021000D02*
X92063000Y-106021000D01*
X95937000Y-106021000D02*
X95040000Y-106021000D01*
X92960000Y-105981000D02*
X92029000Y-105981000D01*
X95971000Y-105981000D02*
X95040000Y-105981000D01*
X92960000Y-105941000D02*
X91996000Y-105941000D01*
X96004000Y-105941000D02*
X95040000Y-105941000D01*
X92960000Y-105901000D02*
X91965000Y-105901000D01*
X96035000Y-105901000D02*
X95040000Y-105901000D01*
X92960000Y-105861000D02*
X91935000Y-105861000D01*
X96065000Y-105861000D02*
X95040000Y-105861000D01*
X92960000Y-105821000D02*
X91905000Y-105821000D01*
X96095000Y-105821000D02*
X95040000Y-105821000D01*
X92960000Y-105781000D02*
X91878000Y-105781000D01*
X96122000Y-105781000D02*
X95040000Y-105781000D01*
X92960000Y-105741000D02*
X91851000Y-105741000D01*
X96149000Y-105741000D02*
X95040000Y-105741000D01*
X92960000Y-105701000D02*
X91825000Y-105701000D01*
X96175000Y-105701000D02*
X95040000Y-105701000D01*
X92960000Y-105661000D02*
X91800000Y-105661000D01*
X96200000Y-105661000D02*
X95040000Y-105661000D01*
X92960000Y-105621000D02*
X91776000Y-105621000D01*
X96224000Y-105621000D02*
X95040000Y-105621000D01*
X92960000Y-105581000D02*
X91753000Y-105581000D01*
X96247000Y-105581000D02*
X95040000Y-105581000D01*
X92960000Y-105541000D02*
X91732000Y-105541000D01*
X96268000Y-105541000D02*
X95040000Y-105541000D01*
X92960000Y-105501000D02*
X91710000Y-105501000D01*
X96290000Y-105501000D02*
X95040000Y-105501000D01*
X92960000Y-105461000D02*
X91690000Y-105461000D01*
X96310000Y-105461000D02*
X95040000Y-105461000D01*
X92960000Y-105421000D02*
X91671000Y-105421000D01*
X96329000Y-105421000D02*
X95040000Y-105421000D01*
X92960000Y-105381000D02*
X91652000Y-105381000D01*
X96348000Y-105381000D02*
X95040000Y-105381000D01*
X92960000Y-105341000D02*
X91635000Y-105341000D01*
X96365000Y-105341000D02*
X95040000Y-105341000D01*
X92960000Y-105301000D02*
X91618000Y-105301000D01*
X96382000Y-105301000D02*
X95040000Y-105301000D01*
X92960000Y-105261000D02*
X91602000Y-105261000D01*
X96398000Y-105261000D02*
X95040000Y-105261000D01*
X92960000Y-105221000D02*
X91586000Y-105221000D01*
X96414000Y-105221000D02*
X95040000Y-105221000D01*
X92960000Y-105181000D02*
X91572000Y-105181000D01*
X96428000Y-105181000D02*
X95040000Y-105181000D01*
X92960000Y-105141000D02*
X91558000Y-105141000D01*
X96442000Y-105141000D02*
X95040000Y-105141000D01*
X92960000Y-105101000D02*
X91545000Y-105101000D01*
X96455000Y-105101000D02*
X95040000Y-105101000D01*
X92960000Y-105061000D02*
X91532000Y-105061000D01*
X96468000Y-105061000D02*
X95040000Y-105061000D01*
X92960000Y-105021000D02*
X91520000Y-105021000D01*
X96480000Y-105021000D02*
X95040000Y-105021000D01*
X92960000Y-104980000D02*
X91509000Y-104980000D01*
X96491000Y-104980000D02*
X95040000Y-104980000D01*
X92960000Y-104940000D02*
X91499000Y-104940000D01*
X96501000Y-104940000D02*
X95040000Y-104940000D01*
X92960000Y-104900000D02*
X91489000Y-104900000D01*
X96511000Y-104900000D02*
X95040000Y-104900000D01*
X92960000Y-104860000D02*
X91480000Y-104860000D01*
X96520000Y-104860000D02*
X95040000Y-104860000D01*
X92960000Y-104820000D02*
X91472000Y-104820000D01*
X96528000Y-104820000D02*
X95040000Y-104820000D01*
X92960000Y-104780000D02*
X91464000Y-104780000D01*
X96536000Y-104780000D02*
X95040000Y-104780000D01*
X92960000Y-104740000D02*
X91457000Y-104740000D01*
X96543000Y-104740000D02*
X95040000Y-104740000D01*
X92960000Y-104700000D02*
X91450000Y-104700000D01*
X96550000Y-104700000D02*
X95040000Y-104700000D01*
X92960000Y-104660000D02*
X91444000Y-104660000D01*
X96556000Y-104660000D02*
X95040000Y-104660000D01*
X92960000Y-104620000D02*
X91439000Y-104620000D01*
X96561000Y-104620000D02*
X95040000Y-104620000D01*
X92960000Y-104580000D02*
X91435000Y-104580000D01*
X96565000Y-104580000D02*
X95040000Y-104580000D01*
X92960000Y-104540000D02*
X91431000Y-104540000D01*
X96569000Y-104540000D02*
X95040000Y-104540000D01*
X92960000Y-104500000D02*
X91427000Y-104500000D01*
X96573000Y-104500000D02*
X95040000Y-104500000D01*
X92960000Y-104460000D02*
X91424000Y-104460000D01*
X96576000Y-104460000D02*
X95040000Y-104460000D01*
X92960000Y-104420000D02*
X91422000Y-104420000D01*
X96578000Y-104420000D02*
X95040000Y-104420000D01*
X92960000Y-104380000D02*
X91421000Y-104380000D01*
X96579000Y-104380000D02*
X95040000Y-104380000D01*
X96580000Y-104340000D02*
X95040000Y-104340000D01*
X92960000Y-104340000D02*
X91420000Y-104340000D01*
X96580000Y-104300000D02*
X95040000Y-104300000D01*
X92960000Y-104300000D02*
X91420000Y-104300000D01*
X96620000Y-104300000D02*
G75*
G03*
X96620000Y-104300000I-2620000J0D01*
G01*
%TO.C,C1*%
X95725000Y-84245225D02*
X95225000Y-84245225D01*
X95475000Y-83995225D02*
X95475000Y-84495225D01*
X94284000Y-89401000D02*
X93716000Y-89401000D01*
X94518000Y-89361000D02*
X93482000Y-89361000D01*
X94677000Y-89321000D02*
X93323000Y-89321000D01*
X94805000Y-89281000D02*
X93195000Y-89281000D01*
X94915000Y-89241000D02*
X93085000Y-89241000D01*
X95011000Y-89201000D02*
X92989000Y-89201000D01*
X95098000Y-89161000D02*
X92902000Y-89161000D01*
X95178000Y-89121000D02*
X92822000Y-89121000D01*
X95251000Y-89081000D02*
X92749000Y-89081000D01*
X95319000Y-89041000D02*
X92681000Y-89041000D01*
X95383000Y-89001000D02*
X92617000Y-89001000D01*
X95443000Y-88961000D02*
X92557000Y-88961000D01*
X95500000Y-88921000D02*
X92500000Y-88921000D01*
X95554000Y-88881000D02*
X92446000Y-88881000D01*
X95605000Y-88841000D02*
X92395000Y-88841000D01*
X92960000Y-88801000D02*
X92347000Y-88801000D01*
X95653000Y-88801000D02*
X95040000Y-88801000D01*
X92960000Y-88761000D02*
X92301000Y-88761000D01*
X95699000Y-88761000D02*
X95040000Y-88761000D01*
X92960000Y-88721000D02*
X92257000Y-88721000D01*
X95743000Y-88721000D02*
X95040000Y-88721000D01*
X92960000Y-88681000D02*
X92215000Y-88681000D01*
X95785000Y-88681000D02*
X95040000Y-88681000D01*
X92960000Y-88641000D02*
X92174000Y-88641000D01*
X95826000Y-88641000D02*
X95040000Y-88641000D01*
X92960000Y-88601000D02*
X92136000Y-88601000D01*
X95864000Y-88601000D02*
X95040000Y-88601000D01*
X92960000Y-88561000D02*
X92099000Y-88561000D01*
X95901000Y-88561000D02*
X95040000Y-88561000D01*
X92960000Y-88521000D02*
X92063000Y-88521000D01*
X95937000Y-88521000D02*
X95040000Y-88521000D01*
X92960000Y-88481000D02*
X92029000Y-88481000D01*
X95971000Y-88481000D02*
X95040000Y-88481000D01*
X92960000Y-88441000D02*
X91996000Y-88441000D01*
X96004000Y-88441000D02*
X95040000Y-88441000D01*
X92960000Y-88401000D02*
X91965000Y-88401000D01*
X96035000Y-88401000D02*
X95040000Y-88401000D01*
X92960000Y-88361000D02*
X91935000Y-88361000D01*
X96065000Y-88361000D02*
X95040000Y-88361000D01*
X92960000Y-88321000D02*
X91905000Y-88321000D01*
X96095000Y-88321000D02*
X95040000Y-88321000D01*
X92960000Y-88281000D02*
X91878000Y-88281000D01*
X96122000Y-88281000D02*
X95040000Y-88281000D01*
X92960000Y-88241000D02*
X91851000Y-88241000D01*
X96149000Y-88241000D02*
X95040000Y-88241000D01*
X92960000Y-88201000D02*
X91825000Y-88201000D01*
X96175000Y-88201000D02*
X95040000Y-88201000D01*
X92960000Y-88161000D02*
X91800000Y-88161000D01*
X96200000Y-88161000D02*
X95040000Y-88161000D01*
X92960000Y-88121000D02*
X91776000Y-88121000D01*
X96224000Y-88121000D02*
X95040000Y-88121000D01*
X92960000Y-88081000D02*
X91753000Y-88081000D01*
X96247000Y-88081000D02*
X95040000Y-88081000D01*
X92960000Y-88041000D02*
X91732000Y-88041000D01*
X96268000Y-88041000D02*
X95040000Y-88041000D01*
X92960000Y-88001000D02*
X91710000Y-88001000D01*
X96290000Y-88001000D02*
X95040000Y-88001000D01*
X92960000Y-87961000D02*
X91690000Y-87961000D01*
X96310000Y-87961000D02*
X95040000Y-87961000D01*
X92960000Y-87921000D02*
X91671000Y-87921000D01*
X96329000Y-87921000D02*
X95040000Y-87921000D01*
X92960000Y-87881000D02*
X91652000Y-87881000D01*
X96348000Y-87881000D02*
X95040000Y-87881000D01*
X92960000Y-87841000D02*
X91635000Y-87841000D01*
X96365000Y-87841000D02*
X95040000Y-87841000D01*
X92960000Y-87801000D02*
X91618000Y-87801000D01*
X96382000Y-87801000D02*
X95040000Y-87801000D01*
X92960000Y-87761000D02*
X91602000Y-87761000D01*
X96398000Y-87761000D02*
X95040000Y-87761000D01*
X92960000Y-87721000D02*
X91586000Y-87721000D01*
X96414000Y-87721000D02*
X95040000Y-87721000D01*
X92960000Y-87681000D02*
X91572000Y-87681000D01*
X96428000Y-87681000D02*
X95040000Y-87681000D01*
X92960000Y-87641000D02*
X91558000Y-87641000D01*
X96442000Y-87641000D02*
X95040000Y-87641000D01*
X92960000Y-87601000D02*
X91545000Y-87601000D01*
X96455000Y-87601000D02*
X95040000Y-87601000D01*
X92960000Y-87561000D02*
X91532000Y-87561000D01*
X96468000Y-87561000D02*
X95040000Y-87561000D01*
X92960000Y-87521000D02*
X91520000Y-87521000D01*
X96480000Y-87521000D02*
X95040000Y-87521000D01*
X92960000Y-87480000D02*
X91509000Y-87480000D01*
X96491000Y-87480000D02*
X95040000Y-87480000D01*
X92960000Y-87440000D02*
X91499000Y-87440000D01*
X96501000Y-87440000D02*
X95040000Y-87440000D01*
X92960000Y-87400000D02*
X91489000Y-87400000D01*
X96511000Y-87400000D02*
X95040000Y-87400000D01*
X92960000Y-87360000D02*
X91480000Y-87360000D01*
X96520000Y-87360000D02*
X95040000Y-87360000D01*
X92960000Y-87320000D02*
X91472000Y-87320000D01*
X96528000Y-87320000D02*
X95040000Y-87320000D01*
X92960000Y-87280000D02*
X91464000Y-87280000D01*
X96536000Y-87280000D02*
X95040000Y-87280000D01*
X92960000Y-87240000D02*
X91457000Y-87240000D01*
X96543000Y-87240000D02*
X95040000Y-87240000D01*
X92960000Y-87200000D02*
X91450000Y-87200000D01*
X96550000Y-87200000D02*
X95040000Y-87200000D01*
X92960000Y-87160000D02*
X91444000Y-87160000D01*
X96556000Y-87160000D02*
X95040000Y-87160000D01*
X92960000Y-87120000D02*
X91439000Y-87120000D01*
X96561000Y-87120000D02*
X95040000Y-87120000D01*
X92960000Y-87080000D02*
X91435000Y-87080000D01*
X96565000Y-87080000D02*
X95040000Y-87080000D01*
X92960000Y-87040000D02*
X91431000Y-87040000D01*
X96569000Y-87040000D02*
X95040000Y-87040000D01*
X92960000Y-87000000D02*
X91427000Y-87000000D01*
X96573000Y-87000000D02*
X95040000Y-87000000D01*
X92960000Y-86960000D02*
X91424000Y-86960000D01*
X96576000Y-86960000D02*
X95040000Y-86960000D01*
X92960000Y-86920000D02*
X91422000Y-86920000D01*
X96578000Y-86920000D02*
X95040000Y-86920000D01*
X92960000Y-86880000D02*
X91421000Y-86880000D01*
X96579000Y-86880000D02*
X95040000Y-86880000D01*
X96580000Y-86840000D02*
X95040000Y-86840000D01*
X92960000Y-86840000D02*
X91420000Y-86840000D01*
X96580000Y-86800000D02*
X95040000Y-86800000D01*
X92960000Y-86800000D02*
X91420000Y-86800000D01*
X96620000Y-86800000D02*
G75*
G03*
X96620000Y-86800000I-2620000J0D01*
G01*
%TO.C,Q4*%
D13*
X159404761Y-101380119D02*
X159309523Y-101332500D01*
X159214285Y-101237261D01*
X159071428Y-101094404D01*
X158976190Y-101046785D01*
X158880952Y-101046785D01*
X158928571Y-101284880D02*
X158833333Y-101237261D01*
X158738095Y-101142023D01*
X158690476Y-100951547D01*
X158690476Y-100618214D01*
X158738095Y-100427738D01*
X158833333Y-100332500D01*
X158928571Y-100284880D01*
X159119047Y-100284880D01*
X159214285Y-100332500D01*
X159309523Y-100427738D01*
X159357142Y-100618214D01*
X159357142Y-100951547D01*
X159309523Y-101142023D01*
X159214285Y-101237261D01*
X159119047Y-101284880D01*
X158928571Y-101284880D01*
X160214285Y-100618214D02*
X160214285Y-101284880D01*
X159976190Y-100237261D02*
X159738095Y-100951547D01*
X160357142Y-100951547D01*
%TO.C,Q10*%
X158928571Y-67380119D02*
X158833333Y-67332500D01*
X158738095Y-67237261D01*
X158595238Y-67094404D01*
X158500000Y-67046785D01*
X158404761Y-67046785D01*
X158452380Y-67284880D02*
X158357142Y-67237261D01*
X158261904Y-67142023D01*
X158214285Y-66951547D01*
X158214285Y-66618214D01*
X158261904Y-66427738D01*
X158357142Y-66332500D01*
X158452380Y-66284880D01*
X158642857Y-66284880D01*
X158738095Y-66332500D01*
X158833333Y-66427738D01*
X158880952Y-66618214D01*
X158880952Y-66951547D01*
X158833333Y-67142023D01*
X158738095Y-67237261D01*
X158642857Y-67284880D01*
X158452380Y-67284880D01*
X159833333Y-67284880D02*
X159261904Y-67284880D01*
X159547619Y-67284880D02*
X159547619Y-66284880D01*
X159452380Y-66427738D01*
X159357142Y-66522976D01*
X159261904Y-66570595D01*
X160452380Y-66284880D02*
X160547619Y-66284880D01*
X160642857Y-66332500D01*
X160690476Y-66380119D01*
X160738095Y-66475357D01*
X160785714Y-66665833D01*
X160785714Y-66903928D01*
X160738095Y-67094404D01*
X160690476Y-67189642D01*
X160642857Y-67237261D01*
X160547619Y-67284880D01*
X160452380Y-67284880D01*
X160357142Y-67237261D01*
X160309523Y-67189642D01*
X160261904Y-67094404D01*
X160214285Y-66903928D01*
X160214285Y-66665833D01*
X160261904Y-66475357D01*
X160309523Y-66380119D01*
X160357142Y-66332500D01*
X160452380Y-66284880D01*
%TO.C,Q9*%
X159404761Y-75880119D02*
X159309523Y-75832500D01*
X159214285Y-75737261D01*
X159071428Y-75594404D01*
X158976190Y-75546785D01*
X158880952Y-75546785D01*
X158928571Y-75784880D02*
X158833333Y-75737261D01*
X158738095Y-75642023D01*
X158690476Y-75451547D01*
X158690476Y-75118214D01*
X158738095Y-74927738D01*
X158833333Y-74832500D01*
X158928571Y-74784880D01*
X159119047Y-74784880D01*
X159214285Y-74832500D01*
X159309523Y-74927738D01*
X159357142Y-75118214D01*
X159357142Y-75451547D01*
X159309523Y-75642023D01*
X159214285Y-75737261D01*
X159119047Y-75784880D01*
X158928571Y-75784880D01*
X159833333Y-75784880D02*
X160023809Y-75784880D01*
X160119047Y-75737261D01*
X160166666Y-75689642D01*
X160261904Y-75546785D01*
X160309523Y-75356309D01*
X160309523Y-74975357D01*
X160261904Y-74880119D01*
X160214285Y-74832500D01*
X160119047Y-74784880D01*
X159928571Y-74784880D01*
X159833333Y-74832500D01*
X159785714Y-74880119D01*
X159738095Y-74975357D01*
X159738095Y-75213452D01*
X159785714Y-75308690D01*
X159833333Y-75356309D01*
X159928571Y-75403928D01*
X160119047Y-75403928D01*
X160214285Y-75356309D01*
X160261904Y-75308690D01*
X160309523Y-75213452D01*
%TO.C,Q6*%
X159444761Y-84380119D02*
X159349523Y-84332500D01*
X159254285Y-84237261D01*
X159111428Y-84094404D01*
X159016190Y-84046785D01*
X158920952Y-84046785D01*
X158968571Y-84284880D02*
X158873333Y-84237261D01*
X158778095Y-84142023D01*
X158730476Y-83951547D01*
X158730476Y-83618214D01*
X158778095Y-83427738D01*
X158873333Y-83332500D01*
X158968571Y-83284880D01*
X159159047Y-83284880D01*
X159254285Y-83332500D01*
X159349523Y-83427738D01*
X159397142Y-83618214D01*
X159397142Y-83951547D01*
X159349523Y-84142023D01*
X159254285Y-84237261D01*
X159159047Y-84284880D01*
X158968571Y-84284880D01*
X160254285Y-83284880D02*
X160063809Y-83284880D01*
X159968571Y-83332500D01*
X159920952Y-83380119D01*
X159825714Y-83522976D01*
X159778095Y-83713452D01*
X159778095Y-84094404D01*
X159825714Y-84189642D01*
X159873333Y-84237261D01*
X159968571Y-84284880D01*
X160159047Y-84284880D01*
X160254285Y-84237261D01*
X160301904Y-84189642D01*
X160349523Y-84094404D01*
X160349523Y-83856309D01*
X160301904Y-83761071D01*
X160254285Y-83713452D01*
X160159047Y-83665833D01*
X159968571Y-83665833D01*
X159873333Y-83713452D01*
X159825714Y-83761071D01*
X159778095Y-83856309D01*
%TO.C,Q5*%
X159404761Y-92880119D02*
X159309523Y-92832500D01*
X159214285Y-92737261D01*
X159071428Y-92594404D01*
X158976190Y-92546785D01*
X158880952Y-92546785D01*
X158928571Y-92784880D02*
X158833333Y-92737261D01*
X158738095Y-92642023D01*
X158690476Y-92451547D01*
X158690476Y-92118214D01*
X158738095Y-91927738D01*
X158833333Y-91832500D01*
X158928571Y-91784880D01*
X159119047Y-91784880D01*
X159214285Y-91832500D01*
X159309523Y-91927738D01*
X159357142Y-92118214D01*
X159357142Y-92451547D01*
X159309523Y-92642023D01*
X159214285Y-92737261D01*
X159119047Y-92784880D01*
X158928571Y-92784880D01*
X160261904Y-91784880D02*
X159785714Y-91784880D01*
X159738095Y-92261071D01*
X159785714Y-92213452D01*
X159880952Y-92165833D01*
X160119047Y-92165833D01*
X160214285Y-92213452D01*
X160261904Y-92261071D01*
X160309523Y-92356309D01*
X160309523Y-92594404D01*
X160261904Y-92689642D01*
X160214285Y-92737261D01*
X160119047Y-92784880D01*
X159880952Y-92784880D01*
X159785714Y-92737261D01*
X159738095Y-92689642D01*
%TO.C,SW1*%
X103666666Y-109864761D02*
X103809523Y-109912380D01*
X104047619Y-109912380D01*
X104142857Y-109864761D01*
X104190476Y-109817142D01*
X104238095Y-109721904D01*
X104238095Y-109626666D01*
X104190476Y-109531428D01*
X104142857Y-109483809D01*
X104047619Y-109436190D01*
X103857142Y-109388571D01*
X103761904Y-109340952D01*
X103714285Y-109293333D01*
X103666666Y-109198095D01*
X103666666Y-109102857D01*
X103714285Y-109007619D01*
X103761904Y-108960000D01*
X103857142Y-108912380D01*
X104095238Y-108912380D01*
X104238095Y-108960000D01*
X104571428Y-108912380D02*
X104809523Y-109912380D01*
X105000000Y-109198095D01*
X105190476Y-109912380D01*
X105428571Y-108912380D01*
X106333333Y-109912380D02*
X105761904Y-109912380D01*
X106047619Y-109912380D02*
X106047619Y-108912380D01*
X105952380Y-109055238D01*
X105857142Y-109150476D01*
X105761904Y-109198095D01*
X99285119Y-108886980D02*
X99475595Y-108886980D01*
X99570833Y-108934600D01*
X99666071Y-109029838D01*
X99713690Y-109220314D01*
X99713690Y-109553647D01*
X99666071Y-109744123D01*
X99570833Y-109839361D01*
X99475595Y-109886980D01*
X99285119Y-109886980D01*
X99189880Y-109839361D01*
X99094642Y-109744123D01*
X99047023Y-109553647D01*
X99047023Y-109220314D01*
X99094642Y-109029838D01*
X99189880Y-108934600D01*
X99285119Y-108886980D01*
X100475595Y-109363171D02*
X100142261Y-109363171D01*
X100142261Y-109886980D02*
X100142261Y-108886980D01*
X100618452Y-108886980D01*
X101332738Y-109363171D02*
X100999404Y-109363171D01*
X100999404Y-109886980D02*
X100999404Y-108886980D01*
X101475595Y-108886980D01*
X109168852Y-108899680D02*
X109359328Y-108899680D01*
X109454566Y-108947300D01*
X109549804Y-109042538D01*
X109597423Y-109233014D01*
X109597423Y-109566347D01*
X109549804Y-109756823D01*
X109454566Y-109852061D01*
X109359328Y-109899680D01*
X109168852Y-109899680D01*
X109073614Y-109852061D01*
X108978376Y-109756823D01*
X108930757Y-109566347D01*
X108930757Y-109233014D01*
X108978376Y-109042538D01*
X109073614Y-108947300D01*
X109168852Y-108899680D01*
X110025995Y-109899680D02*
X110025995Y-108899680D01*
X110597423Y-109899680D01*
X110597423Y-108899680D01*
%TO.C,U1*%
X137452380Y-75461904D02*
X138261904Y-75461904D01*
X138357142Y-75414285D01*
X138404761Y-75366666D01*
X138452380Y-75271428D01*
X138452380Y-75080952D01*
X138404761Y-74985714D01*
X138357142Y-74938095D01*
X138261904Y-74890476D01*
X137452380Y-74890476D01*
X138452380Y-73890476D02*
X138452380Y-74461904D01*
X138452380Y-74176190D02*
X137452380Y-74176190D01*
X137595238Y-74271428D01*
X137690476Y-74366666D01*
X137738095Y-74461904D01*
%TO.C,U2*%
X114032380Y-98761904D02*
X114841904Y-98761904D01*
X114937142Y-98714285D01*
X114984761Y-98666666D01*
X115032380Y-98571428D01*
X115032380Y-98380952D01*
X114984761Y-98285714D01*
X114937142Y-98238095D01*
X114841904Y-98190476D01*
X114032380Y-98190476D01*
X114127619Y-97761904D02*
X114080000Y-97714285D01*
X114032380Y-97619047D01*
X114032380Y-97380952D01*
X114080000Y-97285714D01*
X114127619Y-97238095D01*
X114222857Y-97190476D01*
X114318095Y-97190476D01*
X114460952Y-97238095D01*
X115032380Y-97809523D01*
X115032380Y-97190476D01*
%TO.C,R8*%
X118023333Y-111822380D02*
X117690000Y-111346190D01*
X117451904Y-111822380D02*
X117451904Y-110822380D01*
X117832857Y-110822380D01*
X117928095Y-110870000D01*
X117975714Y-110917619D01*
X118023333Y-111012857D01*
X118023333Y-111155714D01*
X117975714Y-111250952D01*
X117928095Y-111298571D01*
X117832857Y-111346190D01*
X117451904Y-111346190D01*
X118594761Y-111250952D02*
X118499523Y-111203333D01*
X118451904Y-111155714D01*
X118404285Y-111060476D01*
X118404285Y-111012857D01*
X118451904Y-110917619D01*
X118499523Y-110870000D01*
X118594761Y-110822380D01*
X118785238Y-110822380D01*
X118880476Y-110870000D01*
X118928095Y-110917619D01*
X118975714Y-111012857D01*
X118975714Y-111060476D01*
X118928095Y-111155714D01*
X118880476Y-111203333D01*
X118785238Y-111250952D01*
X118594761Y-111250952D01*
X118499523Y-111298571D01*
X118451904Y-111346190D01*
X118404285Y-111441428D01*
X118404285Y-111631904D01*
X118451904Y-111727142D01*
X118499523Y-111774761D01*
X118594761Y-111822380D01*
X118785238Y-111822380D01*
X118880476Y-111774761D01*
X118928095Y-111727142D01*
X118975714Y-111631904D01*
X118975714Y-111441428D01*
X118928095Y-111346190D01*
X118880476Y-111298571D01*
X118785238Y-111250952D01*
%TO.C,R7*%
X118023333Y-106822380D02*
X117690000Y-106346190D01*
X117451904Y-106822380D02*
X117451904Y-105822380D01*
X117832857Y-105822380D01*
X117928095Y-105870000D01*
X117975714Y-105917619D01*
X118023333Y-106012857D01*
X118023333Y-106155714D01*
X117975714Y-106250952D01*
X117928095Y-106298571D01*
X117832857Y-106346190D01*
X117451904Y-106346190D01*
X118356666Y-105822380D02*
X119023333Y-105822380D01*
X118594761Y-106822380D01*
%TO.C,R6*%
X104023333Y-107822380D02*
X103690000Y-107346190D01*
X103451904Y-107822380D02*
X103451904Y-106822380D01*
X103832857Y-106822380D01*
X103928095Y-106870000D01*
X103975714Y-106917619D01*
X104023333Y-107012857D01*
X104023333Y-107155714D01*
X103975714Y-107250952D01*
X103928095Y-107298571D01*
X103832857Y-107346190D01*
X103451904Y-107346190D01*
X104880476Y-106822380D02*
X104690000Y-106822380D01*
X104594761Y-106870000D01*
X104547142Y-106917619D01*
X104451904Y-107060476D01*
X104404285Y-107250952D01*
X104404285Y-107631904D01*
X104451904Y-107727142D01*
X104499523Y-107774761D01*
X104594761Y-107822380D01*
X104785238Y-107822380D01*
X104880476Y-107774761D01*
X104928095Y-107727142D01*
X104975714Y-107631904D01*
X104975714Y-107393809D01*
X104928095Y-107298571D01*
X104880476Y-107250952D01*
X104785238Y-107203333D01*
X104594761Y-107203333D01*
X104499523Y-107250952D01*
X104451904Y-107298571D01*
X104404285Y-107393809D01*
%TO.C,R5*%
X130643333Y-105582380D02*
X130310000Y-105106190D01*
X130071904Y-105582380D02*
X130071904Y-104582380D01*
X130452857Y-104582380D01*
X130548095Y-104630000D01*
X130595714Y-104677619D01*
X130643333Y-104772857D01*
X130643333Y-104915714D01*
X130595714Y-105010952D01*
X130548095Y-105058571D01*
X130452857Y-105106190D01*
X130071904Y-105106190D01*
X131548095Y-104582380D02*
X131071904Y-104582380D01*
X131024285Y-105058571D01*
X131071904Y-105010952D01*
X131167142Y-104963333D01*
X131405238Y-104963333D01*
X131500476Y-105010952D01*
X131548095Y-105058571D01*
X131595714Y-105153809D01*
X131595714Y-105391904D01*
X131548095Y-105487142D01*
X131500476Y-105534761D01*
X131405238Y-105582380D01*
X131167142Y-105582380D01*
X131071904Y-105534761D01*
X131024285Y-105487142D01*
%TO.C,R4*%
X136023333Y-100082380D02*
X135690000Y-99606190D01*
X135451904Y-100082380D02*
X135451904Y-99082380D01*
X135832857Y-99082380D01*
X135928095Y-99130000D01*
X135975714Y-99177619D01*
X136023333Y-99272857D01*
X136023333Y-99415714D01*
X135975714Y-99510952D01*
X135928095Y-99558571D01*
X135832857Y-99606190D01*
X135451904Y-99606190D01*
X136880476Y-99415714D02*
X136880476Y-100082380D01*
X136642380Y-99034761D02*
X136404285Y-99749047D01*
X137023333Y-99749047D01*
%TO.C,R3*%
X147643333Y-100082380D02*
X147310000Y-99606190D01*
X147071904Y-100082380D02*
X147071904Y-99082380D01*
X147452857Y-99082380D01*
X147548095Y-99130000D01*
X147595714Y-99177619D01*
X147643333Y-99272857D01*
X147643333Y-99415714D01*
X147595714Y-99510952D01*
X147548095Y-99558571D01*
X147452857Y-99606190D01*
X147071904Y-99606190D01*
X147976666Y-99082380D02*
X148595714Y-99082380D01*
X148262380Y-99463333D01*
X148405238Y-99463333D01*
X148500476Y-99510952D01*
X148548095Y-99558571D01*
X148595714Y-99653809D01*
X148595714Y-99891904D01*
X148548095Y-99987142D01*
X148500476Y-100034761D01*
X148405238Y-100082380D01*
X148119523Y-100082380D01*
X148024285Y-100034761D01*
X147976666Y-99987142D01*
%TO.C,R2*%
X142643333Y-105582380D02*
X142310000Y-105106190D01*
X142071904Y-105582380D02*
X142071904Y-104582380D01*
X142452857Y-104582380D01*
X142548095Y-104630000D01*
X142595714Y-104677619D01*
X142643333Y-104772857D01*
X142643333Y-104915714D01*
X142595714Y-105010952D01*
X142548095Y-105058571D01*
X142452857Y-105106190D01*
X142071904Y-105106190D01*
X143024285Y-104677619D02*
X143071904Y-104630000D01*
X143167142Y-104582380D01*
X143405238Y-104582380D01*
X143500476Y-104630000D01*
X143548095Y-104677619D01*
X143595714Y-104772857D01*
X143595714Y-104868095D01*
X143548095Y-105010952D01*
X142976666Y-105582380D01*
X143595714Y-105582380D01*
%TO.C,R1*%
X142643333Y-111082380D02*
X142310000Y-110606190D01*
X142071904Y-111082380D02*
X142071904Y-110082380D01*
X142452857Y-110082380D01*
X142548095Y-110130000D01*
X142595714Y-110177619D01*
X142643333Y-110272857D01*
X142643333Y-110415714D01*
X142595714Y-110510952D01*
X142548095Y-110558571D01*
X142452857Y-110606190D01*
X142071904Y-110606190D01*
X143595714Y-111082380D02*
X143024285Y-111082380D01*
X143310000Y-111082380D02*
X143310000Y-110082380D01*
X143214761Y-110225238D01*
X143119523Y-110320476D01*
X143024285Y-110368095D01*
%TO.C,Q8*%
X118134761Y-90487619D02*
X118039523Y-90440000D01*
X117944285Y-90344761D01*
X117801428Y-90201904D01*
X117706190Y-90154285D01*
X117610952Y-90154285D01*
X117658571Y-90392380D02*
X117563333Y-90344761D01*
X117468095Y-90249523D01*
X117420476Y-90059047D01*
X117420476Y-89725714D01*
X117468095Y-89535238D01*
X117563333Y-89440000D01*
X117658571Y-89392380D01*
X117849047Y-89392380D01*
X117944285Y-89440000D01*
X118039523Y-89535238D01*
X118087142Y-89725714D01*
X118087142Y-90059047D01*
X118039523Y-90249523D01*
X117944285Y-90344761D01*
X117849047Y-90392380D01*
X117658571Y-90392380D01*
X118658571Y-89820952D02*
X118563333Y-89773333D01*
X118515714Y-89725714D01*
X118468095Y-89630476D01*
X118468095Y-89582857D01*
X118515714Y-89487619D01*
X118563333Y-89440000D01*
X118658571Y-89392380D01*
X118849047Y-89392380D01*
X118944285Y-89440000D01*
X118991904Y-89487619D01*
X119039523Y-89582857D01*
X119039523Y-89630476D01*
X118991904Y-89725714D01*
X118944285Y-89773333D01*
X118849047Y-89820952D01*
X118658571Y-89820952D01*
X118563333Y-89868571D01*
X118515714Y-89916190D01*
X118468095Y-90011428D01*
X118468095Y-90201904D01*
X118515714Y-90297142D01*
X118563333Y-90344761D01*
X118658571Y-90392380D01*
X118849047Y-90392380D01*
X118944285Y-90344761D01*
X118991904Y-90297142D01*
X119039523Y-90201904D01*
X119039523Y-90011428D01*
X118991904Y-89916190D01*
X118944285Y-89868571D01*
X118849047Y-89820952D01*
%TO.C,Q7*%
X125634761Y-90487619D02*
X125539523Y-90440000D01*
X125444285Y-90344761D01*
X125301428Y-90201904D01*
X125206190Y-90154285D01*
X125110952Y-90154285D01*
X125158571Y-90392380D02*
X125063333Y-90344761D01*
X124968095Y-90249523D01*
X124920476Y-90059047D01*
X124920476Y-89725714D01*
X124968095Y-89535238D01*
X125063333Y-89440000D01*
X125158571Y-89392380D01*
X125349047Y-89392380D01*
X125444285Y-89440000D01*
X125539523Y-89535238D01*
X125587142Y-89725714D01*
X125587142Y-90059047D01*
X125539523Y-90249523D01*
X125444285Y-90344761D01*
X125349047Y-90392380D01*
X125158571Y-90392380D01*
X125920476Y-89392380D02*
X126587142Y-89392380D01*
X126158571Y-90392380D01*
%TO.C,Q3*%
X133674761Y-90487619D02*
X133579523Y-90440000D01*
X133484285Y-90344761D01*
X133341428Y-90201904D01*
X133246190Y-90154285D01*
X133150952Y-90154285D01*
X133198571Y-90392380D02*
X133103333Y-90344761D01*
X133008095Y-90249523D01*
X132960476Y-90059047D01*
X132960476Y-89725714D01*
X133008095Y-89535238D01*
X133103333Y-89440000D01*
X133198571Y-89392380D01*
X133389047Y-89392380D01*
X133484285Y-89440000D01*
X133579523Y-89535238D01*
X133627142Y-89725714D01*
X133627142Y-90059047D01*
X133579523Y-90249523D01*
X133484285Y-90344761D01*
X133389047Y-90392380D01*
X133198571Y-90392380D01*
X133960476Y-89392380D02*
X134579523Y-89392380D01*
X134246190Y-89773333D01*
X134389047Y-89773333D01*
X134484285Y-89820952D01*
X134531904Y-89868571D01*
X134579523Y-89963809D01*
X134579523Y-90201904D01*
X134531904Y-90297142D01*
X134484285Y-90344761D01*
X134389047Y-90392380D01*
X134103333Y-90392380D01*
X134008095Y-90344761D01*
X133960476Y-90297142D01*
%TO.C,Q2*%
X141174761Y-90487619D02*
X141079523Y-90440000D01*
X140984285Y-90344761D01*
X140841428Y-90201904D01*
X140746190Y-90154285D01*
X140650952Y-90154285D01*
X140698571Y-90392380D02*
X140603333Y-90344761D01*
X140508095Y-90249523D01*
X140460476Y-90059047D01*
X140460476Y-89725714D01*
X140508095Y-89535238D01*
X140603333Y-89440000D01*
X140698571Y-89392380D01*
X140889047Y-89392380D01*
X140984285Y-89440000D01*
X141079523Y-89535238D01*
X141127142Y-89725714D01*
X141127142Y-90059047D01*
X141079523Y-90249523D01*
X140984285Y-90344761D01*
X140889047Y-90392380D01*
X140698571Y-90392380D01*
X141508095Y-89487619D02*
X141555714Y-89440000D01*
X141650952Y-89392380D01*
X141889047Y-89392380D01*
X141984285Y-89440000D01*
X142031904Y-89487619D01*
X142079523Y-89582857D01*
X142079523Y-89678095D01*
X142031904Y-89820952D01*
X141460476Y-90392380D01*
X142079523Y-90392380D01*
%TO.C,Q1*%
X148674761Y-90487619D02*
X148579523Y-90440000D01*
X148484285Y-90344761D01*
X148341428Y-90201904D01*
X148246190Y-90154285D01*
X148150952Y-90154285D01*
X148198571Y-90392380D02*
X148103333Y-90344761D01*
X148008095Y-90249523D01*
X147960476Y-90059047D01*
X147960476Y-89725714D01*
X148008095Y-89535238D01*
X148103333Y-89440000D01*
X148198571Y-89392380D01*
X148389047Y-89392380D01*
X148484285Y-89440000D01*
X148579523Y-89535238D01*
X148627142Y-89725714D01*
X148627142Y-90059047D01*
X148579523Y-90249523D01*
X148484285Y-90344761D01*
X148389047Y-90392380D01*
X148198571Y-90392380D01*
X149579523Y-90392380D02*
X149008095Y-90392380D01*
X149293809Y-90392380D02*
X149293809Y-89392380D01*
X149198571Y-89535238D01*
X149103333Y-89630476D01*
X149008095Y-89678095D01*
%TO.C,J2*%
X165827680Y-83413933D02*
X166541966Y-83413933D01*
X166684823Y-83461552D01*
X166780061Y-83556790D01*
X166827680Y-83699647D01*
X166827680Y-83794885D01*
X165922919Y-82985361D02*
X165875300Y-82937742D01*
X165827680Y-82842504D01*
X165827680Y-82604409D01*
X165875300Y-82509171D01*
X165922919Y-82461552D01*
X166018157Y-82413933D01*
X166113395Y-82413933D01*
X166256252Y-82461552D01*
X166827680Y-83032980D01*
X166827680Y-82413933D01*
%TO.C,J1*%
X165297680Y-102333333D02*
X166011966Y-102333333D01*
X166154823Y-102380952D01*
X166250061Y-102476190D01*
X166297680Y-102619047D01*
X166297680Y-102714285D01*
X166297680Y-101333333D02*
X166297680Y-101904761D01*
X166297680Y-101619047D02*
X165297680Y-101619047D01*
X165440538Y-101714285D01*
X165535776Y-101809523D01*
X165583395Y-101904761D01*
%TO.C,D3*%
X126661904Y-112452380D02*
X126661904Y-111452380D01*
X126900000Y-111452380D01*
X127042857Y-111500000D01*
X127138095Y-111595238D01*
X127185714Y-111690476D01*
X127233333Y-111880952D01*
X127233333Y-112023809D01*
X127185714Y-112214285D01*
X127138095Y-112309523D01*
X127042857Y-112404761D01*
X126900000Y-112452380D01*
X126661904Y-112452380D01*
X127566666Y-111452380D02*
X128185714Y-111452380D01*
X127852380Y-111833333D01*
X127995238Y-111833333D01*
X128090476Y-111880952D01*
X128138095Y-111928571D01*
X128185714Y-112023809D01*
X128185714Y-112261904D01*
X128138095Y-112357142D01*
X128090476Y-112404761D01*
X127995238Y-112452380D01*
X127709523Y-112452380D01*
X127614285Y-112404761D01*
X127566666Y-112357142D01*
%TO.C,D2*%
X120661904Y-112452380D02*
X120661904Y-111452380D01*
X120900000Y-111452380D01*
X121042857Y-111500000D01*
X121138095Y-111595238D01*
X121185714Y-111690476D01*
X121233333Y-111880952D01*
X121233333Y-112023809D01*
X121185714Y-112214285D01*
X121138095Y-112309523D01*
X121042857Y-112404761D01*
X120900000Y-112452380D01*
X120661904Y-112452380D01*
X121614285Y-111547619D02*
X121661904Y-111500000D01*
X121757142Y-111452380D01*
X121995238Y-111452380D01*
X122090476Y-111500000D01*
X122138095Y-111547619D01*
X122185714Y-111642857D01*
X122185714Y-111738095D01*
X122138095Y-111880952D01*
X121566666Y-112452380D01*
X122185714Y-112452380D01*
%TO.C,D1*%
X114661904Y-112452380D02*
X114661904Y-111452380D01*
X114900000Y-111452380D01*
X115042857Y-111500000D01*
X115138095Y-111595238D01*
X115185714Y-111690476D01*
X115233333Y-111880952D01*
X115233333Y-112023809D01*
X115185714Y-112214285D01*
X115138095Y-112309523D01*
X115042857Y-112404761D01*
X114900000Y-112452380D01*
X114661904Y-112452380D01*
X116185714Y-112452380D02*
X115614285Y-112452380D01*
X115900000Y-112452380D02*
X115900000Y-111452380D01*
X115804761Y-111595238D01*
X115709523Y-111690476D01*
X115614285Y-111738095D01*
%TO.C,C2*%
X98107142Y-104466666D02*
X98154761Y-104514285D01*
X98202380Y-104657142D01*
X98202380Y-104752380D01*
X98154761Y-104895238D01*
X98059523Y-104990476D01*
X97964285Y-105038095D01*
X97773809Y-105085714D01*
X97630952Y-105085714D01*
X97440476Y-105038095D01*
X97345238Y-104990476D01*
X97250000Y-104895238D01*
X97202380Y-104752380D01*
X97202380Y-104657142D01*
X97250000Y-104514285D01*
X97297619Y-104466666D01*
X97297619Y-104085714D02*
X97250000Y-104038095D01*
X97202380Y-103942857D01*
X97202380Y-103704761D01*
X97250000Y-103609523D01*
X97297619Y-103561904D01*
X97392857Y-103514285D01*
X97488095Y-103514285D01*
X97630952Y-103561904D01*
X98202380Y-104133333D01*
X98202380Y-103514285D01*
%TO.C,C1*%
X98107142Y-86966666D02*
X98154761Y-87014285D01*
X98202380Y-87157142D01*
X98202380Y-87252380D01*
X98154761Y-87395238D01*
X98059523Y-87490476D01*
X97964285Y-87538095D01*
X97773809Y-87585714D01*
X97630952Y-87585714D01*
X97440476Y-87538095D01*
X97345238Y-87490476D01*
X97250000Y-87395238D01*
X97202380Y-87252380D01*
X97202380Y-87157142D01*
X97250000Y-87014285D01*
X97297619Y-86966666D01*
X98202380Y-86014285D02*
X98202380Y-86585714D01*
X98202380Y-86300000D02*
X97202380Y-86300000D01*
X97345238Y-86395238D01*
X97440476Y-86490476D01*
X97488095Y-86585714D01*
%TD*%
M02*
