M48
; DRILL file {KiCad 5.1.10-88a1d61d58~90~ubuntu20.04.1} date Wed Oct  6 22:50:51 2021
; FORMAT={-:-/ absolute / inch / decimal}
; #@! TF.CreationDate,2021-10-06T22:50:51-04:00
; #@! TF.GenerationSoftware,Kicad,Pcbnew,5.1.10-88a1d61d58~90~ubuntu20.04.1
; #@! TF.FileFunction,Plated,1,2,PTH
FMAT,2
INCH
T1C0.0157
T2C0.0295
T3C0.0300
T4C0.0315
T5C0.0433
T6C0.0472
T7C0.0583
T8C0.0598
T9C0.1063
%
G90
G05
T1
X4.6614Y-4.5157
X4.8976Y-4.5197
X5.1378Y-4.5197
T2
X4.6047Y-3.6811
X4.6547Y-3.6811
X4.7047Y-3.6811
X4.9Y-3.6811
X4.95Y-3.6811
X5.0Y-3.6811
X5.2165Y-3.6811
X5.2665Y-3.6811
X5.3165Y-3.6811
X5.5118Y-3.6811
X5.5618Y-3.6811
X5.6118Y-3.6811
X5.8071Y-3.6811
X5.8571Y-3.6811
X5.9071Y-3.6811
T3
X4.1512Y-2.4409
X4.1512Y-3.4409
X4.2512Y-2.4409
X4.2512Y-3.4409
X4.3512Y-2.4409
X4.3512Y-3.4409
X4.4512Y-2.4409
X4.4512Y-3.4409
X4.5512Y-2.4409
X4.5512Y-3.4409
X4.6512Y-2.4409
X4.6512Y-3.4409
X4.7512Y-2.4409
X4.7512Y-3.4409
X4.8512Y-2.4409
X4.8512Y-3.4409
X4.9512Y-2.4409
X4.9512Y-3.4409
X5.0512Y-2.4409
X5.0512Y-3.4409
X5.1512Y-2.4409
X5.1512Y-3.4409
X5.2512Y-2.4409
X5.2512Y-3.4409
X5.3512Y-2.4409
X5.3512Y-3.4409
X5.4512Y-2.4409
X5.4512Y-3.4409
X5.5512Y-2.4409
X5.5512Y-3.4409
T4
X3.7008Y-3.378
X3.7008Y-3.4567
X3.7008Y-4.0669
X3.7008Y-4.1457
X3.952Y-4.1339
X4.252Y-4.1339
X4.5031Y-4.0945
X4.5031Y-4.2913
X4.8031Y-4.0945
X4.8031Y-4.2913
X5.0Y-4.2323
X5.2118Y-4.0157
X5.3Y-4.2323
X5.4724Y-4.2323
X5.4724Y-4.4488
X5.5118Y-4.0157
X5.6693Y-4.0157
X5.7724Y-4.2323
X5.7724Y-4.4488
X5.9693Y-4.0157
T5
X3.7008Y-3.6614
X3.7008Y-3.7614
X3.7008Y-3.8614
T6
X6.1795Y-2.7953
X6.1795Y-3.1299
X6.1795Y-3.7992
X6.1795Y-4.1339
X6.1811Y-3.4646
X6.2795Y-2.7953
X6.2795Y-3.1299
X6.2795Y-3.7992
X6.2795Y-4.1339
X6.2811Y-3.4646
X6.3795Y-2.7953
X6.3795Y-3.1299
X6.3795Y-3.7992
X6.3795Y-4.1339
X6.3811Y-3.4646
T7
X3.9488Y-4.4094
X4.1339Y-4.4094
X4.3189Y-4.4094
T8
X6.7293Y-2.7689
X6.7293Y-2.9689
X6.7293Y-3.1689
X6.7293Y-3.3689
X6.7293Y-3.5689
X6.7293Y-3.7689
X6.7293Y-3.9689
X6.7293Y-4.1689
T9
X3.7008Y-2.5197
X3.7008Y-4.4094
X5.9843Y-2.5197
X5.9843Y-4.4094
T0
M30
