%TF.GenerationSoftware,KiCad,Pcbnew,5.1.10-88a1d61d58~90~ubuntu20.04.1*%
%TF.CreationDate,2021-10-06T22:50:43-04:00*%
%TF.ProjectId,jrgbwww24,6a726762-7777-4773-9234-2e6b69636164,rev?*%
%TF.SameCoordinates,Original*%
%TF.FileFunction,Copper,L2,Bot*%
%TF.FilePolarity,Positive*%
%FSLAX46Y46*%
G04 Gerber Fmt 4.6, Leading zero omitted, Abs format (unit mm)*
G04 Created by KiCad (PCBNEW 5.1.10-88a1d61d58~90~ubuntu20.04.1) date 2021-10-06 22:50:43*
%MOMM*%
%LPD*%
G01*
G04 APERTURE LIST*
%TA.AperFunction,ComponentPad*%
%ADD10O,1.905000X2.000000*%
%TD*%
%TA.AperFunction,ComponentPad*%
%ADD11R,1.905000X2.000000*%
%TD*%
%TA.AperFunction,ComponentPad*%
%ADD12C,6.000000*%
%TD*%
%TA.AperFunction,ComponentPad*%
%ADD13C,2.400000*%
%TD*%
%TA.AperFunction,ComponentPad*%
%ADD14R,2.400000X2.400000*%
%TD*%
%TA.AperFunction,ComponentPad*%
%ADD15C,1.524000*%
%TD*%
%TA.AperFunction,ComponentPad*%
%ADD16R,1.524000X1.524000*%
%TD*%
%TA.AperFunction,ComponentPad*%
%ADD17O,2.000000X1.905000*%
%TD*%
%TA.AperFunction,ComponentPad*%
%ADD18R,2.000000X1.905000*%
%TD*%
%TA.AperFunction,ComponentPad*%
%ADD19O,1.600000X1.600000*%
%TD*%
%TA.AperFunction,ComponentPad*%
%ADD20C,1.600000*%
%TD*%
%TA.AperFunction,ComponentPad*%
%ADD21R,1.050000X1.500000*%
%TD*%
%TA.AperFunction,ComponentPad*%
%ADD22O,1.050000X1.500000*%
%TD*%
%TA.AperFunction,ComponentPad*%
%ADD23C,3.000000*%
%TD*%
%TA.AperFunction,ComponentPad*%
%ADD24R,3.000000X3.000000*%
%TD*%
%TA.AperFunction,ComponentPad*%
%ADD25R,1.600000X1.600000*%
%TD*%
%TA.AperFunction,ViaPad*%
%ADD26C,0.800000*%
%TD*%
%TA.AperFunction,Conductor*%
%ADD27C,0.250000*%
%TD*%
%TA.AperFunction,Conductor*%
%ADD28C,1.500000*%
%TD*%
%TA.AperFunction,Conductor*%
%ADD29C,0.254000*%
%TD*%
%TA.AperFunction,Conductor*%
%ADD30C,0.100000*%
%TD*%
G04 APERTURE END LIST*
D10*
%TO.P,Q4,3*%
%TO.N,Earth*%
X162040000Y-105000000D03*
%TO.P,Q4,2*%
%TO.N,/R_GND*%
X159500000Y-105000000D03*
D11*
%TO.P,Q4,1*%
%TO.N,Net-(Q1-Pad3)*%
X156960000Y-105000000D03*
%TD*%
D10*
%TO.P,Q10,3*%
%TO.N,Earth*%
X162040000Y-71000000D03*
%TO.P,Q10,2*%
%TO.N,/WW_GND*%
X159500000Y-71000000D03*
D11*
%TO.P,Q10,1*%
%TO.N,Net-(Q10-Pad1)*%
X156960000Y-71000000D03*
%TD*%
D10*
%TO.P,Q9,3*%
%TO.N,Earth*%
X162040000Y-79500000D03*
%TO.P,Q9,2*%
%TO.N,/CW_GND*%
X159500000Y-79500000D03*
D11*
%TO.P,Q9,1*%
%TO.N,Net-(Q7-Pad3)*%
X156960000Y-79500000D03*
%TD*%
D10*
%TO.P,Q6,3*%
%TO.N,Earth*%
X162080000Y-88000000D03*
%TO.P,Q6,2*%
%TO.N,/B_GND*%
X159540000Y-88000000D03*
D11*
%TO.P,Q6,1*%
%TO.N,Net-(Q3-Pad3)*%
X157000000Y-88000000D03*
%TD*%
D10*
%TO.P,Q5,3*%
%TO.N,Earth*%
X162040000Y-96500000D03*
%TO.P,Q5,2*%
%TO.N,/G_GND*%
X159500000Y-96500000D03*
D11*
%TO.P,Q5,1*%
%TO.N,Net-(Q2-Pad3)*%
X156960000Y-96500000D03*
%TD*%
D12*
%TO.P,REF\u002A\u002A,1*%
%TO.N,N/C*%
X152000000Y-64000000D03*
%TD*%
%TO.P,REF\u002A\u002A,1*%
%TO.N,N/C*%
X152000000Y-112000000D03*
%TD*%
%TO.P,REF\u002A\u002A,1*%
%TO.N,N/C*%
X94000000Y-112000000D03*
%TD*%
%TO.P,REF\u002A\u002A,1*%
%TO.N,N/C*%
X94000000Y-64000000D03*
%TD*%
D13*
%TO.P,SW1,3*%
%TO.N,Net-(SW1-Pad3)*%
X100300000Y-112000000D03*
%TO.P,SW1,2*%
%TO.N,VDD*%
X105000000Y-112000000D03*
D14*
%TO.P,SW1,1*%
%TO.N,+24V*%
X109700000Y-112000000D03*
%TD*%
D15*
%TO.P,U1,30*%
%TO.N,Net-(U1-Pad30)*%
X105440000Y-87400000D03*
D16*
%TO.P,U1,29*%
%TO.N,Earth*%
X107980000Y-87400000D03*
D15*
%TO.P,U1,28*%
%TO.N,N/C*%
X110520000Y-87400000D03*
%TO.P,U1,27*%
%TO.N,Net-(U1-Pad27)*%
X113060000Y-87400000D03*
%TO.P,U1,26*%
%TO.N,Net-(U1-Pad26)*%
X115600000Y-87400000D03*
%TO.P,U1,25*%
%TO.N,Net-(U1-Pad25)*%
X118140000Y-87400000D03*
%TO.P,U1,24*%
%TO.N,/WW_SIGNAL*%
X120680000Y-87400000D03*
%TO.P,U1,23*%
%TO.N,/CW_SIGNAL*%
X123220000Y-87400000D03*
D16*
%TO.P,U1,22*%
%TO.N,Earth*%
X125760000Y-87400000D03*
D15*
%TO.P,U1,21*%
%TO.N,Net-(U1-Pad21)*%
X128300000Y-87400000D03*
%TO.P,U1,20*%
%TO.N,/B_SIGNAL*%
X130840000Y-87400000D03*
%TO.P,U1,19*%
%TO.N,/G_SIGNAL*%
X133380000Y-87400000D03*
%TO.P,U1,18*%
%TO.N,/R_SIGNAL*%
X135920000Y-87400000D03*
%TO.P,U1,17*%
%TO.N,Net-(U1-Pad17)*%
X138460000Y-87400000D03*
%TO.P,U1,16*%
%TO.N,Net-(U1-Pad16)*%
X141000000Y-87400000D03*
%TO.P,U1,15*%
%TO.N,+5V*%
X105440000Y-62000000D03*
D16*
%TO.P,U1,14*%
%TO.N,Earth*%
X107980000Y-62000000D03*
D15*
%TO.P,U1,13*%
%TO.N,Net-(U1-Pad13)*%
X110520000Y-62000000D03*
%TO.P,U1,12*%
%TO.N,Net-(U1-Pad12)*%
X113060000Y-62000000D03*
%TO.P,U1,11*%
%TO.N,Net-(U1-Pad11)*%
X115600000Y-62000000D03*
D16*
%TO.P,U1,10*%
%TO.N,Earth*%
X118140000Y-62000000D03*
D15*
%TO.P,U1,9*%
%TO.N,Net-(U1-Pad9)*%
X120680000Y-62000000D03*
%TO.P,U1,8*%
%TO.N,Net-(U1-Pad8)*%
X123220000Y-62000000D03*
%TO.P,U1,7*%
%TO.N,Net-(U1-Pad7)*%
X125760000Y-62000000D03*
%TO.P,U1,6*%
%TO.N,Net-(U1-Pad6)*%
X128300000Y-62000000D03*
%TO.P,U1,5*%
%TO.N,Net-(U1-Pad5)*%
X130840000Y-62000000D03*
%TO.P,U1,4*%
%TO.N,Net-(U1-Pad4)*%
X133380000Y-62000000D03*
%TO.P,U1,3*%
%TO.N,Net-(U1-Pad3)*%
X135920000Y-62000000D03*
%TO.P,U1,2*%
%TO.N,Net-(U1-Pad2)*%
X138460000Y-62000000D03*
%TO.P,U1,1*%
%TO.N,Net-(U1-Pad1)*%
X141000000Y-62000000D03*
%TD*%
D17*
%TO.P,U2,3*%
%TO.N,+5V*%
X94000000Y-98080000D03*
%TO.P,U2,2*%
%TO.N,Earth*%
X94000000Y-95540000D03*
D18*
%TO.P,U2,1*%
%TO.N,+24V*%
X94000000Y-93000000D03*
%TD*%
D19*
%TO.P,R8,2*%
%TO.N,+24V*%
X114380000Y-109000000D03*
D20*
%TO.P,R8,1*%
%TO.N,Net-(D3-Pad2)*%
X122000000Y-109000000D03*
%TD*%
D19*
%TO.P,R7,2*%
%TO.N,+5V*%
X114380000Y-104000000D03*
D20*
%TO.P,R7,1*%
%TO.N,Net-(D2-Pad2)*%
X122000000Y-104000000D03*
%TD*%
D19*
%TO.P,R6,2*%
%TO.N,VDD*%
X100380000Y-105000000D03*
D20*
%TO.P,R6,1*%
%TO.N,Net-(D1-Pad2)*%
X108000000Y-105000000D03*
%TD*%
D19*
%TO.P,R5,2*%
%TO.N,Net-(Q10-Pad1)*%
X134620000Y-107500000D03*
D20*
%TO.P,R5,1*%
%TO.N,+24V*%
X127000000Y-107500000D03*
%TD*%
D19*
%TO.P,R4,2*%
%TO.N,Net-(Q7-Pad3)*%
X140000000Y-102000000D03*
D20*
%TO.P,R4,1*%
%TO.N,+24V*%
X132380000Y-102000000D03*
%TD*%
D19*
%TO.P,R3,2*%
%TO.N,Net-(Q3-Pad3)*%
X151620000Y-102000000D03*
D20*
%TO.P,R3,1*%
%TO.N,+24V*%
X144000000Y-102000000D03*
%TD*%
D19*
%TO.P,R2,2*%
%TO.N,Net-(Q2-Pad3)*%
X146620000Y-107500000D03*
D20*
%TO.P,R2,1*%
%TO.N,+24V*%
X139000000Y-107500000D03*
%TD*%
D19*
%TO.P,R1,2*%
%TO.N,Net-(Q1-Pad3)*%
X146620000Y-113000000D03*
D20*
%TO.P,R1,1*%
%TO.N,+24V*%
X139000000Y-113000000D03*
%TD*%
D21*
%TO.P,Q8,1*%
%TO.N,Earth*%
X116960000Y-93500000D03*
D22*
%TO.P,Q8,3*%
%TO.N,Net-(Q10-Pad1)*%
X119500000Y-93500000D03*
%TO.P,Q8,2*%
%TO.N,/WW_SIGNAL*%
X118230000Y-93500000D03*
%TD*%
D21*
%TO.P,Q7,1*%
%TO.N,Earth*%
X124460000Y-93500000D03*
D22*
%TO.P,Q7,3*%
%TO.N,Net-(Q7-Pad3)*%
X127000000Y-93500000D03*
%TO.P,Q7,2*%
%TO.N,/CW_SIGNAL*%
X125730000Y-93500000D03*
%TD*%
D21*
%TO.P,Q3,1*%
%TO.N,Earth*%
X132500000Y-93500000D03*
D22*
%TO.P,Q3,3*%
%TO.N,Net-(Q3-Pad3)*%
X135040000Y-93500000D03*
%TO.P,Q3,2*%
%TO.N,/B_SIGNAL*%
X133770000Y-93500000D03*
%TD*%
D21*
%TO.P,Q2,1*%
%TO.N,Earth*%
X140000000Y-93500000D03*
D22*
%TO.P,Q2,3*%
%TO.N,Net-(Q2-Pad3)*%
X142540000Y-93500000D03*
%TO.P,Q2,2*%
%TO.N,/G_SIGNAL*%
X141270000Y-93500000D03*
%TD*%
D21*
%TO.P,Q1,1*%
%TO.N,Earth*%
X147500000Y-93500000D03*
D22*
%TO.P,Q1,3*%
%TO.N,Net-(Q1-Pad3)*%
X150040000Y-93500000D03*
%TO.P,Q1,2*%
%TO.N,/R_SIGNAL*%
X148770000Y-93500000D03*
%TD*%
D23*
%TO.P,J2,6*%
%TO.N,/WW_GND*%
X170925300Y-70330600D03*
%TO.P,J2,5*%
%TO.N,/CW_GND*%
X170925300Y-75410600D03*
%TO.P,J2,4*%
%TO.N,/B_GND*%
X170925300Y-80490600D03*
D24*
%TO.P,J2,1*%
%TO.N,+24V*%
X170925300Y-95730600D03*
D23*
%TO.P,J2,3*%
%TO.N,/G_GND*%
X170925300Y-85570600D03*
%TO.P,J2,2*%
%TO.N,/R_GND*%
X170925300Y-90650600D03*
%TD*%
%TO.P,J1,2*%
%TO.N,VDD*%
X170925300Y-100810600D03*
D24*
%TO.P,J1,1*%
%TO.N,Earth*%
X170925300Y-105890600D03*
%TD*%
D20*
%TO.P,C2,2*%
%TO.N,Earth*%
X94000000Y-105300000D03*
D25*
%TO.P,C2,1*%
%TO.N,+5V*%
X94000000Y-103300000D03*
%TD*%
D20*
%TO.P,C1,2*%
%TO.N,+24V*%
X94000000Y-87800000D03*
D25*
%TO.P,C1,1*%
%TO.N,Earth*%
X94000000Y-85800000D03*
%TD*%
D26*
%TO.N,Earth*%
X118400000Y-114700000D03*
X124400000Y-114800000D03*
X130500000Y-114800000D03*
%TD*%
D27*
%TO.N,/R_SIGNAL*%
X148770000Y-92909998D02*
X148770000Y-93500000D01*
X148285001Y-92424999D02*
X148770000Y-92909998D01*
X141876237Y-92424999D02*
X148285001Y-92424999D01*
X136851238Y-87400000D02*
X141876237Y-92424999D01*
X135920000Y-87400000D02*
X136851238Y-87400000D01*
%TO.N,/G_SIGNAL*%
X141270000Y-92909998D02*
X141270000Y-93500000D01*
X136847003Y-88487001D02*
X141270000Y-92909998D01*
X134467001Y-88487001D02*
X136847003Y-88487001D01*
X133380000Y-87400000D02*
X134467001Y-88487001D01*
%TO.N,/B_SIGNAL*%
X133770000Y-90330000D02*
X133770000Y-93500000D01*
X130840000Y-87400000D02*
X133770000Y-90330000D01*
%TO.N,/CW_SIGNAL*%
X125730000Y-89910000D02*
X125730000Y-93500000D01*
X123220000Y-87400000D02*
X125730000Y-89910000D01*
%TO.N,/WW_SIGNAL*%
X118230000Y-89850000D02*
X118230000Y-93500000D01*
X120680000Y-87400000D02*
X118230000Y-89850000D01*
D28*
%TO.N,VDD*%
X105000000Y-110789998D02*
X105000000Y-112000000D01*
X116479397Y-99310601D02*
X105000000Y-110789998D01*
X169425301Y-99310601D02*
X116479397Y-99310601D01*
X170925300Y-100810600D02*
X169425301Y-99310601D01*
%TD*%
D29*
%TO.N,Earth*%
X104778273Y-60761995D02*
X104549465Y-60914880D01*
X104354880Y-61109465D01*
X104201995Y-61338273D01*
X104096686Y-61592510D01*
X104043000Y-61862408D01*
X104043000Y-62137592D01*
X104096686Y-62407490D01*
X104201995Y-62661727D01*
X104354880Y-62890535D01*
X104549465Y-63085120D01*
X104778273Y-63238005D01*
X105032510Y-63343314D01*
X105302408Y-63397000D01*
X105577592Y-63397000D01*
X105847490Y-63343314D01*
X106101727Y-63238005D01*
X106330535Y-63085120D01*
X106525120Y-62890535D01*
X106583920Y-62802535D01*
X106592188Y-62886482D01*
X106628498Y-63006180D01*
X106687463Y-63116494D01*
X106766815Y-63213185D01*
X106863506Y-63292537D01*
X106973820Y-63351502D01*
X107093518Y-63387812D01*
X107218000Y-63400072D01*
X107694250Y-63397000D01*
X107853000Y-63238250D01*
X107853000Y-62127000D01*
X107833000Y-62127000D01*
X107833000Y-61873000D01*
X107853000Y-61873000D01*
X107853000Y-61853000D01*
X108107000Y-61853000D01*
X108107000Y-61873000D01*
X108127000Y-61873000D01*
X108127000Y-62127000D01*
X108107000Y-62127000D01*
X108107000Y-63238250D01*
X108265750Y-63397000D01*
X108742000Y-63400072D01*
X108866482Y-63387812D01*
X108986180Y-63351502D01*
X109096494Y-63292537D01*
X109193185Y-63213185D01*
X109272537Y-63116494D01*
X109331502Y-63006180D01*
X109367812Y-62886482D01*
X109376080Y-62802535D01*
X109434880Y-62890535D01*
X109629465Y-63085120D01*
X109858273Y-63238005D01*
X110112510Y-63343314D01*
X110382408Y-63397000D01*
X110657592Y-63397000D01*
X110927490Y-63343314D01*
X111181727Y-63238005D01*
X111410535Y-63085120D01*
X111605120Y-62890535D01*
X111758005Y-62661727D01*
X111790000Y-62584485D01*
X111821995Y-62661727D01*
X111974880Y-62890535D01*
X112169465Y-63085120D01*
X112398273Y-63238005D01*
X112652510Y-63343314D01*
X112922408Y-63397000D01*
X113197592Y-63397000D01*
X113467490Y-63343314D01*
X113721727Y-63238005D01*
X113950535Y-63085120D01*
X114145120Y-62890535D01*
X114298005Y-62661727D01*
X114330000Y-62584485D01*
X114361995Y-62661727D01*
X114514880Y-62890535D01*
X114709465Y-63085120D01*
X114938273Y-63238005D01*
X115192510Y-63343314D01*
X115462408Y-63397000D01*
X115737592Y-63397000D01*
X116007490Y-63343314D01*
X116261727Y-63238005D01*
X116490535Y-63085120D01*
X116685120Y-62890535D01*
X116743920Y-62802535D01*
X116752188Y-62886482D01*
X116788498Y-63006180D01*
X116847463Y-63116494D01*
X116926815Y-63213185D01*
X117023506Y-63292537D01*
X117133820Y-63351502D01*
X117253518Y-63387812D01*
X117378000Y-63400072D01*
X117854250Y-63397000D01*
X118013000Y-63238250D01*
X118013000Y-62127000D01*
X117993000Y-62127000D01*
X117993000Y-61873000D01*
X118013000Y-61873000D01*
X118013000Y-61853000D01*
X118267000Y-61853000D01*
X118267000Y-61873000D01*
X118287000Y-61873000D01*
X118287000Y-62127000D01*
X118267000Y-62127000D01*
X118267000Y-63238250D01*
X118425750Y-63397000D01*
X118902000Y-63400072D01*
X119026482Y-63387812D01*
X119146180Y-63351502D01*
X119256494Y-63292537D01*
X119353185Y-63213185D01*
X119432537Y-63116494D01*
X119491502Y-63006180D01*
X119527812Y-62886482D01*
X119536080Y-62802535D01*
X119594880Y-62890535D01*
X119789465Y-63085120D01*
X120018273Y-63238005D01*
X120272510Y-63343314D01*
X120542408Y-63397000D01*
X120817592Y-63397000D01*
X121087490Y-63343314D01*
X121341727Y-63238005D01*
X121570535Y-63085120D01*
X121765120Y-62890535D01*
X121918005Y-62661727D01*
X121950000Y-62584485D01*
X121981995Y-62661727D01*
X122134880Y-62890535D01*
X122329465Y-63085120D01*
X122558273Y-63238005D01*
X122812510Y-63343314D01*
X123082408Y-63397000D01*
X123357592Y-63397000D01*
X123627490Y-63343314D01*
X123881727Y-63238005D01*
X124110535Y-63085120D01*
X124305120Y-62890535D01*
X124458005Y-62661727D01*
X124490000Y-62584485D01*
X124521995Y-62661727D01*
X124674880Y-62890535D01*
X124869465Y-63085120D01*
X125098273Y-63238005D01*
X125352510Y-63343314D01*
X125622408Y-63397000D01*
X125897592Y-63397000D01*
X126167490Y-63343314D01*
X126421727Y-63238005D01*
X126650535Y-63085120D01*
X126845120Y-62890535D01*
X126998005Y-62661727D01*
X127030000Y-62584485D01*
X127061995Y-62661727D01*
X127214880Y-62890535D01*
X127409465Y-63085120D01*
X127638273Y-63238005D01*
X127892510Y-63343314D01*
X128162408Y-63397000D01*
X128437592Y-63397000D01*
X128707490Y-63343314D01*
X128961727Y-63238005D01*
X129190535Y-63085120D01*
X129385120Y-62890535D01*
X129538005Y-62661727D01*
X129570000Y-62584485D01*
X129601995Y-62661727D01*
X129754880Y-62890535D01*
X129949465Y-63085120D01*
X130178273Y-63238005D01*
X130432510Y-63343314D01*
X130702408Y-63397000D01*
X130977592Y-63397000D01*
X131247490Y-63343314D01*
X131501727Y-63238005D01*
X131730535Y-63085120D01*
X131925120Y-62890535D01*
X132078005Y-62661727D01*
X132110000Y-62584485D01*
X132141995Y-62661727D01*
X132294880Y-62890535D01*
X132489465Y-63085120D01*
X132718273Y-63238005D01*
X132972510Y-63343314D01*
X133242408Y-63397000D01*
X133517592Y-63397000D01*
X133787490Y-63343314D01*
X134041727Y-63238005D01*
X134270535Y-63085120D01*
X134465120Y-62890535D01*
X134618005Y-62661727D01*
X134650000Y-62584485D01*
X134681995Y-62661727D01*
X134834880Y-62890535D01*
X135029465Y-63085120D01*
X135258273Y-63238005D01*
X135512510Y-63343314D01*
X135782408Y-63397000D01*
X136057592Y-63397000D01*
X136327490Y-63343314D01*
X136581727Y-63238005D01*
X136810535Y-63085120D01*
X137005120Y-62890535D01*
X137158005Y-62661727D01*
X137190000Y-62584485D01*
X137221995Y-62661727D01*
X137374880Y-62890535D01*
X137569465Y-63085120D01*
X137798273Y-63238005D01*
X138052510Y-63343314D01*
X138322408Y-63397000D01*
X138597592Y-63397000D01*
X138867490Y-63343314D01*
X139121727Y-63238005D01*
X139350535Y-63085120D01*
X139545120Y-62890535D01*
X139698005Y-62661727D01*
X139730000Y-62584485D01*
X139761995Y-62661727D01*
X139914880Y-62890535D01*
X140109465Y-63085120D01*
X140338273Y-63238005D01*
X140592510Y-63343314D01*
X140862408Y-63397000D01*
X141137592Y-63397000D01*
X141407490Y-63343314D01*
X141661727Y-63238005D01*
X141890535Y-63085120D01*
X142085120Y-62890535D01*
X142238005Y-62661727D01*
X142343314Y-62407490D01*
X142397000Y-62137592D01*
X142397000Y-61862408D01*
X142343314Y-61592510D01*
X142238005Y-61338273D01*
X142085120Y-61109465D01*
X141890535Y-60914880D01*
X141661727Y-60761995D01*
X141415491Y-60660000D01*
X150564761Y-60660000D01*
X150278182Y-60778705D01*
X149682823Y-61176511D01*
X149176511Y-61682823D01*
X148778705Y-62278182D01*
X148504691Y-62939710D01*
X148365000Y-63641984D01*
X148365000Y-64358016D01*
X148504691Y-65060290D01*
X148778705Y-65721818D01*
X149176511Y-66317177D01*
X149682823Y-66823489D01*
X150278182Y-67221295D01*
X150939710Y-67495309D01*
X151641984Y-67635000D01*
X152358016Y-67635000D01*
X153060290Y-67495309D01*
X153721818Y-67221295D01*
X154317177Y-66823489D01*
X154823489Y-66317177D01*
X155221295Y-65721818D01*
X155495309Y-65060290D01*
X155635000Y-64358016D01*
X155635000Y-63641984D01*
X155495309Y-62939710D01*
X155221295Y-62278182D01*
X154823489Y-61682823D01*
X154317177Y-61176511D01*
X153721818Y-60778705D01*
X153435239Y-60660000D01*
X170967722Y-60660000D01*
X171648126Y-60726714D01*
X172271572Y-60914943D01*
X172846579Y-61220681D01*
X173351247Y-61632279D01*
X173766362Y-62134067D01*
X174076105Y-62706924D01*
X174268682Y-63329039D01*
X174340000Y-64007584D01*
X174340001Y-111967711D01*
X174273286Y-112648126D01*
X174085057Y-113271570D01*
X173779323Y-113846573D01*
X173367721Y-114351248D01*
X172865933Y-114766362D01*
X172293077Y-115076104D01*
X171670961Y-115268682D01*
X170992417Y-115340000D01*
X153435239Y-115340000D01*
X153721818Y-115221295D01*
X154317177Y-114823489D01*
X154823489Y-114317177D01*
X155221295Y-113721818D01*
X155495309Y-113060290D01*
X155635000Y-112358016D01*
X155635000Y-111641984D01*
X155495309Y-110939710D01*
X155221295Y-110278182D01*
X154823489Y-109682823D01*
X154317177Y-109176511D01*
X153721818Y-108778705D01*
X153060290Y-108504691D01*
X152358016Y-108365000D01*
X151641984Y-108365000D01*
X150939710Y-108504691D01*
X150278182Y-108778705D01*
X149682823Y-109176511D01*
X149176511Y-109682823D01*
X148778705Y-110278182D01*
X148504691Y-110939710D01*
X148365000Y-111641984D01*
X148365000Y-112358016D01*
X148504691Y-113060290D01*
X148778705Y-113721818D01*
X149176511Y-114317177D01*
X149682823Y-114823489D01*
X150278182Y-115221295D01*
X150564761Y-115340000D01*
X95435239Y-115340000D01*
X95721818Y-115221295D01*
X96317177Y-114823489D01*
X96823489Y-114317177D01*
X97221295Y-113721818D01*
X97495309Y-113060290D01*
X97635000Y-112358016D01*
X97635000Y-111819268D01*
X98465000Y-111819268D01*
X98465000Y-112180732D01*
X98535518Y-112535250D01*
X98673844Y-112869199D01*
X98874662Y-113169744D01*
X99130256Y-113425338D01*
X99430801Y-113626156D01*
X99764750Y-113764482D01*
X100119268Y-113835000D01*
X100480732Y-113835000D01*
X100835250Y-113764482D01*
X101169199Y-113626156D01*
X101469744Y-113425338D01*
X101725338Y-113169744D01*
X101926156Y-112869199D01*
X102064482Y-112535250D01*
X102135000Y-112180732D01*
X102135000Y-111819268D01*
X103165000Y-111819268D01*
X103165000Y-112180732D01*
X103235518Y-112535250D01*
X103373844Y-112869199D01*
X103574662Y-113169744D01*
X103830256Y-113425338D01*
X104130801Y-113626156D01*
X104464750Y-113764482D01*
X104819268Y-113835000D01*
X105180732Y-113835000D01*
X105535250Y-113764482D01*
X105869199Y-113626156D01*
X106169744Y-113425338D01*
X106425338Y-113169744D01*
X106626156Y-112869199D01*
X106764482Y-112535250D01*
X106835000Y-112180732D01*
X106835000Y-111819268D01*
X106764482Y-111464750D01*
X106626156Y-111130801D01*
X106622842Y-111125841D01*
X106948683Y-110800000D01*
X107861928Y-110800000D01*
X107861928Y-113200000D01*
X107874188Y-113324482D01*
X107910498Y-113444180D01*
X107969463Y-113554494D01*
X108048815Y-113651185D01*
X108145506Y-113730537D01*
X108255820Y-113789502D01*
X108375518Y-113825812D01*
X108500000Y-113838072D01*
X110900000Y-113838072D01*
X111024482Y-113825812D01*
X111144180Y-113789502D01*
X111254494Y-113730537D01*
X111351185Y-113651185D01*
X111430537Y-113554494D01*
X111489502Y-113444180D01*
X111525812Y-113324482D01*
X111538072Y-113200000D01*
X111538072Y-112858665D01*
X137565000Y-112858665D01*
X137565000Y-113141335D01*
X137620147Y-113418574D01*
X137728320Y-113679727D01*
X137885363Y-113914759D01*
X138085241Y-114114637D01*
X138320273Y-114271680D01*
X138581426Y-114379853D01*
X138858665Y-114435000D01*
X139141335Y-114435000D01*
X139418574Y-114379853D01*
X139679727Y-114271680D01*
X139914759Y-114114637D01*
X140114637Y-113914759D01*
X140271680Y-113679727D01*
X140379853Y-113418574D01*
X140435000Y-113141335D01*
X140435000Y-112858665D01*
X145185000Y-112858665D01*
X145185000Y-113141335D01*
X145240147Y-113418574D01*
X145348320Y-113679727D01*
X145505363Y-113914759D01*
X145705241Y-114114637D01*
X145940273Y-114271680D01*
X146201426Y-114379853D01*
X146478665Y-114435000D01*
X146761335Y-114435000D01*
X147038574Y-114379853D01*
X147299727Y-114271680D01*
X147534759Y-114114637D01*
X147734637Y-113914759D01*
X147891680Y-113679727D01*
X147999853Y-113418574D01*
X148055000Y-113141335D01*
X148055000Y-112858665D01*
X147999853Y-112581426D01*
X147891680Y-112320273D01*
X147734637Y-112085241D01*
X147534759Y-111885363D01*
X147299727Y-111728320D01*
X147038574Y-111620147D01*
X146761335Y-111565000D01*
X146478665Y-111565000D01*
X146201426Y-111620147D01*
X145940273Y-111728320D01*
X145705241Y-111885363D01*
X145505363Y-112085241D01*
X145348320Y-112320273D01*
X145240147Y-112581426D01*
X145185000Y-112858665D01*
X140435000Y-112858665D01*
X140379853Y-112581426D01*
X140271680Y-112320273D01*
X140114637Y-112085241D01*
X139914759Y-111885363D01*
X139679727Y-111728320D01*
X139418574Y-111620147D01*
X139141335Y-111565000D01*
X138858665Y-111565000D01*
X138581426Y-111620147D01*
X138320273Y-111728320D01*
X138085241Y-111885363D01*
X137885363Y-112085241D01*
X137728320Y-112320273D01*
X137620147Y-112581426D01*
X137565000Y-112858665D01*
X111538072Y-112858665D01*
X111538072Y-110800000D01*
X111525812Y-110675518D01*
X111489502Y-110555820D01*
X111430537Y-110445506D01*
X111351185Y-110348815D01*
X111254494Y-110269463D01*
X111144180Y-110210498D01*
X111024482Y-110174188D01*
X110900000Y-110161928D01*
X108500000Y-110161928D01*
X108375518Y-110174188D01*
X108255820Y-110210498D01*
X108145506Y-110269463D01*
X108048815Y-110348815D01*
X107969463Y-110445506D01*
X107910498Y-110555820D01*
X107874188Y-110675518D01*
X107861928Y-110800000D01*
X106948683Y-110800000D01*
X108890018Y-108858665D01*
X112945000Y-108858665D01*
X112945000Y-109141335D01*
X113000147Y-109418574D01*
X113108320Y-109679727D01*
X113265363Y-109914759D01*
X113465241Y-110114637D01*
X113700273Y-110271680D01*
X113961426Y-110379853D01*
X114238665Y-110435000D01*
X114521335Y-110435000D01*
X114798574Y-110379853D01*
X115059727Y-110271680D01*
X115294759Y-110114637D01*
X115494637Y-109914759D01*
X115651680Y-109679727D01*
X115759853Y-109418574D01*
X115815000Y-109141335D01*
X115815000Y-108858665D01*
X120565000Y-108858665D01*
X120565000Y-109141335D01*
X120620147Y-109418574D01*
X120728320Y-109679727D01*
X120885363Y-109914759D01*
X121085241Y-110114637D01*
X121320273Y-110271680D01*
X121581426Y-110379853D01*
X121858665Y-110435000D01*
X122141335Y-110435000D01*
X122418574Y-110379853D01*
X122679727Y-110271680D01*
X122914759Y-110114637D01*
X123114637Y-109914759D01*
X123271680Y-109679727D01*
X123379853Y-109418574D01*
X123435000Y-109141335D01*
X123435000Y-108858665D01*
X123379853Y-108581426D01*
X123271680Y-108320273D01*
X123114637Y-108085241D01*
X122914759Y-107885363D01*
X122679727Y-107728320D01*
X122418574Y-107620147D01*
X122141335Y-107565000D01*
X121858665Y-107565000D01*
X121581426Y-107620147D01*
X121320273Y-107728320D01*
X121085241Y-107885363D01*
X120885363Y-108085241D01*
X120728320Y-108320273D01*
X120620147Y-108581426D01*
X120565000Y-108858665D01*
X115815000Y-108858665D01*
X115759853Y-108581426D01*
X115651680Y-108320273D01*
X115494637Y-108085241D01*
X115294759Y-107885363D01*
X115059727Y-107728320D01*
X114798574Y-107620147D01*
X114521335Y-107565000D01*
X114238665Y-107565000D01*
X113961426Y-107620147D01*
X113700273Y-107728320D01*
X113465241Y-107885363D01*
X113265363Y-108085241D01*
X113108320Y-108320273D01*
X113000147Y-108581426D01*
X112945000Y-108858665D01*
X108890018Y-108858665D01*
X110390018Y-107358665D01*
X125565000Y-107358665D01*
X125565000Y-107641335D01*
X125620147Y-107918574D01*
X125728320Y-108179727D01*
X125885363Y-108414759D01*
X126085241Y-108614637D01*
X126320273Y-108771680D01*
X126581426Y-108879853D01*
X126858665Y-108935000D01*
X127141335Y-108935000D01*
X127418574Y-108879853D01*
X127679727Y-108771680D01*
X127914759Y-108614637D01*
X128114637Y-108414759D01*
X128271680Y-108179727D01*
X128379853Y-107918574D01*
X128435000Y-107641335D01*
X128435000Y-107358665D01*
X133185000Y-107358665D01*
X133185000Y-107641335D01*
X133240147Y-107918574D01*
X133348320Y-108179727D01*
X133505363Y-108414759D01*
X133705241Y-108614637D01*
X133940273Y-108771680D01*
X134201426Y-108879853D01*
X134478665Y-108935000D01*
X134761335Y-108935000D01*
X135038574Y-108879853D01*
X135299727Y-108771680D01*
X135534759Y-108614637D01*
X135734637Y-108414759D01*
X135891680Y-108179727D01*
X135999853Y-107918574D01*
X136055000Y-107641335D01*
X136055000Y-107358665D01*
X137565000Y-107358665D01*
X137565000Y-107641335D01*
X137620147Y-107918574D01*
X137728320Y-108179727D01*
X137885363Y-108414759D01*
X138085241Y-108614637D01*
X138320273Y-108771680D01*
X138581426Y-108879853D01*
X138858665Y-108935000D01*
X139141335Y-108935000D01*
X139418574Y-108879853D01*
X139679727Y-108771680D01*
X139914759Y-108614637D01*
X140114637Y-108414759D01*
X140271680Y-108179727D01*
X140379853Y-107918574D01*
X140435000Y-107641335D01*
X140435000Y-107358665D01*
X145185000Y-107358665D01*
X145185000Y-107641335D01*
X145240147Y-107918574D01*
X145348320Y-108179727D01*
X145505363Y-108414759D01*
X145705241Y-108614637D01*
X145940273Y-108771680D01*
X146201426Y-108879853D01*
X146478665Y-108935000D01*
X146761335Y-108935000D01*
X147038574Y-108879853D01*
X147299727Y-108771680D01*
X147534759Y-108614637D01*
X147734637Y-108414759D01*
X147891680Y-108179727D01*
X147999853Y-107918574D01*
X148055000Y-107641335D01*
X148055000Y-107390600D01*
X168787228Y-107390600D01*
X168799488Y-107515082D01*
X168835798Y-107634780D01*
X168894763Y-107745094D01*
X168974115Y-107841785D01*
X169070806Y-107921137D01*
X169181120Y-107980102D01*
X169300818Y-108016412D01*
X169425300Y-108028672D01*
X170639550Y-108025600D01*
X170798300Y-107866850D01*
X170798300Y-106017600D01*
X171052300Y-106017600D01*
X171052300Y-107866850D01*
X171211050Y-108025600D01*
X172425300Y-108028672D01*
X172549782Y-108016412D01*
X172669480Y-107980102D01*
X172779794Y-107921137D01*
X172876485Y-107841785D01*
X172955837Y-107745094D01*
X173014802Y-107634780D01*
X173051112Y-107515082D01*
X173063372Y-107390600D01*
X173060300Y-106176350D01*
X172901550Y-106017600D01*
X171052300Y-106017600D01*
X170798300Y-106017600D01*
X168949050Y-106017600D01*
X168790300Y-106176350D01*
X168787228Y-107390600D01*
X148055000Y-107390600D01*
X148055000Y-107358665D01*
X147999853Y-107081426D01*
X147891680Y-106820273D01*
X147734637Y-106585241D01*
X147534759Y-106385363D01*
X147299727Y-106228320D01*
X147038574Y-106120147D01*
X146761335Y-106065000D01*
X146478665Y-106065000D01*
X146201426Y-106120147D01*
X145940273Y-106228320D01*
X145705241Y-106385363D01*
X145505363Y-106585241D01*
X145348320Y-106820273D01*
X145240147Y-107081426D01*
X145185000Y-107358665D01*
X140435000Y-107358665D01*
X140379853Y-107081426D01*
X140271680Y-106820273D01*
X140114637Y-106585241D01*
X139914759Y-106385363D01*
X139679727Y-106228320D01*
X139418574Y-106120147D01*
X139141335Y-106065000D01*
X138858665Y-106065000D01*
X138581426Y-106120147D01*
X138320273Y-106228320D01*
X138085241Y-106385363D01*
X137885363Y-106585241D01*
X137728320Y-106820273D01*
X137620147Y-107081426D01*
X137565000Y-107358665D01*
X136055000Y-107358665D01*
X135999853Y-107081426D01*
X135891680Y-106820273D01*
X135734637Y-106585241D01*
X135534759Y-106385363D01*
X135299727Y-106228320D01*
X135038574Y-106120147D01*
X134761335Y-106065000D01*
X134478665Y-106065000D01*
X134201426Y-106120147D01*
X133940273Y-106228320D01*
X133705241Y-106385363D01*
X133505363Y-106585241D01*
X133348320Y-106820273D01*
X133240147Y-107081426D01*
X133185000Y-107358665D01*
X128435000Y-107358665D01*
X128379853Y-107081426D01*
X128271680Y-106820273D01*
X128114637Y-106585241D01*
X127914759Y-106385363D01*
X127679727Y-106228320D01*
X127418574Y-106120147D01*
X127141335Y-106065000D01*
X126858665Y-106065000D01*
X126581426Y-106120147D01*
X126320273Y-106228320D01*
X126085241Y-106385363D01*
X125885363Y-106585241D01*
X125728320Y-106820273D01*
X125620147Y-107081426D01*
X125565000Y-107358665D01*
X110390018Y-107358665D01*
X113096791Y-104651893D01*
X113108320Y-104679727D01*
X113265363Y-104914759D01*
X113465241Y-105114637D01*
X113700273Y-105271680D01*
X113961426Y-105379853D01*
X114238665Y-105435000D01*
X114521335Y-105435000D01*
X114798574Y-105379853D01*
X115059727Y-105271680D01*
X115294759Y-105114637D01*
X115494637Y-104914759D01*
X115651680Y-104679727D01*
X115759853Y-104418574D01*
X115815000Y-104141335D01*
X115815000Y-103858665D01*
X120565000Y-103858665D01*
X120565000Y-104141335D01*
X120620147Y-104418574D01*
X120728320Y-104679727D01*
X120885363Y-104914759D01*
X121085241Y-105114637D01*
X121320273Y-105271680D01*
X121581426Y-105379853D01*
X121858665Y-105435000D01*
X122141335Y-105435000D01*
X122418574Y-105379853D01*
X122679727Y-105271680D01*
X122914759Y-105114637D01*
X123114637Y-104914759D01*
X123271680Y-104679727D01*
X123379853Y-104418574D01*
X123435000Y-104141335D01*
X123435000Y-104000000D01*
X155369428Y-104000000D01*
X155369428Y-106000000D01*
X155381688Y-106124482D01*
X155417998Y-106244180D01*
X155476963Y-106354494D01*
X155556315Y-106451185D01*
X155653006Y-106530537D01*
X155763320Y-106589502D01*
X155883018Y-106625812D01*
X156007500Y-106638072D01*
X157912500Y-106638072D01*
X158036982Y-106625812D01*
X158156680Y-106589502D01*
X158266994Y-106530537D01*
X158363685Y-106451185D01*
X158443037Y-106354494D01*
X158487905Y-106270553D01*
X158613766Y-106373845D01*
X158889552Y-106521255D01*
X159188797Y-106612030D01*
X159500000Y-106642681D01*
X159811204Y-106612030D01*
X160110449Y-106521255D01*
X160386235Y-106373845D01*
X160627963Y-106175463D01*
X160775162Y-105996100D01*
X160930563Y-106181315D01*
X161173077Y-106375969D01*
X161448906Y-106519571D01*
X161667020Y-106590563D01*
X161913000Y-106470594D01*
X161913000Y-105127000D01*
X162167000Y-105127000D01*
X162167000Y-106470594D01*
X162412980Y-106590563D01*
X162631094Y-106519571D01*
X162906923Y-106375969D01*
X163149437Y-106181315D01*
X163349316Y-105943089D01*
X163498879Y-105670446D01*
X163592378Y-105373863D01*
X163465570Y-105127000D01*
X162167000Y-105127000D01*
X161913000Y-105127000D01*
X161893000Y-105127000D01*
X161893000Y-104873000D01*
X161913000Y-104873000D01*
X161913000Y-103529406D01*
X162167000Y-103529406D01*
X162167000Y-104873000D01*
X163465570Y-104873000D01*
X163592378Y-104626137D01*
X163518125Y-104390600D01*
X168787228Y-104390600D01*
X168790300Y-105604850D01*
X168949050Y-105763600D01*
X170798300Y-105763600D01*
X170798300Y-103914350D01*
X171052300Y-103914350D01*
X171052300Y-105763600D01*
X172901550Y-105763600D01*
X173060300Y-105604850D01*
X173063372Y-104390600D01*
X173051112Y-104266118D01*
X173014802Y-104146420D01*
X172955837Y-104036106D01*
X172876485Y-103939415D01*
X172779794Y-103860063D01*
X172669480Y-103801098D01*
X172549782Y-103764788D01*
X172425300Y-103752528D01*
X171211050Y-103755600D01*
X171052300Y-103914350D01*
X170798300Y-103914350D01*
X170639550Y-103755600D01*
X169425300Y-103752528D01*
X169300818Y-103764788D01*
X169181120Y-103801098D01*
X169070806Y-103860063D01*
X168974115Y-103939415D01*
X168894763Y-104036106D01*
X168835798Y-104146420D01*
X168799488Y-104266118D01*
X168787228Y-104390600D01*
X163518125Y-104390600D01*
X163498879Y-104329554D01*
X163349316Y-104056911D01*
X163149437Y-103818685D01*
X162906923Y-103624031D01*
X162631094Y-103480429D01*
X162412980Y-103409437D01*
X162167000Y-103529406D01*
X161913000Y-103529406D01*
X161667020Y-103409437D01*
X161448906Y-103480429D01*
X161173077Y-103624031D01*
X160930563Y-103818685D01*
X160775163Y-104003899D01*
X160627963Y-103824537D01*
X160386234Y-103626155D01*
X160110448Y-103478745D01*
X159811203Y-103387970D01*
X159500000Y-103357319D01*
X159188796Y-103387970D01*
X158889551Y-103478745D01*
X158613765Y-103626155D01*
X158487905Y-103729446D01*
X158443037Y-103645506D01*
X158363685Y-103548815D01*
X158266994Y-103469463D01*
X158156680Y-103410498D01*
X158036982Y-103374188D01*
X157912500Y-103361928D01*
X156007500Y-103361928D01*
X155883018Y-103374188D01*
X155763320Y-103410498D01*
X155653006Y-103469463D01*
X155556315Y-103548815D01*
X155476963Y-103645506D01*
X155417998Y-103755820D01*
X155381688Y-103875518D01*
X155369428Y-104000000D01*
X123435000Y-104000000D01*
X123435000Y-103858665D01*
X123379853Y-103581426D01*
X123271680Y-103320273D01*
X123114637Y-103085241D01*
X122914759Y-102885363D01*
X122679727Y-102728320D01*
X122418574Y-102620147D01*
X122141335Y-102565000D01*
X121858665Y-102565000D01*
X121581426Y-102620147D01*
X121320273Y-102728320D01*
X121085241Y-102885363D01*
X120885363Y-103085241D01*
X120728320Y-103320273D01*
X120620147Y-103581426D01*
X120565000Y-103858665D01*
X115815000Y-103858665D01*
X115759853Y-103581426D01*
X115651680Y-103320273D01*
X115494637Y-103085241D01*
X115294759Y-102885363D01*
X115059727Y-102728320D01*
X115031893Y-102716791D01*
X117053083Y-100695601D01*
X131779264Y-100695601D01*
X131700273Y-100728320D01*
X131465241Y-100885363D01*
X131265363Y-101085241D01*
X131108320Y-101320273D01*
X131000147Y-101581426D01*
X130945000Y-101858665D01*
X130945000Y-102141335D01*
X131000147Y-102418574D01*
X131108320Y-102679727D01*
X131265363Y-102914759D01*
X131465241Y-103114637D01*
X131700273Y-103271680D01*
X131961426Y-103379853D01*
X132238665Y-103435000D01*
X132521335Y-103435000D01*
X132798574Y-103379853D01*
X133059727Y-103271680D01*
X133294759Y-103114637D01*
X133494637Y-102914759D01*
X133651680Y-102679727D01*
X133759853Y-102418574D01*
X133815000Y-102141335D01*
X133815000Y-101858665D01*
X133759853Y-101581426D01*
X133651680Y-101320273D01*
X133494637Y-101085241D01*
X133294759Y-100885363D01*
X133059727Y-100728320D01*
X132980736Y-100695601D01*
X139399264Y-100695601D01*
X139320273Y-100728320D01*
X139085241Y-100885363D01*
X138885363Y-101085241D01*
X138728320Y-101320273D01*
X138620147Y-101581426D01*
X138565000Y-101858665D01*
X138565000Y-102141335D01*
X138620147Y-102418574D01*
X138728320Y-102679727D01*
X138885363Y-102914759D01*
X139085241Y-103114637D01*
X139320273Y-103271680D01*
X139581426Y-103379853D01*
X139858665Y-103435000D01*
X140141335Y-103435000D01*
X140418574Y-103379853D01*
X140679727Y-103271680D01*
X140914759Y-103114637D01*
X141114637Y-102914759D01*
X141271680Y-102679727D01*
X141379853Y-102418574D01*
X141435000Y-102141335D01*
X141435000Y-101858665D01*
X141379853Y-101581426D01*
X141271680Y-101320273D01*
X141114637Y-101085241D01*
X140914759Y-100885363D01*
X140679727Y-100728320D01*
X140600736Y-100695601D01*
X143399264Y-100695601D01*
X143320273Y-100728320D01*
X143085241Y-100885363D01*
X142885363Y-101085241D01*
X142728320Y-101320273D01*
X142620147Y-101581426D01*
X142565000Y-101858665D01*
X142565000Y-102141335D01*
X142620147Y-102418574D01*
X142728320Y-102679727D01*
X142885363Y-102914759D01*
X143085241Y-103114637D01*
X143320273Y-103271680D01*
X143581426Y-103379853D01*
X143858665Y-103435000D01*
X144141335Y-103435000D01*
X144418574Y-103379853D01*
X144679727Y-103271680D01*
X144914759Y-103114637D01*
X145114637Y-102914759D01*
X145271680Y-102679727D01*
X145379853Y-102418574D01*
X145435000Y-102141335D01*
X145435000Y-101858665D01*
X145379853Y-101581426D01*
X145271680Y-101320273D01*
X145114637Y-101085241D01*
X144914759Y-100885363D01*
X144679727Y-100728320D01*
X144600736Y-100695601D01*
X151019264Y-100695601D01*
X150940273Y-100728320D01*
X150705241Y-100885363D01*
X150505363Y-101085241D01*
X150348320Y-101320273D01*
X150240147Y-101581426D01*
X150185000Y-101858665D01*
X150185000Y-102141335D01*
X150240147Y-102418574D01*
X150348320Y-102679727D01*
X150505363Y-102914759D01*
X150705241Y-103114637D01*
X150940273Y-103271680D01*
X151201426Y-103379853D01*
X151478665Y-103435000D01*
X151761335Y-103435000D01*
X152038574Y-103379853D01*
X152299727Y-103271680D01*
X152534759Y-103114637D01*
X152734637Y-102914759D01*
X152891680Y-102679727D01*
X152999853Y-102418574D01*
X153055000Y-102141335D01*
X153055000Y-101858665D01*
X152999853Y-101581426D01*
X152891680Y-101320273D01*
X152734637Y-101085241D01*
X152534759Y-100885363D01*
X152299727Y-100728320D01*
X152220736Y-100695601D01*
X168790300Y-100695601D01*
X168790300Y-101020879D01*
X168872347Y-101433356D01*
X169033288Y-101821902D01*
X169266937Y-102171583D01*
X169564317Y-102468963D01*
X169913998Y-102702612D01*
X170302544Y-102863553D01*
X170715021Y-102945600D01*
X171135579Y-102945600D01*
X171548056Y-102863553D01*
X171936602Y-102702612D01*
X172286283Y-102468963D01*
X172583663Y-102171583D01*
X172817312Y-101821902D01*
X172978253Y-101433356D01*
X173060300Y-101020879D01*
X173060300Y-100600321D01*
X172978253Y-100187844D01*
X172817312Y-99799298D01*
X172583663Y-99449617D01*
X172286283Y-99152237D01*
X171936602Y-98918588D01*
X171548056Y-98757647D01*
X171135579Y-98675600D01*
X170748985Y-98675600D01*
X170452755Y-98379370D01*
X170409382Y-98326520D01*
X170198489Y-98153444D01*
X169957882Y-98024837D01*
X169696808Y-97945641D01*
X169493338Y-97925601D01*
X169493330Y-97925601D01*
X169425301Y-97918901D01*
X169357272Y-97925601D01*
X162811590Y-97925601D01*
X162906923Y-97875969D01*
X163149437Y-97681315D01*
X163349316Y-97443089D01*
X163498879Y-97170446D01*
X163592378Y-96873863D01*
X163465570Y-96627000D01*
X162167000Y-96627000D01*
X162167000Y-96647000D01*
X161913000Y-96647000D01*
X161913000Y-96627000D01*
X161893000Y-96627000D01*
X161893000Y-96373000D01*
X161913000Y-96373000D01*
X161913000Y-95029406D01*
X162167000Y-95029406D01*
X162167000Y-96373000D01*
X163465570Y-96373000D01*
X163592378Y-96126137D01*
X163498879Y-95829554D01*
X163349316Y-95556911D01*
X163149437Y-95318685D01*
X162906923Y-95124031D01*
X162631094Y-94980429D01*
X162412980Y-94909437D01*
X162167000Y-95029406D01*
X161913000Y-95029406D01*
X161667020Y-94909437D01*
X161448906Y-94980429D01*
X161173077Y-95124031D01*
X160930563Y-95318685D01*
X160775163Y-95503899D01*
X160627963Y-95324537D01*
X160386234Y-95126155D01*
X160110448Y-94978745D01*
X159811203Y-94887970D01*
X159500000Y-94857319D01*
X159188796Y-94887970D01*
X158889551Y-94978745D01*
X158613765Y-95126155D01*
X158487905Y-95229446D01*
X158443037Y-95145506D01*
X158363685Y-95048815D01*
X158266994Y-94969463D01*
X158156680Y-94910498D01*
X158036982Y-94874188D01*
X157912500Y-94861928D01*
X156007500Y-94861928D01*
X155883018Y-94874188D01*
X155763320Y-94910498D01*
X155653006Y-94969463D01*
X155556315Y-95048815D01*
X155476963Y-95145506D01*
X155417998Y-95255820D01*
X155381688Y-95375518D01*
X155369428Y-95500000D01*
X155369428Y-97500000D01*
X155381688Y-97624482D01*
X155417998Y-97744180D01*
X155476963Y-97854494D01*
X155535319Y-97925601D01*
X116547426Y-97925601D01*
X116479397Y-97918901D01*
X116411368Y-97925601D01*
X116411360Y-97925601D01*
X116231289Y-97943336D01*
X116207889Y-97945641D01*
X115964176Y-98019571D01*
X115946816Y-98024837D01*
X115706209Y-98153444D01*
X115596505Y-98243476D01*
X115548163Y-98283149D01*
X115548161Y-98283151D01*
X115495316Y-98326520D01*
X115451947Y-98379365D01*
X109341787Y-104489526D01*
X109271680Y-104320273D01*
X109114637Y-104085241D01*
X108914759Y-103885363D01*
X108679727Y-103728320D01*
X108418574Y-103620147D01*
X108141335Y-103565000D01*
X107858665Y-103565000D01*
X107581426Y-103620147D01*
X107320273Y-103728320D01*
X107085241Y-103885363D01*
X106885363Y-104085241D01*
X106728320Y-104320273D01*
X106620147Y-104581426D01*
X106565000Y-104858665D01*
X106565000Y-105141335D01*
X106620147Y-105418574D01*
X106728320Y-105679727D01*
X106885363Y-105914759D01*
X107085241Y-106114637D01*
X107320273Y-106271680D01*
X107489526Y-106341787D01*
X104068765Y-109762548D01*
X104015919Y-109805918D01*
X103842843Y-110016811D01*
X103758723Y-110174188D01*
X103714236Y-110257418D01*
X103678919Y-110373844D01*
X103635040Y-110518492D01*
X103615000Y-110721962D01*
X103615000Y-110721969D01*
X103608300Y-110789998D01*
X103608894Y-110796024D01*
X103574662Y-110830256D01*
X103373844Y-111130801D01*
X103235518Y-111464750D01*
X103165000Y-111819268D01*
X102135000Y-111819268D01*
X102064482Y-111464750D01*
X101926156Y-111130801D01*
X101725338Y-110830256D01*
X101469744Y-110574662D01*
X101169199Y-110373844D01*
X100835250Y-110235518D01*
X100480732Y-110165000D01*
X100119268Y-110165000D01*
X99764750Y-110235518D01*
X99430801Y-110373844D01*
X99130256Y-110574662D01*
X98874662Y-110830256D01*
X98673844Y-111130801D01*
X98535518Y-111464750D01*
X98465000Y-111819268D01*
X97635000Y-111819268D01*
X97635000Y-111641984D01*
X97495309Y-110939710D01*
X97221295Y-110278182D01*
X96823489Y-109682823D01*
X96317177Y-109176511D01*
X95721818Y-108778705D01*
X95060290Y-108504691D01*
X94358016Y-108365000D01*
X93641984Y-108365000D01*
X92939710Y-108504691D01*
X92278182Y-108778705D01*
X91682823Y-109176511D01*
X91176511Y-109682823D01*
X90778705Y-110278182D01*
X90660000Y-110564761D01*
X90660000Y-106292702D01*
X93186903Y-106292702D01*
X93258486Y-106536671D01*
X93513996Y-106657571D01*
X93788184Y-106726300D01*
X94070512Y-106740217D01*
X94350130Y-106698787D01*
X94616292Y-106603603D01*
X94741514Y-106536671D01*
X94813097Y-106292702D01*
X94000000Y-105479605D01*
X93186903Y-106292702D01*
X90660000Y-106292702D01*
X90660000Y-105370512D01*
X92559783Y-105370512D01*
X92601213Y-105650130D01*
X92696397Y-105916292D01*
X92763329Y-106041514D01*
X93007298Y-106113097D01*
X93820395Y-105300000D01*
X93806253Y-105285858D01*
X93985858Y-105106253D01*
X94000000Y-105120395D01*
X94014143Y-105106253D01*
X94193748Y-105285858D01*
X94179605Y-105300000D01*
X94992702Y-106113097D01*
X95236671Y-106041514D01*
X95357571Y-105786004D01*
X95426300Y-105511816D01*
X95440217Y-105229488D01*
X95398787Y-104949870D01*
X95366171Y-104858665D01*
X98945000Y-104858665D01*
X98945000Y-105141335D01*
X99000147Y-105418574D01*
X99108320Y-105679727D01*
X99265363Y-105914759D01*
X99465241Y-106114637D01*
X99700273Y-106271680D01*
X99961426Y-106379853D01*
X100238665Y-106435000D01*
X100521335Y-106435000D01*
X100798574Y-106379853D01*
X101059727Y-106271680D01*
X101294759Y-106114637D01*
X101494637Y-105914759D01*
X101651680Y-105679727D01*
X101759853Y-105418574D01*
X101815000Y-105141335D01*
X101815000Y-104858665D01*
X101759853Y-104581426D01*
X101651680Y-104320273D01*
X101494637Y-104085241D01*
X101294759Y-103885363D01*
X101059727Y-103728320D01*
X100798574Y-103620147D01*
X100521335Y-103565000D01*
X100238665Y-103565000D01*
X99961426Y-103620147D01*
X99700273Y-103728320D01*
X99465241Y-103885363D01*
X99265363Y-104085241D01*
X99108320Y-104320273D01*
X99000147Y-104581426D01*
X98945000Y-104858665D01*
X95366171Y-104858665D01*
X95303603Y-104683708D01*
X95238384Y-104561691D01*
X95251185Y-104551185D01*
X95330537Y-104454494D01*
X95389502Y-104344180D01*
X95425812Y-104224482D01*
X95438072Y-104100000D01*
X95438072Y-102500000D01*
X95425812Y-102375518D01*
X95389502Y-102255820D01*
X95330537Y-102145506D01*
X95251185Y-102048815D01*
X95154494Y-101969463D01*
X95044180Y-101910498D01*
X94924482Y-101874188D01*
X94800000Y-101861928D01*
X93200000Y-101861928D01*
X93075518Y-101874188D01*
X92955820Y-101910498D01*
X92845506Y-101969463D01*
X92748815Y-102048815D01*
X92669463Y-102145506D01*
X92610498Y-102255820D01*
X92574188Y-102375518D01*
X92561928Y-102500000D01*
X92561928Y-104100000D01*
X92574188Y-104224482D01*
X92610498Y-104344180D01*
X92669463Y-104454494D01*
X92748815Y-104551185D01*
X92761758Y-104561807D01*
X92642429Y-104813996D01*
X92573700Y-105088184D01*
X92559783Y-105370512D01*
X90660000Y-105370512D01*
X90660000Y-98080000D01*
X92357319Y-98080000D01*
X92387970Y-98391204D01*
X92478745Y-98690449D01*
X92626155Y-98966235D01*
X92824537Y-99207963D01*
X93066265Y-99406345D01*
X93342051Y-99553755D01*
X93641296Y-99644530D01*
X93874514Y-99667500D01*
X94125486Y-99667500D01*
X94358704Y-99644530D01*
X94657949Y-99553755D01*
X94933735Y-99406345D01*
X95175463Y-99207963D01*
X95373845Y-98966235D01*
X95521255Y-98690449D01*
X95612030Y-98391204D01*
X95642681Y-98080000D01*
X95612030Y-97768796D01*
X95521255Y-97469551D01*
X95373845Y-97193765D01*
X95175463Y-96952037D01*
X94996101Y-96804837D01*
X95181315Y-96649437D01*
X95375969Y-96406923D01*
X95519571Y-96131094D01*
X95590563Y-95912980D01*
X95470594Y-95667000D01*
X94127000Y-95667000D01*
X94127000Y-95687000D01*
X93873000Y-95687000D01*
X93873000Y-95667000D01*
X92529406Y-95667000D01*
X92409437Y-95912980D01*
X92480429Y-96131094D01*
X92624031Y-96406923D01*
X92818685Y-96649437D01*
X93003899Y-96804837D01*
X92824537Y-96952037D01*
X92626155Y-97193765D01*
X92478745Y-97469551D01*
X92387970Y-97768796D01*
X92357319Y-98080000D01*
X90660000Y-98080000D01*
X90660000Y-92047500D01*
X92361928Y-92047500D01*
X92361928Y-93952500D01*
X92374188Y-94076982D01*
X92410498Y-94196680D01*
X92469463Y-94306994D01*
X92548815Y-94403685D01*
X92645506Y-94483037D01*
X92737219Y-94532059D01*
X92624031Y-94673077D01*
X92480429Y-94948906D01*
X92409437Y-95167020D01*
X92529406Y-95413000D01*
X93873000Y-95413000D01*
X93873000Y-95393000D01*
X94127000Y-95393000D01*
X94127000Y-95413000D01*
X95470594Y-95413000D01*
X95523219Y-95305098D01*
X108275000Y-95305098D01*
X108275000Y-95774902D01*
X108366654Y-96235679D01*
X108546440Y-96669721D01*
X108807450Y-97060349D01*
X109139651Y-97392550D01*
X109530279Y-97653560D01*
X109964321Y-97833346D01*
X110425098Y-97925000D01*
X110894902Y-97925000D01*
X111355679Y-97833346D01*
X111789721Y-97653560D01*
X112180349Y-97392550D01*
X112512550Y-97060349D01*
X112773560Y-96669721D01*
X112953346Y-96235679D01*
X113045000Y-95774902D01*
X113045000Y-95305098D01*
X112953346Y-94844321D01*
X112773560Y-94410279D01*
X112666465Y-94250000D01*
X115796928Y-94250000D01*
X115809188Y-94374482D01*
X115845498Y-94494180D01*
X115904463Y-94604494D01*
X115983815Y-94701185D01*
X116080506Y-94780537D01*
X116190820Y-94839502D01*
X116310518Y-94875812D01*
X116435000Y-94888072D01*
X116674250Y-94885000D01*
X116833000Y-94726250D01*
X116833000Y-93627000D01*
X115958750Y-93627000D01*
X115800000Y-93785750D01*
X115796928Y-94250000D01*
X112666465Y-94250000D01*
X112512550Y-94019651D01*
X112180349Y-93687450D01*
X111789721Y-93426440D01*
X111355679Y-93246654D01*
X110894902Y-93155000D01*
X110425098Y-93155000D01*
X109964321Y-93246654D01*
X109530279Y-93426440D01*
X109139651Y-93687450D01*
X108807450Y-94019651D01*
X108546440Y-94410279D01*
X108366654Y-94844321D01*
X108275000Y-95305098D01*
X95523219Y-95305098D01*
X95590563Y-95167020D01*
X95519571Y-94948906D01*
X95375969Y-94673077D01*
X95262781Y-94532059D01*
X95354494Y-94483037D01*
X95451185Y-94403685D01*
X95530537Y-94306994D01*
X95589502Y-94196680D01*
X95625812Y-94076982D01*
X95638072Y-93952500D01*
X95638072Y-92750000D01*
X115796928Y-92750000D01*
X115800000Y-93214250D01*
X115958750Y-93373000D01*
X116833000Y-93373000D01*
X116833000Y-92273750D01*
X116674250Y-92115000D01*
X116435000Y-92111928D01*
X116310518Y-92124188D01*
X116190820Y-92160498D01*
X116080506Y-92219463D01*
X115983815Y-92298815D01*
X115904463Y-92395506D01*
X115845498Y-92505820D01*
X115809188Y-92625518D01*
X115796928Y-92750000D01*
X95638072Y-92750000D01*
X95638072Y-92047500D01*
X95625812Y-91923018D01*
X95589502Y-91803320D01*
X95530537Y-91693006D01*
X95451185Y-91596315D01*
X95354494Y-91516963D01*
X95244180Y-91457998D01*
X95124482Y-91421688D01*
X95000000Y-91409428D01*
X93000000Y-91409428D01*
X92875518Y-91421688D01*
X92755820Y-91457998D01*
X92645506Y-91516963D01*
X92548815Y-91596315D01*
X92469463Y-91693006D01*
X92410498Y-91803320D01*
X92374188Y-91923018D01*
X92361928Y-92047500D01*
X90660000Y-92047500D01*
X90660000Y-86600000D01*
X92561928Y-86600000D01*
X92574188Y-86724482D01*
X92610498Y-86844180D01*
X92669463Y-86954494D01*
X92748815Y-87051185D01*
X92765393Y-87064790D01*
X92728320Y-87120273D01*
X92620147Y-87381426D01*
X92565000Y-87658665D01*
X92565000Y-87941335D01*
X92620147Y-88218574D01*
X92728320Y-88479727D01*
X92885363Y-88714759D01*
X93085241Y-88914637D01*
X93320273Y-89071680D01*
X93581426Y-89179853D01*
X93858665Y-89235000D01*
X94141335Y-89235000D01*
X94418574Y-89179853D01*
X94679727Y-89071680D01*
X94914759Y-88914637D01*
X95114637Y-88714759D01*
X95271680Y-88479727D01*
X95379853Y-88218574D01*
X95435000Y-87941335D01*
X95435000Y-87658665D01*
X95379853Y-87381426D01*
X95330555Y-87262408D01*
X104043000Y-87262408D01*
X104043000Y-87537592D01*
X104096686Y-87807490D01*
X104201995Y-88061727D01*
X104354880Y-88290535D01*
X104549465Y-88485120D01*
X104778273Y-88638005D01*
X105032510Y-88743314D01*
X105302408Y-88797000D01*
X105577592Y-88797000D01*
X105847490Y-88743314D01*
X106101727Y-88638005D01*
X106330535Y-88485120D01*
X106525120Y-88290535D01*
X106583920Y-88202535D01*
X106592188Y-88286482D01*
X106628498Y-88406180D01*
X106687463Y-88516494D01*
X106766815Y-88613185D01*
X106863506Y-88692537D01*
X106973820Y-88751502D01*
X107093518Y-88787812D01*
X107218000Y-88800072D01*
X107694250Y-88797000D01*
X107853000Y-88638250D01*
X107853000Y-87527000D01*
X107833000Y-87527000D01*
X107833000Y-87273000D01*
X107853000Y-87273000D01*
X107853000Y-86161750D01*
X108107000Y-86161750D01*
X108107000Y-87273000D01*
X108127000Y-87273000D01*
X108127000Y-87527000D01*
X108107000Y-87527000D01*
X108107000Y-88638250D01*
X108265750Y-88797000D01*
X108742000Y-88800072D01*
X108866482Y-88787812D01*
X108986180Y-88751502D01*
X109096494Y-88692537D01*
X109193185Y-88613185D01*
X109272537Y-88516494D01*
X109331502Y-88406180D01*
X109367812Y-88286482D01*
X109376080Y-88202535D01*
X109434880Y-88290535D01*
X109629465Y-88485120D01*
X109858273Y-88638005D01*
X110112510Y-88743314D01*
X110382408Y-88797000D01*
X110657592Y-88797000D01*
X110927490Y-88743314D01*
X111181727Y-88638005D01*
X111410535Y-88485120D01*
X111605120Y-88290535D01*
X111758005Y-88061727D01*
X111790000Y-87984485D01*
X111821995Y-88061727D01*
X111974880Y-88290535D01*
X112169465Y-88485120D01*
X112398273Y-88638005D01*
X112652510Y-88743314D01*
X112922408Y-88797000D01*
X113197592Y-88797000D01*
X113467490Y-88743314D01*
X113721727Y-88638005D01*
X113950535Y-88485120D01*
X114145120Y-88290535D01*
X114298005Y-88061727D01*
X114330000Y-87984485D01*
X114361995Y-88061727D01*
X114514880Y-88290535D01*
X114709465Y-88485120D01*
X114938273Y-88638005D01*
X115192510Y-88743314D01*
X115462408Y-88797000D01*
X115737592Y-88797000D01*
X116007490Y-88743314D01*
X116261727Y-88638005D01*
X116490535Y-88485120D01*
X116685120Y-88290535D01*
X116838005Y-88061727D01*
X116870000Y-87984485D01*
X116901995Y-88061727D01*
X117054880Y-88290535D01*
X117249465Y-88485120D01*
X117478273Y-88638005D01*
X117732510Y-88743314D01*
X118002408Y-88797000D01*
X118208199Y-88797000D01*
X117719003Y-89286196D01*
X117689999Y-89309999D01*
X117640759Y-89369999D01*
X117595026Y-89425724D01*
X117543963Y-89521255D01*
X117524454Y-89557754D01*
X117480997Y-89701015D01*
X117470000Y-89812668D01*
X117470000Y-89812678D01*
X117466324Y-89850000D01*
X117470000Y-89887323D01*
X117470001Y-92112121D01*
X117245750Y-92115000D01*
X117087000Y-92273750D01*
X117087000Y-93046892D01*
X117086785Y-93047601D01*
X117070000Y-93218022D01*
X117070000Y-93781979D01*
X117086785Y-93952400D01*
X117087000Y-93953109D01*
X117087000Y-94726250D01*
X117245750Y-94885000D01*
X117485000Y-94888072D01*
X117609482Y-94875812D01*
X117729180Y-94839502D01*
X117793902Y-94804907D01*
X118002601Y-94868215D01*
X118230000Y-94890612D01*
X118457400Y-94868215D01*
X118676060Y-94801885D01*
X118865001Y-94700894D01*
X119053941Y-94801885D01*
X119272601Y-94868215D01*
X119500000Y-94890612D01*
X119727400Y-94868215D01*
X119946060Y-94801885D01*
X120147579Y-94694171D01*
X120324212Y-94549212D01*
X120469171Y-94372579D01*
X120534690Y-94250000D01*
X123296928Y-94250000D01*
X123309188Y-94374482D01*
X123345498Y-94494180D01*
X123404463Y-94604494D01*
X123483815Y-94701185D01*
X123580506Y-94780537D01*
X123690820Y-94839502D01*
X123810518Y-94875812D01*
X123935000Y-94888072D01*
X124174250Y-94885000D01*
X124333000Y-94726250D01*
X124333000Y-93627000D01*
X123458750Y-93627000D01*
X123300000Y-93785750D01*
X123296928Y-94250000D01*
X120534690Y-94250000D01*
X120576885Y-94171059D01*
X120643215Y-93952399D01*
X120660000Y-93781978D01*
X120660000Y-93218021D01*
X120643215Y-93047600D01*
X120576885Y-92828940D01*
X120534691Y-92750000D01*
X123296928Y-92750000D01*
X123300000Y-93214250D01*
X123458750Y-93373000D01*
X124333000Y-93373000D01*
X124333000Y-92273750D01*
X124174250Y-92115000D01*
X123935000Y-92111928D01*
X123810518Y-92124188D01*
X123690820Y-92160498D01*
X123580506Y-92219463D01*
X123483815Y-92298815D01*
X123404463Y-92395506D01*
X123345498Y-92505820D01*
X123309188Y-92625518D01*
X123296928Y-92750000D01*
X120534691Y-92750000D01*
X120469171Y-92627421D01*
X120324212Y-92450788D01*
X120147578Y-92305829D01*
X119946059Y-92198115D01*
X119727399Y-92131785D01*
X119500000Y-92109388D01*
X119272600Y-92131785D01*
X119053940Y-92198115D01*
X118990000Y-92232292D01*
X118990000Y-90164801D01*
X120388430Y-88766372D01*
X120542408Y-88797000D01*
X120817592Y-88797000D01*
X121087490Y-88743314D01*
X121341727Y-88638005D01*
X121570535Y-88485120D01*
X121765120Y-88290535D01*
X121918005Y-88061727D01*
X121950000Y-87984485D01*
X121981995Y-88061727D01*
X122134880Y-88290535D01*
X122329465Y-88485120D01*
X122558273Y-88638005D01*
X122812510Y-88743314D01*
X123082408Y-88797000D01*
X123357592Y-88797000D01*
X123511570Y-88766372D01*
X124970000Y-90224802D01*
X124970001Y-92112121D01*
X124745750Y-92115000D01*
X124587000Y-92273750D01*
X124587000Y-93046892D01*
X124586785Y-93047601D01*
X124570000Y-93218022D01*
X124570000Y-93781979D01*
X124586785Y-93952400D01*
X124587000Y-93953109D01*
X124587000Y-94726250D01*
X124745750Y-94885000D01*
X124985000Y-94888072D01*
X125109482Y-94875812D01*
X125229180Y-94839502D01*
X125293902Y-94804907D01*
X125502601Y-94868215D01*
X125730000Y-94890612D01*
X125957400Y-94868215D01*
X126176060Y-94801885D01*
X126365001Y-94700894D01*
X126553941Y-94801885D01*
X126772601Y-94868215D01*
X127000000Y-94890612D01*
X127227400Y-94868215D01*
X127446060Y-94801885D01*
X127647579Y-94694171D01*
X127824212Y-94549212D01*
X127969171Y-94372579D01*
X128034690Y-94250000D01*
X131336928Y-94250000D01*
X131349188Y-94374482D01*
X131385498Y-94494180D01*
X131444463Y-94604494D01*
X131523815Y-94701185D01*
X131620506Y-94780537D01*
X131730820Y-94839502D01*
X131850518Y-94875812D01*
X131975000Y-94888072D01*
X132214250Y-94885000D01*
X132373000Y-94726250D01*
X132373000Y-93627000D01*
X131498750Y-93627000D01*
X131340000Y-93785750D01*
X131336928Y-94250000D01*
X128034690Y-94250000D01*
X128076885Y-94171059D01*
X128143215Y-93952399D01*
X128160000Y-93781978D01*
X128160000Y-93218021D01*
X128143215Y-93047600D01*
X128076885Y-92828940D01*
X128034691Y-92750000D01*
X131336928Y-92750000D01*
X131340000Y-93214250D01*
X131498750Y-93373000D01*
X132373000Y-93373000D01*
X132373000Y-92273750D01*
X132214250Y-92115000D01*
X131975000Y-92111928D01*
X131850518Y-92124188D01*
X131730820Y-92160498D01*
X131620506Y-92219463D01*
X131523815Y-92298815D01*
X131444463Y-92395506D01*
X131385498Y-92505820D01*
X131349188Y-92625518D01*
X131336928Y-92750000D01*
X128034691Y-92750000D01*
X127969171Y-92627421D01*
X127824212Y-92450788D01*
X127647578Y-92305829D01*
X127446059Y-92198115D01*
X127227399Y-92131785D01*
X127000000Y-92109388D01*
X126772600Y-92131785D01*
X126553940Y-92198115D01*
X126490000Y-92232292D01*
X126490000Y-89947322D01*
X126493676Y-89909999D01*
X126490000Y-89872676D01*
X126490000Y-89872667D01*
X126479003Y-89761014D01*
X126435546Y-89617753D01*
X126432487Y-89612030D01*
X126364974Y-89485723D01*
X126293799Y-89398997D01*
X126270001Y-89369999D01*
X126241004Y-89346202D01*
X125583026Y-88688224D01*
X125633000Y-88638250D01*
X125633000Y-87527000D01*
X125613000Y-87527000D01*
X125613000Y-87273000D01*
X125633000Y-87273000D01*
X125633000Y-86161750D01*
X125887000Y-86161750D01*
X125887000Y-87273000D01*
X125907000Y-87273000D01*
X125907000Y-87527000D01*
X125887000Y-87527000D01*
X125887000Y-88638250D01*
X126045750Y-88797000D01*
X126522000Y-88800072D01*
X126646482Y-88787812D01*
X126766180Y-88751502D01*
X126876494Y-88692537D01*
X126973185Y-88613185D01*
X127052537Y-88516494D01*
X127111502Y-88406180D01*
X127147812Y-88286482D01*
X127156080Y-88202535D01*
X127214880Y-88290535D01*
X127409465Y-88485120D01*
X127638273Y-88638005D01*
X127892510Y-88743314D01*
X128162408Y-88797000D01*
X128437592Y-88797000D01*
X128707490Y-88743314D01*
X128961727Y-88638005D01*
X129190535Y-88485120D01*
X129385120Y-88290535D01*
X129538005Y-88061727D01*
X129570000Y-87984485D01*
X129601995Y-88061727D01*
X129754880Y-88290535D01*
X129949465Y-88485120D01*
X130178273Y-88638005D01*
X130432510Y-88743314D01*
X130702408Y-88797000D01*
X130977592Y-88797000D01*
X131131571Y-88766372D01*
X133010000Y-90644802D01*
X133010001Y-92112121D01*
X132785750Y-92115000D01*
X132627000Y-92273750D01*
X132627000Y-93046892D01*
X132626785Y-93047601D01*
X132610000Y-93218022D01*
X132610000Y-93781979D01*
X132626785Y-93952400D01*
X132627000Y-93953109D01*
X132627000Y-94726250D01*
X132785750Y-94885000D01*
X133025000Y-94888072D01*
X133149482Y-94875812D01*
X133269180Y-94839502D01*
X133333902Y-94804907D01*
X133542601Y-94868215D01*
X133770000Y-94890612D01*
X133997400Y-94868215D01*
X134216060Y-94801885D01*
X134405001Y-94700894D01*
X134593941Y-94801885D01*
X134812601Y-94868215D01*
X135040000Y-94890612D01*
X135267400Y-94868215D01*
X135486060Y-94801885D01*
X135687579Y-94694171D01*
X135864212Y-94549212D01*
X136009171Y-94372579D01*
X136074690Y-94250000D01*
X138836928Y-94250000D01*
X138849188Y-94374482D01*
X138885498Y-94494180D01*
X138944463Y-94604494D01*
X139023815Y-94701185D01*
X139120506Y-94780537D01*
X139230820Y-94839502D01*
X139350518Y-94875812D01*
X139475000Y-94888072D01*
X139714250Y-94885000D01*
X139873000Y-94726250D01*
X139873000Y-93627000D01*
X138998750Y-93627000D01*
X138840000Y-93785750D01*
X138836928Y-94250000D01*
X136074690Y-94250000D01*
X136116885Y-94171059D01*
X136183215Y-93952399D01*
X136200000Y-93781978D01*
X136200000Y-93218021D01*
X136183215Y-93047600D01*
X136116885Y-92828940D01*
X136009171Y-92627421D01*
X135864212Y-92450788D01*
X135687578Y-92305829D01*
X135486059Y-92198115D01*
X135267399Y-92131785D01*
X135040000Y-92109388D01*
X134812600Y-92131785D01*
X134593940Y-92198115D01*
X134530000Y-92232292D01*
X134530000Y-90367325D01*
X134533676Y-90330000D01*
X134530000Y-90292675D01*
X134530000Y-90292667D01*
X134519003Y-90181014D01*
X134475546Y-90037753D01*
X134404974Y-89905724D01*
X134310001Y-89789999D01*
X134281004Y-89766202D01*
X133311802Y-88797000D01*
X133517592Y-88797000D01*
X133671570Y-88766372D01*
X133903201Y-88998003D01*
X133927000Y-89027002D01*
X133955998Y-89050800D01*
X134042725Y-89121975D01*
X134174754Y-89192547D01*
X134318015Y-89236004D01*
X134467001Y-89250678D01*
X134504334Y-89247001D01*
X136532202Y-89247001D01*
X139404110Y-92118910D01*
X139350518Y-92124188D01*
X139230820Y-92160498D01*
X139120506Y-92219463D01*
X139023815Y-92298815D01*
X138944463Y-92395506D01*
X138885498Y-92505820D01*
X138849188Y-92625518D01*
X138836928Y-92750000D01*
X138840000Y-93214250D01*
X138998750Y-93373000D01*
X139873000Y-93373000D01*
X139873000Y-93353000D01*
X140110000Y-93353000D01*
X140110000Y-93781979D01*
X140126785Y-93952400D01*
X140127000Y-93953109D01*
X140127000Y-94726250D01*
X140285750Y-94885000D01*
X140525000Y-94888072D01*
X140649482Y-94875812D01*
X140769180Y-94839502D01*
X140833902Y-94804907D01*
X141042601Y-94868215D01*
X141270000Y-94890612D01*
X141497400Y-94868215D01*
X141716060Y-94801885D01*
X141905001Y-94700894D01*
X142093941Y-94801885D01*
X142312601Y-94868215D01*
X142540000Y-94890612D01*
X142767400Y-94868215D01*
X142986060Y-94801885D01*
X143187579Y-94694171D01*
X143364212Y-94549212D01*
X143509171Y-94372579D01*
X143574690Y-94250000D01*
X146336928Y-94250000D01*
X146349188Y-94374482D01*
X146385498Y-94494180D01*
X146444463Y-94604494D01*
X146523815Y-94701185D01*
X146620506Y-94780537D01*
X146730820Y-94839502D01*
X146850518Y-94875812D01*
X146975000Y-94888072D01*
X147214250Y-94885000D01*
X147373000Y-94726250D01*
X147373000Y-93627000D01*
X146498750Y-93627000D01*
X146340000Y-93785750D01*
X146336928Y-94250000D01*
X143574690Y-94250000D01*
X143616885Y-94171059D01*
X143683215Y-93952399D01*
X143700000Y-93781978D01*
X143700000Y-93218021D01*
X143696748Y-93184999D01*
X146339806Y-93184999D01*
X146340000Y-93214250D01*
X146498750Y-93373000D01*
X147373000Y-93373000D01*
X147373000Y-93353000D01*
X147610000Y-93353000D01*
X147610000Y-93781979D01*
X147626785Y-93952400D01*
X147627000Y-93953109D01*
X147627000Y-94726250D01*
X147785750Y-94885000D01*
X148025000Y-94888072D01*
X148149482Y-94875812D01*
X148269180Y-94839502D01*
X148333902Y-94804907D01*
X148542601Y-94868215D01*
X148770000Y-94890612D01*
X148997400Y-94868215D01*
X149216060Y-94801885D01*
X149405001Y-94700894D01*
X149593941Y-94801885D01*
X149812601Y-94868215D01*
X150040000Y-94890612D01*
X150267400Y-94868215D01*
X150486060Y-94801885D01*
X150687579Y-94694171D01*
X150864212Y-94549212D01*
X151009171Y-94372579D01*
X151085059Y-94230600D01*
X168787228Y-94230600D01*
X168787228Y-97230600D01*
X168799488Y-97355082D01*
X168835798Y-97474780D01*
X168894763Y-97585094D01*
X168974115Y-97681785D01*
X169070806Y-97761137D01*
X169181120Y-97820102D01*
X169300818Y-97856412D01*
X169425300Y-97868672D01*
X172425300Y-97868672D01*
X172549782Y-97856412D01*
X172669480Y-97820102D01*
X172779794Y-97761137D01*
X172876485Y-97681785D01*
X172955837Y-97585094D01*
X173014802Y-97474780D01*
X173051112Y-97355082D01*
X173063372Y-97230600D01*
X173063372Y-94230600D01*
X173051112Y-94106118D01*
X173014802Y-93986420D01*
X172955837Y-93876106D01*
X172876485Y-93779415D01*
X172779794Y-93700063D01*
X172669480Y-93641098D01*
X172549782Y-93604788D01*
X172425300Y-93592528D01*
X169425300Y-93592528D01*
X169300818Y-93604788D01*
X169181120Y-93641098D01*
X169070806Y-93700063D01*
X168974115Y-93779415D01*
X168894763Y-93876106D01*
X168835798Y-93986420D01*
X168799488Y-94106118D01*
X168787228Y-94230600D01*
X151085059Y-94230600D01*
X151116885Y-94171059D01*
X151183215Y-93952399D01*
X151200000Y-93781978D01*
X151200000Y-93218021D01*
X151183215Y-93047600D01*
X151116885Y-92828940D01*
X151009171Y-92627421D01*
X150864212Y-92450788D01*
X150687578Y-92305829D01*
X150486059Y-92198115D01*
X150267399Y-92131785D01*
X150040000Y-92109388D01*
X149812600Y-92131785D01*
X149593940Y-92198115D01*
X149405000Y-92299106D01*
X149216059Y-92198115D01*
X149096715Y-92161912D01*
X148848805Y-91914002D01*
X148825002Y-91884998D01*
X148709277Y-91790025D01*
X148577248Y-91719453D01*
X148433987Y-91675996D01*
X148322334Y-91664999D01*
X148322323Y-91664999D01*
X148285001Y-91661323D01*
X148247679Y-91664999D01*
X142191039Y-91664999D01*
X140966361Y-90440321D01*
X168790300Y-90440321D01*
X168790300Y-90860879D01*
X168872347Y-91273356D01*
X169033288Y-91661902D01*
X169266937Y-92011583D01*
X169564317Y-92308963D01*
X169913998Y-92542612D01*
X170302544Y-92703553D01*
X170715021Y-92785600D01*
X171135579Y-92785600D01*
X171548056Y-92703553D01*
X171936602Y-92542612D01*
X172286283Y-92308963D01*
X172583663Y-92011583D01*
X172817312Y-91661902D01*
X172978253Y-91273356D01*
X173060300Y-90860879D01*
X173060300Y-90440321D01*
X172978253Y-90027844D01*
X172817312Y-89639298D01*
X172583663Y-89289617D01*
X172286283Y-88992237D01*
X171936602Y-88758588D01*
X171548056Y-88597647D01*
X171135579Y-88515600D01*
X170715021Y-88515600D01*
X170302544Y-88597647D01*
X169913998Y-88758588D01*
X169564317Y-88992237D01*
X169266937Y-89289617D01*
X169033288Y-89639298D01*
X168872347Y-90027844D01*
X168790300Y-90440321D01*
X140966361Y-90440321D01*
X139147094Y-88621055D01*
X139350535Y-88485120D01*
X139545120Y-88290535D01*
X139698005Y-88061727D01*
X139730000Y-87984485D01*
X139761995Y-88061727D01*
X139914880Y-88290535D01*
X140109465Y-88485120D01*
X140338273Y-88638005D01*
X140592510Y-88743314D01*
X140862408Y-88797000D01*
X141137592Y-88797000D01*
X141407490Y-88743314D01*
X141661727Y-88638005D01*
X141890535Y-88485120D01*
X142085120Y-88290535D01*
X142238005Y-88061727D01*
X142343314Y-87807490D01*
X142397000Y-87537592D01*
X142397000Y-87262408D01*
X142344804Y-87000000D01*
X155409428Y-87000000D01*
X155409428Y-89000000D01*
X155421688Y-89124482D01*
X155457998Y-89244180D01*
X155516963Y-89354494D01*
X155596315Y-89451185D01*
X155693006Y-89530537D01*
X155803320Y-89589502D01*
X155923018Y-89625812D01*
X156047500Y-89638072D01*
X157952500Y-89638072D01*
X158076982Y-89625812D01*
X158196680Y-89589502D01*
X158306994Y-89530537D01*
X158403685Y-89451185D01*
X158483037Y-89354494D01*
X158527905Y-89270553D01*
X158653766Y-89373845D01*
X158929552Y-89521255D01*
X159228797Y-89612030D01*
X159540000Y-89642681D01*
X159851204Y-89612030D01*
X160150449Y-89521255D01*
X160426235Y-89373845D01*
X160667963Y-89175463D01*
X160815162Y-88996100D01*
X160970563Y-89181315D01*
X161213077Y-89375969D01*
X161488906Y-89519571D01*
X161707020Y-89590563D01*
X161953000Y-89470594D01*
X161953000Y-88127000D01*
X162207000Y-88127000D01*
X162207000Y-89470594D01*
X162452980Y-89590563D01*
X162671094Y-89519571D01*
X162946923Y-89375969D01*
X163189437Y-89181315D01*
X163389316Y-88943089D01*
X163538879Y-88670446D01*
X163632378Y-88373863D01*
X163505570Y-88127000D01*
X162207000Y-88127000D01*
X161953000Y-88127000D01*
X161933000Y-88127000D01*
X161933000Y-87873000D01*
X161953000Y-87873000D01*
X161953000Y-86529406D01*
X162207000Y-86529406D01*
X162207000Y-87873000D01*
X163505570Y-87873000D01*
X163632378Y-87626137D01*
X163538879Y-87329554D01*
X163389316Y-87056911D01*
X163189437Y-86818685D01*
X162946923Y-86624031D01*
X162671094Y-86480429D01*
X162452980Y-86409437D01*
X162207000Y-86529406D01*
X161953000Y-86529406D01*
X161707020Y-86409437D01*
X161488906Y-86480429D01*
X161213077Y-86624031D01*
X160970563Y-86818685D01*
X160815163Y-87003899D01*
X160667963Y-86824537D01*
X160426234Y-86626155D01*
X160150448Y-86478745D01*
X159851203Y-86387970D01*
X159540000Y-86357319D01*
X159228796Y-86387970D01*
X158929551Y-86478745D01*
X158653765Y-86626155D01*
X158527905Y-86729446D01*
X158483037Y-86645506D01*
X158403685Y-86548815D01*
X158306994Y-86469463D01*
X158196680Y-86410498D01*
X158076982Y-86374188D01*
X157952500Y-86361928D01*
X156047500Y-86361928D01*
X155923018Y-86374188D01*
X155803320Y-86410498D01*
X155693006Y-86469463D01*
X155596315Y-86548815D01*
X155516963Y-86645506D01*
X155457998Y-86755820D01*
X155421688Y-86875518D01*
X155409428Y-87000000D01*
X142344804Y-87000000D01*
X142343314Y-86992510D01*
X142238005Y-86738273D01*
X142085120Y-86509465D01*
X141890535Y-86314880D01*
X141661727Y-86161995D01*
X141407490Y-86056686D01*
X141137592Y-86003000D01*
X140862408Y-86003000D01*
X140592510Y-86056686D01*
X140338273Y-86161995D01*
X140109465Y-86314880D01*
X139914880Y-86509465D01*
X139761995Y-86738273D01*
X139730000Y-86815515D01*
X139698005Y-86738273D01*
X139545120Y-86509465D01*
X139350535Y-86314880D01*
X139121727Y-86161995D01*
X138867490Y-86056686D01*
X138597592Y-86003000D01*
X138322408Y-86003000D01*
X138052510Y-86056686D01*
X137798273Y-86161995D01*
X137569465Y-86314880D01*
X137374880Y-86509465D01*
X137222908Y-86736907D01*
X137143485Y-86694454D01*
X137124974Y-86688839D01*
X137005120Y-86509465D01*
X136810535Y-86314880D01*
X136581727Y-86161995D01*
X136327490Y-86056686D01*
X136057592Y-86003000D01*
X135782408Y-86003000D01*
X135512510Y-86056686D01*
X135258273Y-86161995D01*
X135029465Y-86314880D01*
X134834880Y-86509465D01*
X134681995Y-86738273D01*
X134650000Y-86815515D01*
X134618005Y-86738273D01*
X134465120Y-86509465D01*
X134270535Y-86314880D01*
X134041727Y-86161995D01*
X133787490Y-86056686D01*
X133517592Y-86003000D01*
X133242408Y-86003000D01*
X132972510Y-86056686D01*
X132718273Y-86161995D01*
X132489465Y-86314880D01*
X132294880Y-86509465D01*
X132141995Y-86738273D01*
X132110000Y-86815515D01*
X132078005Y-86738273D01*
X131925120Y-86509465D01*
X131730535Y-86314880D01*
X131501727Y-86161995D01*
X131247490Y-86056686D01*
X130977592Y-86003000D01*
X130702408Y-86003000D01*
X130432510Y-86056686D01*
X130178273Y-86161995D01*
X129949465Y-86314880D01*
X129754880Y-86509465D01*
X129601995Y-86738273D01*
X129570000Y-86815515D01*
X129538005Y-86738273D01*
X129385120Y-86509465D01*
X129190535Y-86314880D01*
X128961727Y-86161995D01*
X128707490Y-86056686D01*
X128437592Y-86003000D01*
X128162408Y-86003000D01*
X127892510Y-86056686D01*
X127638273Y-86161995D01*
X127409465Y-86314880D01*
X127214880Y-86509465D01*
X127156080Y-86597465D01*
X127147812Y-86513518D01*
X127111502Y-86393820D01*
X127052537Y-86283506D01*
X126973185Y-86186815D01*
X126876494Y-86107463D01*
X126766180Y-86048498D01*
X126646482Y-86012188D01*
X126522000Y-85999928D01*
X126045750Y-86003000D01*
X125887000Y-86161750D01*
X125633000Y-86161750D01*
X125474250Y-86003000D01*
X124998000Y-85999928D01*
X124873518Y-86012188D01*
X124753820Y-86048498D01*
X124643506Y-86107463D01*
X124546815Y-86186815D01*
X124467463Y-86283506D01*
X124408498Y-86393820D01*
X124372188Y-86513518D01*
X124363920Y-86597465D01*
X124305120Y-86509465D01*
X124110535Y-86314880D01*
X123881727Y-86161995D01*
X123627490Y-86056686D01*
X123357592Y-86003000D01*
X123082408Y-86003000D01*
X122812510Y-86056686D01*
X122558273Y-86161995D01*
X122329465Y-86314880D01*
X122134880Y-86509465D01*
X121981995Y-86738273D01*
X121950000Y-86815515D01*
X121918005Y-86738273D01*
X121765120Y-86509465D01*
X121570535Y-86314880D01*
X121341727Y-86161995D01*
X121087490Y-86056686D01*
X120817592Y-86003000D01*
X120542408Y-86003000D01*
X120272510Y-86056686D01*
X120018273Y-86161995D01*
X119789465Y-86314880D01*
X119594880Y-86509465D01*
X119441995Y-86738273D01*
X119410000Y-86815515D01*
X119378005Y-86738273D01*
X119225120Y-86509465D01*
X119030535Y-86314880D01*
X118801727Y-86161995D01*
X118547490Y-86056686D01*
X118277592Y-86003000D01*
X118002408Y-86003000D01*
X117732510Y-86056686D01*
X117478273Y-86161995D01*
X117249465Y-86314880D01*
X117054880Y-86509465D01*
X116901995Y-86738273D01*
X116870000Y-86815515D01*
X116838005Y-86738273D01*
X116685120Y-86509465D01*
X116490535Y-86314880D01*
X116261727Y-86161995D01*
X116007490Y-86056686D01*
X115737592Y-86003000D01*
X115462408Y-86003000D01*
X115192510Y-86056686D01*
X114938273Y-86161995D01*
X114709465Y-86314880D01*
X114514880Y-86509465D01*
X114361995Y-86738273D01*
X114330000Y-86815515D01*
X114298005Y-86738273D01*
X114145120Y-86509465D01*
X113950535Y-86314880D01*
X113721727Y-86161995D01*
X113467490Y-86056686D01*
X113197592Y-86003000D01*
X112922408Y-86003000D01*
X112652510Y-86056686D01*
X112398273Y-86161995D01*
X112169465Y-86314880D01*
X111974880Y-86509465D01*
X111821995Y-86738273D01*
X111790000Y-86815515D01*
X111758005Y-86738273D01*
X111605120Y-86509465D01*
X111410535Y-86314880D01*
X111181727Y-86161995D01*
X110927490Y-86056686D01*
X110657592Y-86003000D01*
X110382408Y-86003000D01*
X110112510Y-86056686D01*
X109858273Y-86161995D01*
X109629465Y-86314880D01*
X109434880Y-86509465D01*
X109376080Y-86597465D01*
X109367812Y-86513518D01*
X109331502Y-86393820D01*
X109272537Y-86283506D01*
X109193185Y-86186815D01*
X109096494Y-86107463D01*
X108986180Y-86048498D01*
X108866482Y-86012188D01*
X108742000Y-85999928D01*
X108265750Y-86003000D01*
X108107000Y-86161750D01*
X107853000Y-86161750D01*
X107694250Y-86003000D01*
X107218000Y-85999928D01*
X107093518Y-86012188D01*
X106973820Y-86048498D01*
X106863506Y-86107463D01*
X106766815Y-86186815D01*
X106687463Y-86283506D01*
X106628498Y-86393820D01*
X106592188Y-86513518D01*
X106583920Y-86597465D01*
X106525120Y-86509465D01*
X106330535Y-86314880D01*
X106101727Y-86161995D01*
X105847490Y-86056686D01*
X105577592Y-86003000D01*
X105302408Y-86003000D01*
X105032510Y-86056686D01*
X104778273Y-86161995D01*
X104549465Y-86314880D01*
X104354880Y-86509465D01*
X104201995Y-86738273D01*
X104096686Y-86992510D01*
X104043000Y-87262408D01*
X95330555Y-87262408D01*
X95271680Y-87120273D01*
X95234607Y-87064790D01*
X95251185Y-87051185D01*
X95330537Y-86954494D01*
X95389502Y-86844180D01*
X95425812Y-86724482D01*
X95438072Y-86600000D01*
X95435000Y-86085750D01*
X95276250Y-85927000D01*
X94127000Y-85927000D01*
X94127000Y-85947000D01*
X93873000Y-85947000D01*
X93873000Y-85927000D01*
X92723750Y-85927000D01*
X92565000Y-86085750D01*
X92561928Y-86600000D01*
X90660000Y-86600000D01*
X90660000Y-85000000D01*
X92561928Y-85000000D01*
X92565000Y-85514250D01*
X92723750Y-85673000D01*
X93873000Y-85673000D01*
X93873000Y-84523750D01*
X94127000Y-84523750D01*
X94127000Y-85673000D01*
X95276250Y-85673000D01*
X95435000Y-85514250D01*
X95435919Y-85360321D01*
X168790300Y-85360321D01*
X168790300Y-85780879D01*
X168872347Y-86193356D01*
X169033288Y-86581902D01*
X169266937Y-86931583D01*
X169564317Y-87228963D01*
X169913998Y-87462612D01*
X170302544Y-87623553D01*
X170715021Y-87705600D01*
X171135579Y-87705600D01*
X171548056Y-87623553D01*
X171936602Y-87462612D01*
X172286283Y-87228963D01*
X172583663Y-86931583D01*
X172817312Y-86581902D01*
X172978253Y-86193356D01*
X173060300Y-85780879D01*
X173060300Y-85360321D01*
X172978253Y-84947844D01*
X172817312Y-84559298D01*
X172583663Y-84209617D01*
X172286283Y-83912237D01*
X171936602Y-83678588D01*
X171548056Y-83517647D01*
X171135579Y-83435600D01*
X170715021Y-83435600D01*
X170302544Y-83517647D01*
X169913998Y-83678588D01*
X169564317Y-83912237D01*
X169266937Y-84209617D01*
X169033288Y-84559298D01*
X168872347Y-84947844D01*
X168790300Y-85360321D01*
X95435919Y-85360321D01*
X95438072Y-85000000D01*
X95425812Y-84875518D01*
X95389502Y-84755820D01*
X95330537Y-84645506D01*
X95251185Y-84548815D01*
X95154494Y-84469463D01*
X95044180Y-84410498D01*
X94924482Y-84374188D01*
X94800000Y-84361928D01*
X94285750Y-84365000D01*
X94127000Y-84523750D01*
X93873000Y-84523750D01*
X93714250Y-84365000D01*
X93200000Y-84361928D01*
X93075518Y-84374188D01*
X92955820Y-84410498D01*
X92845506Y-84469463D01*
X92748815Y-84548815D01*
X92669463Y-84645506D01*
X92610498Y-84755820D01*
X92574188Y-84875518D01*
X92561928Y-85000000D01*
X90660000Y-85000000D01*
X90660000Y-78500000D01*
X155369428Y-78500000D01*
X155369428Y-80500000D01*
X155381688Y-80624482D01*
X155417998Y-80744180D01*
X155476963Y-80854494D01*
X155556315Y-80951185D01*
X155653006Y-81030537D01*
X155763320Y-81089502D01*
X155883018Y-81125812D01*
X156007500Y-81138072D01*
X157912500Y-81138072D01*
X158036982Y-81125812D01*
X158156680Y-81089502D01*
X158266994Y-81030537D01*
X158363685Y-80951185D01*
X158443037Y-80854494D01*
X158487905Y-80770553D01*
X158613766Y-80873845D01*
X158889552Y-81021255D01*
X159188797Y-81112030D01*
X159500000Y-81142681D01*
X159811204Y-81112030D01*
X160110449Y-81021255D01*
X160386235Y-80873845D01*
X160627963Y-80675463D01*
X160775162Y-80496100D01*
X160930563Y-80681315D01*
X161173077Y-80875969D01*
X161448906Y-81019571D01*
X161667020Y-81090563D01*
X161913000Y-80970594D01*
X161913000Y-79627000D01*
X162167000Y-79627000D01*
X162167000Y-80970594D01*
X162412980Y-81090563D01*
X162631094Y-81019571D01*
X162906923Y-80875969D01*
X163149437Y-80681315D01*
X163349316Y-80443089D01*
X163438605Y-80280321D01*
X168790300Y-80280321D01*
X168790300Y-80700879D01*
X168872347Y-81113356D01*
X169033288Y-81501902D01*
X169266937Y-81851583D01*
X169564317Y-82148963D01*
X169913998Y-82382612D01*
X170302544Y-82543553D01*
X170715021Y-82625600D01*
X171135579Y-82625600D01*
X171548056Y-82543553D01*
X171936602Y-82382612D01*
X172286283Y-82148963D01*
X172583663Y-81851583D01*
X172817312Y-81501902D01*
X172978253Y-81113356D01*
X173060300Y-80700879D01*
X173060300Y-80280321D01*
X172978253Y-79867844D01*
X172817312Y-79479298D01*
X172583663Y-79129617D01*
X172286283Y-78832237D01*
X171936602Y-78598588D01*
X171548056Y-78437647D01*
X171135579Y-78355600D01*
X170715021Y-78355600D01*
X170302544Y-78437647D01*
X169913998Y-78598588D01*
X169564317Y-78832237D01*
X169266937Y-79129617D01*
X169033288Y-79479298D01*
X168872347Y-79867844D01*
X168790300Y-80280321D01*
X163438605Y-80280321D01*
X163498879Y-80170446D01*
X163592378Y-79873863D01*
X163465570Y-79627000D01*
X162167000Y-79627000D01*
X161913000Y-79627000D01*
X161893000Y-79627000D01*
X161893000Y-79373000D01*
X161913000Y-79373000D01*
X161913000Y-78029406D01*
X162167000Y-78029406D01*
X162167000Y-79373000D01*
X163465570Y-79373000D01*
X163592378Y-79126137D01*
X163498879Y-78829554D01*
X163349316Y-78556911D01*
X163149437Y-78318685D01*
X162906923Y-78124031D01*
X162631094Y-77980429D01*
X162412980Y-77909437D01*
X162167000Y-78029406D01*
X161913000Y-78029406D01*
X161667020Y-77909437D01*
X161448906Y-77980429D01*
X161173077Y-78124031D01*
X160930563Y-78318685D01*
X160775163Y-78503899D01*
X160627963Y-78324537D01*
X160386234Y-78126155D01*
X160110448Y-77978745D01*
X159811203Y-77887970D01*
X159500000Y-77857319D01*
X159188796Y-77887970D01*
X158889551Y-77978745D01*
X158613765Y-78126155D01*
X158487905Y-78229446D01*
X158443037Y-78145506D01*
X158363685Y-78048815D01*
X158266994Y-77969463D01*
X158156680Y-77910498D01*
X158036982Y-77874188D01*
X157912500Y-77861928D01*
X156007500Y-77861928D01*
X155883018Y-77874188D01*
X155763320Y-77910498D01*
X155653006Y-77969463D01*
X155556315Y-78048815D01*
X155476963Y-78145506D01*
X155417998Y-78255820D01*
X155381688Y-78375518D01*
X155369428Y-78500000D01*
X90660000Y-78500000D01*
X90660000Y-75200321D01*
X168790300Y-75200321D01*
X168790300Y-75620879D01*
X168872347Y-76033356D01*
X169033288Y-76421902D01*
X169266937Y-76771583D01*
X169564317Y-77068963D01*
X169913998Y-77302612D01*
X170302544Y-77463553D01*
X170715021Y-77545600D01*
X171135579Y-77545600D01*
X171548056Y-77463553D01*
X171936602Y-77302612D01*
X172286283Y-77068963D01*
X172583663Y-76771583D01*
X172817312Y-76421902D01*
X172978253Y-76033356D01*
X173060300Y-75620879D01*
X173060300Y-75200321D01*
X172978253Y-74787844D01*
X172817312Y-74399298D01*
X172583663Y-74049617D01*
X172286283Y-73752237D01*
X171936602Y-73518588D01*
X171548056Y-73357647D01*
X171135579Y-73275600D01*
X170715021Y-73275600D01*
X170302544Y-73357647D01*
X169913998Y-73518588D01*
X169564317Y-73752237D01*
X169266937Y-74049617D01*
X169033288Y-74399298D01*
X168872347Y-74787844D01*
X168790300Y-75200321D01*
X90660000Y-75200321D01*
X90660000Y-70000000D01*
X155369428Y-70000000D01*
X155369428Y-72000000D01*
X155381688Y-72124482D01*
X155417998Y-72244180D01*
X155476963Y-72354494D01*
X155556315Y-72451185D01*
X155653006Y-72530537D01*
X155763320Y-72589502D01*
X155883018Y-72625812D01*
X156007500Y-72638072D01*
X157912500Y-72638072D01*
X158036982Y-72625812D01*
X158156680Y-72589502D01*
X158266994Y-72530537D01*
X158363685Y-72451185D01*
X158443037Y-72354494D01*
X158487905Y-72270553D01*
X158613766Y-72373845D01*
X158889552Y-72521255D01*
X159188797Y-72612030D01*
X159500000Y-72642681D01*
X159811204Y-72612030D01*
X160110449Y-72521255D01*
X160386235Y-72373845D01*
X160627963Y-72175463D01*
X160775162Y-71996100D01*
X160930563Y-72181315D01*
X161173077Y-72375969D01*
X161448906Y-72519571D01*
X161667020Y-72590563D01*
X161913000Y-72470594D01*
X161913000Y-71127000D01*
X162167000Y-71127000D01*
X162167000Y-72470594D01*
X162412980Y-72590563D01*
X162631094Y-72519571D01*
X162906923Y-72375969D01*
X163149437Y-72181315D01*
X163349316Y-71943089D01*
X163498879Y-71670446D01*
X163592378Y-71373863D01*
X163465570Y-71127000D01*
X162167000Y-71127000D01*
X161913000Y-71127000D01*
X161893000Y-71127000D01*
X161893000Y-70873000D01*
X161913000Y-70873000D01*
X161913000Y-69529406D01*
X162167000Y-69529406D01*
X162167000Y-70873000D01*
X163465570Y-70873000D01*
X163592378Y-70626137D01*
X163498879Y-70329554D01*
X163384101Y-70120321D01*
X168790300Y-70120321D01*
X168790300Y-70540879D01*
X168872347Y-70953356D01*
X169033288Y-71341902D01*
X169266937Y-71691583D01*
X169564317Y-71988963D01*
X169913998Y-72222612D01*
X170302544Y-72383553D01*
X170715021Y-72465600D01*
X171135579Y-72465600D01*
X171548056Y-72383553D01*
X171936602Y-72222612D01*
X172286283Y-71988963D01*
X172583663Y-71691583D01*
X172817312Y-71341902D01*
X172978253Y-70953356D01*
X173060300Y-70540879D01*
X173060300Y-70120321D01*
X172978253Y-69707844D01*
X172817312Y-69319298D01*
X172583663Y-68969617D01*
X172286283Y-68672237D01*
X171936602Y-68438588D01*
X171548056Y-68277647D01*
X171135579Y-68195600D01*
X170715021Y-68195600D01*
X170302544Y-68277647D01*
X169913998Y-68438588D01*
X169564317Y-68672237D01*
X169266937Y-68969617D01*
X169033288Y-69319298D01*
X168872347Y-69707844D01*
X168790300Y-70120321D01*
X163384101Y-70120321D01*
X163349316Y-70056911D01*
X163149437Y-69818685D01*
X162906923Y-69624031D01*
X162631094Y-69480429D01*
X162412980Y-69409437D01*
X162167000Y-69529406D01*
X161913000Y-69529406D01*
X161667020Y-69409437D01*
X161448906Y-69480429D01*
X161173077Y-69624031D01*
X160930563Y-69818685D01*
X160775163Y-70003899D01*
X160627963Y-69824537D01*
X160386234Y-69626155D01*
X160110448Y-69478745D01*
X159811203Y-69387970D01*
X159500000Y-69357319D01*
X159188796Y-69387970D01*
X158889551Y-69478745D01*
X158613765Y-69626155D01*
X158487905Y-69729446D01*
X158443037Y-69645506D01*
X158363685Y-69548815D01*
X158266994Y-69469463D01*
X158156680Y-69410498D01*
X158036982Y-69374188D01*
X157912500Y-69361928D01*
X156007500Y-69361928D01*
X155883018Y-69374188D01*
X155763320Y-69410498D01*
X155653006Y-69469463D01*
X155556315Y-69548815D01*
X155476963Y-69645506D01*
X155417998Y-69755820D01*
X155381688Y-69875518D01*
X155369428Y-70000000D01*
X90660000Y-70000000D01*
X90660000Y-65435239D01*
X90778705Y-65721818D01*
X91176511Y-66317177D01*
X91682823Y-66823489D01*
X92278182Y-67221295D01*
X92939710Y-67495309D01*
X93641984Y-67635000D01*
X94358016Y-67635000D01*
X95060290Y-67495309D01*
X95721818Y-67221295D01*
X96317177Y-66823489D01*
X96823489Y-66317177D01*
X97221295Y-65721818D01*
X97495309Y-65060290D01*
X97635000Y-64358016D01*
X97635000Y-63641984D01*
X97495309Y-62939710D01*
X97221295Y-62278182D01*
X96823489Y-61682823D01*
X96317177Y-61176511D01*
X95721818Y-60778705D01*
X95435239Y-60660000D01*
X105024509Y-60660000D01*
X104778273Y-60761995D01*
%TA.AperFunction,Conductor*%
D30*
G36*
X104778273Y-60761995D02*
G01*
X104549465Y-60914880D01*
X104354880Y-61109465D01*
X104201995Y-61338273D01*
X104096686Y-61592510D01*
X104043000Y-61862408D01*
X104043000Y-62137592D01*
X104096686Y-62407490D01*
X104201995Y-62661727D01*
X104354880Y-62890535D01*
X104549465Y-63085120D01*
X104778273Y-63238005D01*
X105032510Y-63343314D01*
X105302408Y-63397000D01*
X105577592Y-63397000D01*
X105847490Y-63343314D01*
X106101727Y-63238005D01*
X106330535Y-63085120D01*
X106525120Y-62890535D01*
X106583920Y-62802535D01*
X106592188Y-62886482D01*
X106628498Y-63006180D01*
X106687463Y-63116494D01*
X106766815Y-63213185D01*
X106863506Y-63292537D01*
X106973820Y-63351502D01*
X107093518Y-63387812D01*
X107218000Y-63400072D01*
X107694250Y-63397000D01*
X107853000Y-63238250D01*
X107853000Y-62127000D01*
X107833000Y-62127000D01*
X107833000Y-61873000D01*
X107853000Y-61873000D01*
X107853000Y-61853000D01*
X108107000Y-61853000D01*
X108107000Y-61873000D01*
X108127000Y-61873000D01*
X108127000Y-62127000D01*
X108107000Y-62127000D01*
X108107000Y-63238250D01*
X108265750Y-63397000D01*
X108742000Y-63400072D01*
X108866482Y-63387812D01*
X108986180Y-63351502D01*
X109096494Y-63292537D01*
X109193185Y-63213185D01*
X109272537Y-63116494D01*
X109331502Y-63006180D01*
X109367812Y-62886482D01*
X109376080Y-62802535D01*
X109434880Y-62890535D01*
X109629465Y-63085120D01*
X109858273Y-63238005D01*
X110112510Y-63343314D01*
X110382408Y-63397000D01*
X110657592Y-63397000D01*
X110927490Y-63343314D01*
X111181727Y-63238005D01*
X111410535Y-63085120D01*
X111605120Y-62890535D01*
X111758005Y-62661727D01*
X111790000Y-62584485D01*
X111821995Y-62661727D01*
X111974880Y-62890535D01*
X112169465Y-63085120D01*
X112398273Y-63238005D01*
X112652510Y-63343314D01*
X112922408Y-63397000D01*
X113197592Y-63397000D01*
X113467490Y-63343314D01*
X113721727Y-63238005D01*
X113950535Y-63085120D01*
X114145120Y-62890535D01*
X114298005Y-62661727D01*
X114330000Y-62584485D01*
X114361995Y-62661727D01*
X114514880Y-62890535D01*
X114709465Y-63085120D01*
X114938273Y-63238005D01*
X115192510Y-63343314D01*
X115462408Y-63397000D01*
X115737592Y-63397000D01*
X116007490Y-63343314D01*
X116261727Y-63238005D01*
X116490535Y-63085120D01*
X116685120Y-62890535D01*
X116743920Y-62802535D01*
X116752188Y-62886482D01*
X116788498Y-63006180D01*
X116847463Y-63116494D01*
X116926815Y-63213185D01*
X117023506Y-63292537D01*
X117133820Y-63351502D01*
X117253518Y-63387812D01*
X117378000Y-63400072D01*
X117854250Y-63397000D01*
X118013000Y-63238250D01*
X118013000Y-62127000D01*
X117993000Y-62127000D01*
X117993000Y-61873000D01*
X118013000Y-61873000D01*
X118013000Y-61853000D01*
X118267000Y-61853000D01*
X118267000Y-61873000D01*
X118287000Y-61873000D01*
X118287000Y-62127000D01*
X118267000Y-62127000D01*
X118267000Y-63238250D01*
X118425750Y-63397000D01*
X118902000Y-63400072D01*
X119026482Y-63387812D01*
X119146180Y-63351502D01*
X119256494Y-63292537D01*
X119353185Y-63213185D01*
X119432537Y-63116494D01*
X119491502Y-63006180D01*
X119527812Y-62886482D01*
X119536080Y-62802535D01*
X119594880Y-62890535D01*
X119789465Y-63085120D01*
X120018273Y-63238005D01*
X120272510Y-63343314D01*
X120542408Y-63397000D01*
X120817592Y-63397000D01*
X121087490Y-63343314D01*
X121341727Y-63238005D01*
X121570535Y-63085120D01*
X121765120Y-62890535D01*
X121918005Y-62661727D01*
X121950000Y-62584485D01*
X121981995Y-62661727D01*
X122134880Y-62890535D01*
X122329465Y-63085120D01*
X122558273Y-63238005D01*
X122812510Y-63343314D01*
X123082408Y-63397000D01*
X123357592Y-63397000D01*
X123627490Y-63343314D01*
X123881727Y-63238005D01*
X124110535Y-63085120D01*
X124305120Y-62890535D01*
X124458005Y-62661727D01*
X124490000Y-62584485D01*
X124521995Y-62661727D01*
X124674880Y-62890535D01*
X124869465Y-63085120D01*
X125098273Y-63238005D01*
X125352510Y-63343314D01*
X125622408Y-63397000D01*
X125897592Y-63397000D01*
X126167490Y-63343314D01*
X126421727Y-63238005D01*
X126650535Y-63085120D01*
X126845120Y-62890535D01*
X126998005Y-62661727D01*
X127030000Y-62584485D01*
X127061995Y-62661727D01*
X127214880Y-62890535D01*
X127409465Y-63085120D01*
X127638273Y-63238005D01*
X127892510Y-63343314D01*
X128162408Y-63397000D01*
X128437592Y-63397000D01*
X128707490Y-63343314D01*
X128961727Y-63238005D01*
X129190535Y-63085120D01*
X129385120Y-62890535D01*
X129538005Y-62661727D01*
X129570000Y-62584485D01*
X129601995Y-62661727D01*
X129754880Y-62890535D01*
X129949465Y-63085120D01*
X130178273Y-63238005D01*
X130432510Y-63343314D01*
X130702408Y-63397000D01*
X130977592Y-63397000D01*
X131247490Y-63343314D01*
X131501727Y-63238005D01*
X131730535Y-63085120D01*
X131925120Y-62890535D01*
X132078005Y-62661727D01*
X132110000Y-62584485D01*
X132141995Y-62661727D01*
X132294880Y-62890535D01*
X132489465Y-63085120D01*
X132718273Y-63238005D01*
X132972510Y-63343314D01*
X133242408Y-63397000D01*
X133517592Y-63397000D01*
X133787490Y-63343314D01*
X134041727Y-63238005D01*
X134270535Y-63085120D01*
X134465120Y-62890535D01*
X134618005Y-62661727D01*
X134650000Y-62584485D01*
X134681995Y-62661727D01*
X134834880Y-62890535D01*
X135029465Y-63085120D01*
X135258273Y-63238005D01*
X135512510Y-63343314D01*
X135782408Y-63397000D01*
X136057592Y-63397000D01*
X136327490Y-63343314D01*
X136581727Y-63238005D01*
X136810535Y-63085120D01*
X137005120Y-62890535D01*
X137158005Y-62661727D01*
X137190000Y-62584485D01*
X137221995Y-62661727D01*
X137374880Y-62890535D01*
X137569465Y-63085120D01*
X137798273Y-63238005D01*
X138052510Y-63343314D01*
X138322408Y-63397000D01*
X138597592Y-63397000D01*
X138867490Y-63343314D01*
X139121727Y-63238005D01*
X139350535Y-63085120D01*
X139545120Y-62890535D01*
X139698005Y-62661727D01*
X139730000Y-62584485D01*
X139761995Y-62661727D01*
X139914880Y-62890535D01*
X140109465Y-63085120D01*
X140338273Y-63238005D01*
X140592510Y-63343314D01*
X140862408Y-63397000D01*
X141137592Y-63397000D01*
X141407490Y-63343314D01*
X141661727Y-63238005D01*
X141890535Y-63085120D01*
X142085120Y-62890535D01*
X142238005Y-62661727D01*
X142343314Y-62407490D01*
X142397000Y-62137592D01*
X142397000Y-61862408D01*
X142343314Y-61592510D01*
X142238005Y-61338273D01*
X142085120Y-61109465D01*
X141890535Y-60914880D01*
X141661727Y-60761995D01*
X141415491Y-60660000D01*
X150564761Y-60660000D01*
X150278182Y-60778705D01*
X149682823Y-61176511D01*
X149176511Y-61682823D01*
X148778705Y-62278182D01*
X148504691Y-62939710D01*
X148365000Y-63641984D01*
X148365000Y-64358016D01*
X148504691Y-65060290D01*
X148778705Y-65721818D01*
X149176511Y-66317177D01*
X149682823Y-66823489D01*
X150278182Y-67221295D01*
X150939710Y-67495309D01*
X151641984Y-67635000D01*
X152358016Y-67635000D01*
X153060290Y-67495309D01*
X153721818Y-67221295D01*
X154317177Y-66823489D01*
X154823489Y-66317177D01*
X155221295Y-65721818D01*
X155495309Y-65060290D01*
X155635000Y-64358016D01*
X155635000Y-63641984D01*
X155495309Y-62939710D01*
X155221295Y-62278182D01*
X154823489Y-61682823D01*
X154317177Y-61176511D01*
X153721818Y-60778705D01*
X153435239Y-60660000D01*
X170967722Y-60660000D01*
X171648126Y-60726714D01*
X172271572Y-60914943D01*
X172846579Y-61220681D01*
X173351247Y-61632279D01*
X173766362Y-62134067D01*
X174076105Y-62706924D01*
X174268682Y-63329039D01*
X174340000Y-64007584D01*
X174340001Y-111967711D01*
X174273286Y-112648126D01*
X174085057Y-113271570D01*
X173779323Y-113846573D01*
X173367721Y-114351248D01*
X172865933Y-114766362D01*
X172293077Y-115076104D01*
X171670961Y-115268682D01*
X170992417Y-115340000D01*
X153435239Y-115340000D01*
X153721818Y-115221295D01*
X154317177Y-114823489D01*
X154823489Y-114317177D01*
X155221295Y-113721818D01*
X155495309Y-113060290D01*
X155635000Y-112358016D01*
X155635000Y-111641984D01*
X155495309Y-110939710D01*
X155221295Y-110278182D01*
X154823489Y-109682823D01*
X154317177Y-109176511D01*
X153721818Y-108778705D01*
X153060290Y-108504691D01*
X152358016Y-108365000D01*
X151641984Y-108365000D01*
X150939710Y-108504691D01*
X150278182Y-108778705D01*
X149682823Y-109176511D01*
X149176511Y-109682823D01*
X148778705Y-110278182D01*
X148504691Y-110939710D01*
X148365000Y-111641984D01*
X148365000Y-112358016D01*
X148504691Y-113060290D01*
X148778705Y-113721818D01*
X149176511Y-114317177D01*
X149682823Y-114823489D01*
X150278182Y-115221295D01*
X150564761Y-115340000D01*
X95435239Y-115340000D01*
X95721818Y-115221295D01*
X96317177Y-114823489D01*
X96823489Y-114317177D01*
X97221295Y-113721818D01*
X97495309Y-113060290D01*
X97635000Y-112358016D01*
X97635000Y-111819268D01*
X98465000Y-111819268D01*
X98465000Y-112180732D01*
X98535518Y-112535250D01*
X98673844Y-112869199D01*
X98874662Y-113169744D01*
X99130256Y-113425338D01*
X99430801Y-113626156D01*
X99764750Y-113764482D01*
X100119268Y-113835000D01*
X100480732Y-113835000D01*
X100835250Y-113764482D01*
X101169199Y-113626156D01*
X101469744Y-113425338D01*
X101725338Y-113169744D01*
X101926156Y-112869199D01*
X102064482Y-112535250D01*
X102135000Y-112180732D01*
X102135000Y-111819268D01*
X103165000Y-111819268D01*
X103165000Y-112180732D01*
X103235518Y-112535250D01*
X103373844Y-112869199D01*
X103574662Y-113169744D01*
X103830256Y-113425338D01*
X104130801Y-113626156D01*
X104464750Y-113764482D01*
X104819268Y-113835000D01*
X105180732Y-113835000D01*
X105535250Y-113764482D01*
X105869199Y-113626156D01*
X106169744Y-113425338D01*
X106425338Y-113169744D01*
X106626156Y-112869199D01*
X106764482Y-112535250D01*
X106835000Y-112180732D01*
X106835000Y-111819268D01*
X106764482Y-111464750D01*
X106626156Y-111130801D01*
X106622842Y-111125841D01*
X106948683Y-110800000D01*
X107861928Y-110800000D01*
X107861928Y-113200000D01*
X107874188Y-113324482D01*
X107910498Y-113444180D01*
X107969463Y-113554494D01*
X108048815Y-113651185D01*
X108145506Y-113730537D01*
X108255820Y-113789502D01*
X108375518Y-113825812D01*
X108500000Y-113838072D01*
X110900000Y-113838072D01*
X111024482Y-113825812D01*
X111144180Y-113789502D01*
X111254494Y-113730537D01*
X111351185Y-113651185D01*
X111430537Y-113554494D01*
X111489502Y-113444180D01*
X111525812Y-113324482D01*
X111538072Y-113200000D01*
X111538072Y-112858665D01*
X137565000Y-112858665D01*
X137565000Y-113141335D01*
X137620147Y-113418574D01*
X137728320Y-113679727D01*
X137885363Y-113914759D01*
X138085241Y-114114637D01*
X138320273Y-114271680D01*
X138581426Y-114379853D01*
X138858665Y-114435000D01*
X139141335Y-114435000D01*
X139418574Y-114379853D01*
X139679727Y-114271680D01*
X139914759Y-114114637D01*
X140114637Y-113914759D01*
X140271680Y-113679727D01*
X140379853Y-113418574D01*
X140435000Y-113141335D01*
X140435000Y-112858665D01*
X145185000Y-112858665D01*
X145185000Y-113141335D01*
X145240147Y-113418574D01*
X145348320Y-113679727D01*
X145505363Y-113914759D01*
X145705241Y-114114637D01*
X145940273Y-114271680D01*
X146201426Y-114379853D01*
X146478665Y-114435000D01*
X146761335Y-114435000D01*
X147038574Y-114379853D01*
X147299727Y-114271680D01*
X147534759Y-114114637D01*
X147734637Y-113914759D01*
X147891680Y-113679727D01*
X147999853Y-113418574D01*
X148055000Y-113141335D01*
X148055000Y-112858665D01*
X147999853Y-112581426D01*
X147891680Y-112320273D01*
X147734637Y-112085241D01*
X147534759Y-111885363D01*
X147299727Y-111728320D01*
X147038574Y-111620147D01*
X146761335Y-111565000D01*
X146478665Y-111565000D01*
X146201426Y-111620147D01*
X145940273Y-111728320D01*
X145705241Y-111885363D01*
X145505363Y-112085241D01*
X145348320Y-112320273D01*
X145240147Y-112581426D01*
X145185000Y-112858665D01*
X140435000Y-112858665D01*
X140379853Y-112581426D01*
X140271680Y-112320273D01*
X140114637Y-112085241D01*
X139914759Y-111885363D01*
X139679727Y-111728320D01*
X139418574Y-111620147D01*
X139141335Y-111565000D01*
X138858665Y-111565000D01*
X138581426Y-111620147D01*
X138320273Y-111728320D01*
X138085241Y-111885363D01*
X137885363Y-112085241D01*
X137728320Y-112320273D01*
X137620147Y-112581426D01*
X137565000Y-112858665D01*
X111538072Y-112858665D01*
X111538072Y-110800000D01*
X111525812Y-110675518D01*
X111489502Y-110555820D01*
X111430537Y-110445506D01*
X111351185Y-110348815D01*
X111254494Y-110269463D01*
X111144180Y-110210498D01*
X111024482Y-110174188D01*
X110900000Y-110161928D01*
X108500000Y-110161928D01*
X108375518Y-110174188D01*
X108255820Y-110210498D01*
X108145506Y-110269463D01*
X108048815Y-110348815D01*
X107969463Y-110445506D01*
X107910498Y-110555820D01*
X107874188Y-110675518D01*
X107861928Y-110800000D01*
X106948683Y-110800000D01*
X108890018Y-108858665D01*
X112945000Y-108858665D01*
X112945000Y-109141335D01*
X113000147Y-109418574D01*
X113108320Y-109679727D01*
X113265363Y-109914759D01*
X113465241Y-110114637D01*
X113700273Y-110271680D01*
X113961426Y-110379853D01*
X114238665Y-110435000D01*
X114521335Y-110435000D01*
X114798574Y-110379853D01*
X115059727Y-110271680D01*
X115294759Y-110114637D01*
X115494637Y-109914759D01*
X115651680Y-109679727D01*
X115759853Y-109418574D01*
X115815000Y-109141335D01*
X115815000Y-108858665D01*
X120565000Y-108858665D01*
X120565000Y-109141335D01*
X120620147Y-109418574D01*
X120728320Y-109679727D01*
X120885363Y-109914759D01*
X121085241Y-110114637D01*
X121320273Y-110271680D01*
X121581426Y-110379853D01*
X121858665Y-110435000D01*
X122141335Y-110435000D01*
X122418574Y-110379853D01*
X122679727Y-110271680D01*
X122914759Y-110114637D01*
X123114637Y-109914759D01*
X123271680Y-109679727D01*
X123379853Y-109418574D01*
X123435000Y-109141335D01*
X123435000Y-108858665D01*
X123379853Y-108581426D01*
X123271680Y-108320273D01*
X123114637Y-108085241D01*
X122914759Y-107885363D01*
X122679727Y-107728320D01*
X122418574Y-107620147D01*
X122141335Y-107565000D01*
X121858665Y-107565000D01*
X121581426Y-107620147D01*
X121320273Y-107728320D01*
X121085241Y-107885363D01*
X120885363Y-108085241D01*
X120728320Y-108320273D01*
X120620147Y-108581426D01*
X120565000Y-108858665D01*
X115815000Y-108858665D01*
X115759853Y-108581426D01*
X115651680Y-108320273D01*
X115494637Y-108085241D01*
X115294759Y-107885363D01*
X115059727Y-107728320D01*
X114798574Y-107620147D01*
X114521335Y-107565000D01*
X114238665Y-107565000D01*
X113961426Y-107620147D01*
X113700273Y-107728320D01*
X113465241Y-107885363D01*
X113265363Y-108085241D01*
X113108320Y-108320273D01*
X113000147Y-108581426D01*
X112945000Y-108858665D01*
X108890018Y-108858665D01*
X110390018Y-107358665D01*
X125565000Y-107358665D01*
X125565000Y-107641335D01*
X125620147Y-107918574D01*
X125728320Y-108179727D01*
X125885363Y-108414759D01*
X126085241Y-108614637D01*
X126320273Y-108771680D01*
X126581426Y-108879853D01*
X126858665Y-108935000D01*
X127141335Y-108935000D01*
X127418574Y-108879853D01*
X127679727Y-108771680D01*
X127914759Y-108614637D01*
X128114637Y-108414759D01*
X128271680Y-108179727D01*
X128379853Y-107918574D01*
X128435000Y-107641335D01*
X128435000Y-107358665D01*
X133185000Y-107358665D01*
X133185000Y-107641335D01*
X133240147Y-107918574D01*
X133348320Y-108179727D01*
X133505363Y-108414759D01*
X133705241Y-108614637D01*
X133940273Y-108771680D01*
X134201426Y-108879853D01*
X134478665Y-108935000D01*
X134761335Y-108935000D01*
X135038574Y-108879853D01*
X135299727Y-108771680D01*
X135534759Y-108614637D01*
X135734637Y-108414759D01*
X135891680Y-108179727D01*
X135999853Y-107918574D01*
X136055000Y-107641335D01*
X136055000Y-107358665D01*
X137565000Y-107358665D01*
X137565000Y-107641335D01*
X137620147Y-107918574D01*
X137728320Y-108179727D01*
X137885363Y-108414759D01*
X138085241Y-108614637D01*
X138320273Y-108771680D01*
X138581426Y-108879853D01*
X138858665Y-108935000D01*
X139141335Y-108935000D01*
X139418574Y-108879853D01*
X139679727Y-108771680D01*
X139914759Y-108614637D01*
X140114637Y-108414759D01*
X140271680Y-108179727D01*
X140379853Y-107918574D01*
X140435000Y-107641335D01*
X140435000Y-107358665D01*
X145185000Y-107358665D01*
X145185000Y-107641335D01*
X145240147Y-107918574D01*
X145348320Y-108179727D01*
X145505363Y-108414759D01*
X145705241Y-108614637D01*
X145940273Y-108771680D01*
X146201426Y-108879853D01*
X146478665Y-108935000D01*
X146761335Y-108935000D01*
X147038574Y-108879853D01*
X147299727Y-108771680D01*
X147534759Y-108614637D01*
X147734637Y-108414759D01*
X147891680Y-108179727D01*
X147999853Y-107918574D01*
X148055000Y-107641335D01*
X148055000Y-107390600D01*
X168787228Y-107390600D01*
X168799488Y-107515082D01*
X168835798Y-107634780D01*
X168894763Y-107745094D01*
X168974115Y-107841785D01*
X169070806Y-107921137D01*
X169181120Y-107980102D01*
X169300818Y-108016412D01*
X169425300Y-108028672D01*
X170639550Y-108025600D01*
X170798300Y-107866850D01*
X170798300Y-106017600D01*
X171052300Y-106017600D01*
X171052300Y-107866850D01*
X171211050Y-108025600D01*
X172425300Y-108028672D01*
X172549782Y-108016412D01*
X172669480Y-107980102D01*
X172779794Y-107921137D01*
X172876485Y-107841785D01*
X172955837Y-107745094D01*
X173014802Y-107634780D01*
X173051112Y-107515082D01*
X173063372Y-107390600D01*
X173060300Y-106176350D01*
X172901550Y-106017600D01*
X171052300Y-106017600D01*
X170798300Y-106017600D01*
X168949050Y-106017600D01*
X168790300Y-106176350D01*
X168787228Y-107390600D01*
X148055000Y-107390600D01*
X148055000Y-107358665D01*
X147999853Y-107081426D01*
X147891680Y-106820273D01*
X147734637Y-106585241D01*
X147534759Y-106385363D01*
X147299727Y-106228320D01*
X147038574Y-106120147D01*
X146761335Y-106065000D01*
X146478665Y-106065000D01*
X146201426Y-106120147D01*
X145940273Y-106228320D01*
X145705241Y-106385363D01*
X145505363Y-106585241D01*
X145348320Y-106820273D01*
X145240147Y-107081426D01*
X145185000Y-107358665D01*
X140435000Y-107358665D01*
X140379853Y-107081426D01*
X140271680Y-106820273D01*
X140114637Y-106585241D01*
X139914759Y-106385363D01*
X139679727Y-106228320D01*
X139418574Y-106120147D01*
X139141335Y-106065000D01*
X138858665Y-106065000D01*
X138581426Y-106120147D01*
X138320273Y-106228320D01*
X138085241Y-106385363D01*
X137885363Y-106585241D01*
X137728320Y-106820273D01*
X137620147Y-107081426D01*
X137565000Y-107358665D01*
X136055000Y-107358665D01*
X135999853Y-107081426D01*
X135891680Y-106820273D01*
X135734637Y-106585241D01*
X135534759Y-106385363D01*
X135299727Y-106228320D01*
X135038574Y-106120147D01*
X134761335Y-106065000D01*
X134478665Y-106065000D01*
X134201426Y-106120147D01*
X133940273Y-106228320D01*
X133705241Y-106385363D01*
X133505363Y-106585241D01*
X133348320Y-106820273D01*
X133240147Y-107081426D01*
X133185000Y-107358665D01*
X128435000Y-107358665D01*
X128379853Y-107081426D01*
X128271680Y-106820273D01*
X128114637Y-106585241D01*
X127914759Y-106385363D01*
X127679727Y-106228320D01*
X127418574Y-106120147D01*
X127141335Y-106065000D01*
X126858665Y-106065000D01*
X126581426Y-106120147D01*
X126320273Y-106228320D01*
X126085241Y-106385363D01*
X125885363Y-106585241D01*
X125728320Y-106820273D01*
X125620147Y-107081426D01*
X125565000Y-107358665D01*
X110390018Y-107358665D01*
X113096791Y-104651893D01*
X113108320Y-104679727D01*
X113265363Y-104914759D01*
X113465241Y-105114637D01*
X113700273Y-105271680D01*
X113961426Y-105379853D01*
X114238665Y-105435000D01*
X114521335Y-105435000D01*
X114798574Y-105379853D01*
X115059727Y-105271680D01*
X115294759Y-105114637D01*
X115494637Y-104914759D01*
X115651680Y-104679727D01*
X115759853Y-104418574D01*
X115815000Y-104141335D01*
X115815000Y-103858665D01*
X120565000Y-103858665D01*
X120565000Y-104141335D01*
X120620147Y-104418574D01*
X120728320Y-104679727D01*
X120885363Y-104914759D01*
X121085241Y-105114637D01*
X121320273Y-105271680D01*
X121581426Y-105379853D01*
X121858665Y-105435000D01*
X122141335Y-105435000D01*
X122418574Y-105379853D01*
X122679727Y-105271680D01*
X122914759Y-105114637D01*
X123114637Y-104914759D01*
X123271680Y-104679727D01*
X123379853Y-104418574D01*
X123435000Y-104141335D01*
X123435000Y-104000000D01*
X155369428Y-104000000D01*
X155369428Y-106000000D01*
X155381688Y-106124482D01*
X155417998Y-106244180D01*
X155476963Y-106354494D01*
X155556315Y-106451185D01*
X155653006Y-106530537D01*
X155763320Y-106589502D01*
X155883018Y-106625812D01*
X156007500Y-106638072D01*
X157912500Y-106638072D01*
X158036982Y-106625812D01*
X158156680Y-106589502D01*
X158266994Y-106530537D01*
X158363685Y-106451185D01*
X158443037Y-106354494D01*
X158487905Y-106270553D01*
X158613766Y-106373845D01*
X158889552Y-106521255D01*
X159188797Y-106612030D01*
X159500000Y-106642681D01*
X159811204Y-106612030D01*
X160110449Y-106521255D01*
X160386235Y-106373845D01*
X160627963Y-106175463D01*
X160775162Y-105996100D01*
X160930563Y-106181315D01*
X161173077Y-106375969D01*
X161448906Y-106519571D01*
X161667020Y-106590563D01*
X161913000Y-106470594D01*
X161913000Y-105127000D01*
X162167000Y-105127000D01*
X162167000Y-106470594D01*
X162412980Y-106590563D01*
X162631094Y-106519571D01*
X162906923Y-106375969D01*
X163149437Y-106181315D01*
X163349316Y-105943089D01*
X163498879Y-105670446D01*
X163592378Y-105373863D01*
X163465570Y-105127000D01*
X162167000Y-105127000D01*
X161913000Y-105127000D01*
X161893000Y-105127000D01*
X161893000Y-104873000D01*
X161913000Y-104873000D01*
X161913000Y-103529406D01*
X162167000Y-103529406D01*
X162167000Y-104873000D01*
X163465570Y-104873000D01*
X163592378Y-104626137D01*
X163518125Y-104390600D01*
X168787228Y-104390600D01*
X168790300Y-105604850D01*
X168949050Y-105763600D01*
X170798300Y-105763600D01*
X170798300Y-103914350D01*
X171052300Y-103914350D01*
X171052300Y-105763600D01*
X172901550Y-105763600D01*
X173060300Y-105604850D01*
X173063372Y-104390600D01*
X173051112Y-104266118D01*
X173014802Y-104146420D01*
X172955837Y-104036106D01*
X172876485Y-103939415D01*
X172779794Y-103860063D01*
X172669480Y-103801098D01*
X172549782Y-103764788D01*
X172425300Y-103752528D01*
X171211050Y-103755600D01*
X171052300Y-103914350D01*
X170798300Y-103914350D01*
X170639550Y-103755600D01*
X169425300Y-103752528D01*
X169300818Y-103764788D01*
X169181120Y-103801098D01*
X169070806Y-103860063D01*
X168974115Y-103939415D01*
X168894763Y-104036106D01*
X168835798Y-104146420D01*
X168799488Y-104266118D01*
X168787228Y-104390600D01*
X163518125Y-104390600D01*
X163498879Y-104329554D01*
X163349316Y-104056911D01*
X163149437Y-103818685D01*
X162906923Y-103624031D01*
X162631094Y-103480429D01*
X162412980Y-103409437D01*
X162167000Y-103529406D01*
X161913000Y-103529406D01*
X161667020Y-103409437D01*
X161448906Y-103480429D01*
X161173077Y-103624031D01*
X160930563Y-103818685D01*
X160775163Y-104003899D01*
X160627963Y-103824537D01*
X160386234Y-103626155D01*
X160110448Y-103478745D01*
X159811203Y-103387970D01*
X159500000Y-103357319D01*
X159188796Y-103387970D01*
X158889551Y-103478745D01*
X158613765Y-103626155D01*
X158487905Y-103729446D01*
X158443037Y-103645506D01*
X158363685Y-103548815D01*
X158266994Y-103469463D01*
X158156680Y-103410498D01*
X158036982Y-103374188D01*
X157912500Y-103361928D01*
X156007500Y-103361928D01*
X155883018Y-103374188D01*
X155763320Y-103410498D01*
X155653006Y-103469463D01*
X155556315Y-103548815D01*
X155476963Y-103645506D01*
X155417998Y-103755820D01*
X155381688Y-103875518D01*
X155369428Y-104000000D01*
X123435000Y-104000000D01*
X123435000Y-103858665D01*
X123379853Y-103581426D01*
X123271680Y-103320273D01*
X123114637Y-103085241D01*
X122914759Y-102885363D01*
X122679727Y-102728320D01*
X122418574Y-102620147D01*
X122141335Y-102565000D01*
X121858665Y-102565000D01*
X121581426Y-102620147D01*
X121320273Y-102728320D01*
X121085241Y-102885363D01*
X120885363Y-103085241D01*
X120728320Y-103320273D01*
X120620147Y-103581426D01*
X120565000Y-103858665D01*
X115815000Y-103858665D01*
X115759853Y-103581426D01*
X115651680Y-103320273D01*
X115494637Y-103085241D01*
X115294759Y-102885363D01*
X115059727Y-102728320D01*
X115031893Y-102716791D01*
X117053083Y-100695601D01*
X131779264Y-100695601D01*
X131700273Y-100728320D01*
X131465241Y-100885363D01*
X131265363Y-101085241D01*
X131108320Y-101320273D01*
X131000147Y-101581426D01*
X130945000Y-101858665D01*
X130945000Y-102141335D01*
X131000147Y-102418574D01*
X131108320Y-102679727D01*
X131265363Y-102914759D01*
X131465241Y-103114637D01*
X131700273Y-103271680D01*
X131961426Y-103379853D01*
X132238665Y-103435000D01*
X132521335Y-103435000D01*
X132798574Y-103379853D01*
X133059727Y-103271680D01*
X133294759Y-103114637D01*
X133494637Y-102914759D01*
X133651680Y-102679727D01*
X133759853Y-102418574D01*
X133815000Y-102141335D01*
X133815000Y-101858665D01*
X133759853Y-101581426D01*
X133651680Y-101320273D01*
X133494637Y-101085241D01*
X133294759Y-100885363D01*
X133059727Y-100728320D01*
X132980736Y-100695601D01*
X139399264Y-100695601D01*
X139320273Y-100728320D01*
X139085241Y-100885363D01*
X138885363Y-101085241D01*
X138728320Y-101320273D01*
X138620147Y-101581426D01*
X138565000Y-101858665D01*
X138565000Y-102141335D01*
X138620147Y-102418574D01*
X138728320Y-102679727D01*
X138885363Y-102914759D01*
X139085241Y-103114637D01*
X139320273Y-103271680D01*
X139581426Y-103379853D01*
X139858665Y-103435000D01*
X140141335Y-103435000D01*
X140418574Y-103379853D01*
X140679727Y-103271680D01*
X140914759Y-103114637D01*
X141114637Y-102914759D01*
X141271680Y-102679727D01*
X141379853Y-102418574D01*
X141435000Y-102141335D01*
X141435000Y-101858665D01*
X141379853Y-101581426D01*
X141271680Y-101320273D01*
X141114637Y-101085241D01*
X140914759Y-100885363D01*
X140679727Y-100728320D01*
X140600736Y-100695601D01*
X143399264Y-100695601D01*
X143320273Y-100728320D01*
X143085241Y-100885363D01*
X142885363Y-101085241D01*
X142728320Y-101320273D01*
X142620147Y-101581426D01*
X142565000Y-101858665D01*
X142565000Y-102141335D01*
X142620147Y-102418574D01*
X142728320Y-102679727D01*
X142885363Y-102914759D01*
X143085241Y-103114637D01*
X143320273Y-103271680D01*
X143581426Y-103379853D01*
X143858665Y-103435000D01*
X144141335Y-103435000D01*
X144418574Y-103379853D01*
X144679727Y-103271680D01*
X144914759Y-103114637D01*
X145114637Y-102914759D01*
X145271680Y-102679727D01*
X145379853Y-102418574D01*
X145435000Y-102141335D01*
X145435000Y-101858665D01*
X145379853Y-101581426D01*
X145271680Y-101320273D01*
X145114637Y-101085241D01*
X144914759Y-100885363D01*
X144679727Y-100728320D01*
X144600736Y-100695601D01*
X151019264Y-100695601D01*
X150940273Y-100728320D01*
X150705241Y-100885363D01*
X150505363Y-101085241D01*
X150348320Y-101320273D01*
X150240147Y-101581426D01*
X150185000Y-101858665D01*
X150185000Y-102141335D01*
X150240147Y-102418574D01*
X150348320Y-102679727D01*
X150505363Y-102914759D01*
X150705241Y-103114637D01*
X150940273Y-103271680D01*
X151201426Y-103379853D01*
X151478665Y-103435000D01*
X151761335Y-103435000D01*
X152038574Y-103379853D01*
X152299727Y-103271680D01*
X152534759Y-103114637D01*
X152734637Y-102914759D01*
X152891680Y-102679727D01*
X152999853Y-102418574D01*
X153055000Y-102141335D01*
X153055000Y-101858665D01*
X152999853Y-101581426D01*
X152891680Y-101320273D01*
X152734637Y-101085241D01*
X152534759Y-100885363D01*
X152299727Y-100728320D01*
X152220736Y-100695601D01*
X168790300Y-100695601D01*
X168790300Y-101020879D01*
X168872347Y-101433356D01*
X169033288Y-101821902D01*
X169266937Y-102171583D01*
X169564317Y-102468963D01*
X169913998Y-102702612D01*
X170302544Y-102863553D01*
X170715021Y-102945600D01*
X171135579Y-102945600D01*
X171548056Y-102863553D01*
X171936602Y-102702612D01*
X172286283Y-102468963D01*
X172583663Y-102171583D01*
X172817312Y-101821902D01*
X172978253Y-101433356D01*
X173060300Y-101020879D01*
X173060300Y-100600321D01*
X172978253Y-100187844D01*
X172817312Y-99799298D01*
X172583663Y-99449617D01*
X172286283Y-99152237D01*
X171936602Y-98918588D01*
X171548056Y-98757647D01*
X171135579Y-98675600D01*
X170748985Y-98675600D01*
X170452755Y-98379370D01*
X170409382Y-98326520D01*
X170198489Y-98153444D01*
X169957882Y-98024837D01*
X169696808Y-97945641D01*
X169493338Y-97925601D01*
X169493330Y-97925601D01*
X169425301Y-97918901D01*
X169357272Y-97925601D01*
X162811590Y-97925601D01*
X162906923Y-97875969D01*
X163149437Y-97681315D01*
X163349316Y-97443089D01*
X163498879Y-97170446D01*
X163592378Y-96873863D01*
X163465570Y-96627000D01*
X162167000Y-96627000D01*
X162167000Y-96647000D01*
X161913000Y-96647000D01*
X161913000Y-96627000D01*
X161893000Y-96627000D01*
X161893000Y-96373000D01*
X161913000Y-96373000D01*
X161913000Y-95029406D01*
X162167000Y-95029406D01*
X162167000Y-96373000D01*
X163465570Y-96373000D01*
X163592378Y-96126137D01*
X163498879Y-95829554D01*
X163349316Y-95556911D01*
X163149437Y-95318685D01*
X162906923Y-95124031D01*
X162631094Y-94980429D01*
X162412980Y-94909437D01*
X162167000Y-95029406D01*
X161913000Y-95029406D01*
X161667020Y-94909437D01*
X161448906Y-94980429D01*
X161173077Y-95124031D01*
X160930563Y-95318685D01*
X160775163Y-95503899D01*
X160627963Y-95324537D01*
X160386234Y-95126155D01*
X160110448Y-94978745D01*
X159811203Y-94887970D01*
X159500000Y-94857319D01*
X159188796Y-94887970D01*
X158889551Y-94978745D01*
X158613765Y-95126155D01*
X158487905Y-95229446D01*
X158443037Y-95145506D01*
X158363685Y-95048815D01*
X158266994Y-94969463D01*
X158156680Y-94910498D01*
X158036982Y-94874188D01*
X157912500Y-94861928D01*
X156007500Y-94861928D01*
X155883018Y-94874188D01*
X155763320Y-94910498D01*
X155653006Y-94969463D01*
X155556315Y-95048815D01*
X155476963Y-95145506D01*
X155417998Y-95255820D01*
X155381688Y-95375518D01*
X155369428Y-95500000D01*
X155369428Y-97500000D01*
X155381688Y-97624482D01*
X155417998Y-97744180D01*
X155476963Y-97854494D01*
X155535319Y-97925601D01*
X116547426Y-97925601D01*
X116479397Y-97918901D01*
X116411368Y-97925601D01*
X116411360Y-97925601D01*
X116231289Y-97943336D01*
X116207889Y-97945641D01*
X115964176Y-98019571D01*
X115946816Y-98024837D01*
X115706209Y-98153444D01*
X115596505Y-98243476D01*
X115548163Y-98283149D01*
X115548161Y-98283151D01*
X115495316Y-98326520D01*
X115451947Y-98379365D01*
X109341787Y-104489526D01*
X109271680Y-104320273D01*
X109114637Y-104085241D01*
X108914759Y-103885363D01*
X108679727Y-103728320D01*
X108418574Y-103620147D01*
X108141335Y-103565000D01*
X107858665Y-103565000D01*
X107581426Y-103620147D01*
X107320273Y-103728320D01*
X107085241Y-103885363D01*
X106885363Y-104085241D01*
X106728320Y-104320273D01*
X106620147Y-104581426D01*
X106565000Y-104858665D01*
X106565000Y-105141335D01*
X106620147Y-105418574D01*
X106728320Y-105679727D01*
X106885363Y-105914759D01*
X107085241Y-106114637D01*
X107320273Y-106271680D01*
X107489526Y-106341787D01*
X104068765Y-109762548D01*
X104015919Y-109805918D01*
X103842843Y-110016811D01*
X103758723Y-110174188D01*
X103714236Y-110257418D01*
X103678919Y-110373844D01*
X103635040Y-110518492D01*
X103615000Y-110721962D01*
X103615000Y-110721969D01*
X103608300Y-110789998D01*
X103608894Y-110796024D01*
X103574662Y-110830256D01*
X103373844Y-111130801D01*
X103235518Y-111464750D01*
X103165000Y-111819268D01*
X102135000Y-111819268D01*
X102064482Y-111464750D01*
X101926156Y-111130801D01*
X101725338Y-110830256D01*
X101469744Y-110574662D01*
X101169199Y-110373844D01*
X100835250Y-110235518D01*
X100480732Y-110165000D01*
X100119268Y-110165000D01*
X99764750Y-110235518D01*
X99430801Y-110373844D01*
X99130256Y-110574662D01*
X98874662Y-110830256D01*
X98673844Y-111130801D01*
X98535518Y-111464750D01*
X98465000Y-111819268D01*
X97635000Y-111819268D01*
X97635000Y-111641984D01*
X97495309Y-110939710D01*
X97221295Y-110278182D01*
X96823489Y-109682823D01*
X96317177Y-109176511D01*
X95721818Y-108778705D01*
X95060290Y-108504691D01*
X94358016Y-108365000D01*
X93641984Y-108365000D01*
X92939710Y-108504691D01*
X92278182Y-108778705D01*
X91682823Y-109176511D01*
X91176511Y-109682823D01*
X90778705Y-110278182D01*
X90660000Y-110564761D01*
X90660000Y-106292702D01*
X93186903Y-106292702D01*
X93258486Y-106536671D01*
X93513996Y-106657571D01*
X93788184Y-106726300D01*
X94070512Y-106740217D01*
X94350130Y-106698787D01*
X94616292Y-106603603D01*
X94741514Y-106536671D01*
X94813097Y-106292702D01*
X94000000Y-105479605D01*
X93186903Y-106292702D01*
X90660000Y-106292702D01*
X90660000Y-105370512D01*
X92559783Y-105370512D01*
X92601213Y-105650130D01*
X92696397Y-105916292D01*
X92763329Y-106041514D01*
X93007298Y-106113097D01*
X93820395Y-105300000D01*
X93806253Y-105285858D01*
X93985858Y-105106253D01*
X94000000Y-105120395D01*
X94014143Y-105106253D01*
X94193748Y-105285858D01*
X94179605Y-105300000D01*
X94992702Y-106113097D01*
X95236671Y-106041514D01*
X95357571Y-105786004D01*
X95426300Y-105511816D01*
X95440217Y-105229488D01*
X95398787Y-104949870D01*
X95366171Y-104858665D01*
X98945000Y-104858665D01*
X98945000Y-105141335D01*
X99000147Y-105418574D01*
X99108320Y-105679727D01*
X99265363Y-105914759D01*
X99465241Y-106114637D01*
X99700273Y-106271680D01*
X99961426Y-106379853D01*
X100238665Y-106435000D01*
X100521335Y-106435000D01*
X100798574Y-106379853D01*
X101059727Y-106271680D01*
X101294759Y-106114637D01*
X101494637Y-105914759D01*
X101651680Y-105679727D01*
X101759853Y-105418574D01*
X101815000Y-105141335D01*
X101815000Y-104858665D01*
X101759853Y-104581426D01*
X101651680Y-104320273D01*
X101494637Y-104085241D01*
X101294759Y-103885363D01*
X101059727Y-103728320D01*
X100798574Y-103620147D01*
X100521335Y-103565000D01*
X100238665Y-103565000D01*
X99961426Y-103620147D01*
X99700273Y-103728320D01*
X99465241Y-103885363D01*
X99265363Y-104085241D01*
X99108320Y-104320273D01*
X99000147Y-104581426D01*
X98945000Y-104858665D01*
X95366171Y-104858665D01*
X95303603Y-104683708D01*
X95238384Y-104561691D01*
X95251185Y-104551185D01*
X95330537Y-104454494D01*
X95389502Y-104344180D01*
X95425812Y-104224482D01*
X95438072Y-104100000D01*
X95438072Y-102500000D01*
X95425812Y-102375518D01*
X95389502Y-102255820D01*
X95330537Y-102145506D01*
X95251185Y-102048815D01*
X95154494Y-101969463D01*
X95044180Y-101910498D01*
X94924482Y-101874188D01*
X94800000Y-101861928D01*
X93200000Y-101861928D01*
X93075518Y-101874188D01*
X92955820Y-101910498D01*
X92845506Y-101969463D01*
X92748815Y-102048815D01*
X92669463Y-102145506D01*
X92610498Y-102255820D01*
X92574188Y-102375518D01*
X92561928Y-102500000D01*
X92561928Y-104100000D01*
X92574188Y-104224482D01*
X92610498Y-104344180D01*
X92669463Y-104454494D01*
X92748815Y-104551185D01*
X92761758Y-104561807D01*
X92642429Y-104813996D01*
X92573700Y-105088184D01*
X92559783Y-105370512D01*
X90660000Y-105370512D01*
X90660000Y-98080000D01*
X92357319Y-98080000D01*
X92387970Y-98391204D01*
X92478745Y-98690449D01*
X92626155Y-98966235D01*
X92824537Y-99207963D01*
X93066265Y-99406345D01*
X93342051Y-99553755D01*
X93641296Y-99644530D01*
X93874514Y-99667500D01*
X94125486Y-99667500D01*
X94358704Y-99644530D01*
X94657949Y-99553755D01*
X94933735Y-99406345D01*
X95175463Y-99207963D01*
X95373845Y-98966235D01*
X95521255Y-98690449D01*
X95612030Y-98391204D01*
X95642681Y-98080000D01*
X95612030Y-97768796D01*
X95521255Y-97469551D01*
X95373845Y-97193765D01*
X95175463Y-96952037D01*
X94996101Y-96804837D01*
X95181315Y-96649437D01*
X95375969Y-96406923D01*
X95519571Y-96131094D01*
X95590563Y-95912980D01*
X95470594Y-95667000D01*
X94127000Y-95667000D01*
X94127000Y-95687000D01*
X93873000Y-95687000D01*
X93873000Y-95667000D01*
X92529406Y-95667000D01*
X92409437Y-95912980D01*
X92480429Y-96131094D01*
X92624031Y-96406923D01*
X92818685Y-96649437D01*
X93003899Y-96804837D01*
X92824537Y-96952037D01*
X92626155Y-97193765D01*
X92478745Y-97469551D01*
X92387970Y-97768796D01*
X92357319Y-98080000D01*
X90660000Y-98080000D01*
X90660000Y-92047500D01*
X92361928Y-92047500D01*
X92361928Y-93952500D01*
X92374188Y-94076982D01*
X92410498Y-94196680D01*
X92469463Y-94306994D01*
X92548815Y-94403685D01*
X92645506Y-94483037D01*
X92737219Y-94532059D01*
X92624031Y-94673077D01*
X92480429Y-94948906D01*
X92409437Y-95167020D01*
X92529406Y-95413000D01*
X93873000Y-95413000D01*
X93873000Y-95393000D01*
X94127000Y-95393000D01*
X94127000Y-95413000D01*
X95470594Y-95413000D01*
X95523219Y-95305098D01*
X108275000Y-95305098D01*
X108275000Y-95774902D01*
X108366654Y-96235679D01*
X108546440Y-96669721D01*
X108807450Y-97060349D01*
X109139651Y-97392550D01*
X109530279Y-97653560D01*
X109964321Y-97833346D01*
X110425098Y-97925000D01*
X110894902Y-97925000D01*
X111355679Y-97833346D01*
X111789721Y-97653560D01*
X112180349Y-97392550D01*
X112512550Y-97060349D01*
X112773560Y-96669721D01*
X112953346Y-96235679D01*
X113045000Y-95774902D01*
X113045000Y-95305098D01*
X112953346Y-94844321D01*
X112773560Y-94410279D01*
X112666465Y-94250000D01*
X115796928Y-94250000D01*
X115809188Y-94374482D01*
X115845498Y-94494180D01*
X115904463Y-94604494D01*
X115983815Y-94701185D01*
X116080506Y-94780537D01*
X116190820Y-94839502D01*
X116310518Y-94875812D01*
X116435000Y-94888072D01*
X116674250Y-94885000D01*
X116833000Y-94726250D01*
X116833000Y-93627000D01*
X115958750Y-93627000D01*
X115800000Y-93785750D01*
X115796928Y-94250000D01*
X112666465Y-94250000D01*
X112512550Y-94019651D01*
X112180349Y-93687450D01*
X111789721Y-93426440D01*
X111355679Y-93246654D01*
X110894902Y-93155000D01*
X110425098Y-93155000D01*
X109964321Y-93246654D01*
X109530279Y-93426440D01*
X109139651Y-93687450D01*
X108807450Y-94019651D01*
X108546440Y-94410279D01*
X108366654Y-94844321D01*
X108275000Y-95305098D01*
X95523219Y-95305098D01*
X95590563Y-95167020D01*
X95519571Y-94948906D01*
X95375969Y-94673077D01*
X95262781Y-94532059D01*
X95354494Y-94483037D01*
X95451185Y-94403685D01*
X95530537Y-94306994D01*
X95589502Y-94196680D01*
X95625812Y-94076982D01*
X95638072Y-93952500D01*
X95638072Y-92750000D01*
X115796928Y-92750000D01*
X115800000Y-93214250D01*
X115958750Y-93373000D01*
X116833000Y-93373000D01*
X116833000Y-92273750D01*
X116674250Y-92115000D01*
X116435000Y-92111928D01*
X116310518Y-92124188D01*
X116190820Y-92160498D01*
X116080506Y-92219463D01*
X115983815Y-92298815D01*
X115904463Y-92395506D01*
X115845498Y-92505820D01*
X115809188Y-92625518D01*
X115796928Y-92750000D01*
X95638072Y-92750000D01*
X95638072Y-92047500D01*
X95625812Y-91923018D01*
X95589502Y-91803320D01*
X95530537Y-91693006D01*
X95451185Y-91596315D01*
X95354494Y-91516963D01*
X95244180Y-91457998D01*
X95124482Y-91421688D01*
X95000000Y-91409428D01*
X93000000Y-91409428D01*
X92875518Y-91421688D01*
X92755820Y-91457998D01*
X92645506Y-91516963D01*
X92548815Y-91596315D01*
X92469463Y-91693006D01*
X92410498Y-91803320D01*
X92374188Y-91923018D01*
X92361928Y-92047500D01*
X90660000Y-92047500D01*
X90660000Y-86600000D01*
X92561928Y-86600000D01*
X92574188Y-86724482D01*
X92610498Y-86844180D01*
X92669463Y-86954494D01*
X92748815Y-87051185D01*
X92765393Y-87064790D01*
X92728320Y-87120273D01*
X92620147Y-87381426D01*
X92565000Y-87658665D01*
X92565000Y-87941335D01*
X92620147Y-88218574D01*
X92728320Y-88479727D01*
X92885363Y-88714759D01*
X93085241Y-88914637D01*
X93320273Y-89071680D01*
X93581426Y-89179853D01*
X93858665Y-89235000D01*
X94141335Y-89235000D01*
X94418574Y-89179853D01*
X94679727Y-89071680D01*
X94914759Y-88914637D01*
X95114637Y-88714759D01*
X95271680Y-88479727D01*
X95379853Y-88218574D01*
X95435000Y-87941335D01*
X95435000Y-87658665D01*
X95379853Y-87381426D01*
X95330555Y-87262408D01*
X104043000Y-87262408D01*
X104043000Y-87537592D01*
X104096686Y-87807490D01*
X104201995Y-88061727D01*
X104354880Y-88290535D01*
X104549465Y-88485120D01*
X104778273Y-88638005D01*
X105032510Y-88743314D01*
X105302408Y-88797000D01*
X105577592Y-88797000D01*
X105847490Y-88743314D01*
X106101727Y-88638005D01*
X106330535Y-88485120D01*
X106525120Y-88290535D01*
X106583920Y-88202535D01*
X106592188Y-88286482D01*
X106628498Y-88406180D01*
X106687463Y-88516494D01*
X106766815Y-88613185D01*
X106863506Y-88692537D01*
X106973820Y-88751502D01*
X107093518Y-88787812D01*
X107218000Y-88800072D01*
X107694250Y-88797000D01*
X107853000Y-88638250D01*
X107853000Y-87527000D01*
X107833000Y-87527000D01*
X107833000Y-87273000D01*
X107853000Y-87273000D01*
X107853000Y-86161750D01*
X108107000Y-86161750D01*
X108107000Y-87273000D01*
X108127000Y-87273000D01*
X108127000Y-87527000D01*
X108107000Y-87527000D01*
X108107000Y-88638250D01*
X108265750Y-88797000D01*
X108742000Y-88800072D01*
X108866482Y-88787812D01*
X108986180Y-88751502D01*
X109096494Y-88692537D01*
X109193185Y-88613185D01*
X109272537Y-88516494D01*
X109331502Y-88406180D01*
X109367812Y-88286482D01*
X109376080Y-88202535D01*
X109434880Y-88290535D01*
X109629465Y-88485120D01*
X109858273Y-88638005D01*
X110112510Y-88743314D01*
X110382408Y-88797000D01*
X110657592Y-88797000D01*
X110927490Y-88743314D01*
X111181727Y-88638005D01*
X111410535Y-88485120D01*
X111605120Y-88290535D01*
X111758005Y-88061727D01*
X111790000Y-87984485D01*
X111821995Y-88061727D01*
X111974880Y-88290535D01*
X112169465Y-88485120D01*
X112398273Y-88638005D01*
X112652510Y-88743314D01*
X112922408Y-88797000D01*
X113197592Y-88797000D01*
X113467490Y-88743314D01*
X113721727Y-88638005D01*
X113950535Y-88485120D01*
X114145120Y-88290535D01*
X114298005Y-88061727D01*
X114330000Y-87984485D01*
X114361995Y-88061727D01*
X114514880Y-88290535D01*
X114709465Y-88485120D01*
X114938273Y-88638005D01*
X115192510Y-88743314D01*
X115462408Y-88797000D01*
X115737592Y-88797000D01*
X116007490Y-88743314D01*
X116261727Y-88638005D01*
X116490535Y-88485120D01*
X116685120Y-88290535D01*
X116838005Y-88061727D01*
X116870000Y-87984485D01*
X116901995Y-88061727D01*
X117054880Y-88290535D01*
X117249465Y-88485120D01*
X117478273Y-88638005D01*
X117732510Y-88743314D01*
X118002408Y-88797000D01*
X118208199Y-88797000D01*
X117719003Y-89286196D01*
X117689999Y-89309999D01*
X117640759Y-89369999D01*
X117595026Y-89425724D01*
X117543963Y-89521255D01*
X117524454Y-89557754D01*
X117480997Y-89701015D01*
X117470000Y-89812668D01*
X117470000Y-89812678D01*
X117466324Y-89850000D01*
X117470000Y-89887323D01*
X117470001Y-92112121D01*
X117245750Y-92115000D01*
X117087000Y-92273750D01*
X117087000Y-93046892D01*
X117086785Y-93047601D01*
X117070000Y-93218022D01*
X117070000Y-93781979D01*
X117086785Y-93952400D01*
X117087000Y-93953109D01*
X117087000Y-94726250D01*
X117245750Y-94885000D01*
X117485000Y-94888072D01*
X117609482Y-94875812D01*
X117729180Y-94839502D01*
X117793902Y-94804907D01*
X118002601Y-94868215D01*
X118230000Y-94890612D01*
X118457400Y-94868215D01*
X118676060Y-94801885D01*
X118865001Y-94700894D01*
X119053941Y-94801885D01*
X119272601Y-94868215D01*
X119500000Y-94890612D01*
X119727400Y-94868215D01*
X119946060Y-94801885D01*
X120147579Y-94694171D01*
X120324212Y-94549212D01*
X120469171Y-94372579D01*
X120534690Y-94250000D01*
X123296928Y-94250000D01*
X123309188Y-94374482D01*
X123345498Y-94494180D01*
X123404463Y-94604494D01*
X123483815Y-94701185D01*
X123580506Y-94780537D01*
X123690820Y-94839502D01*
X123810518Y-94875812D01*
X123935000Y-94888072D01*
X124174250Y-94885000D01*
X124333000Y-94726250D01*
X124333000Y-93627000D01*
X123458750Y-93627000D01*
X123300000Y-93785750D01*
X123296928Y-94250000D01*
X120534690Y-94250000D01*
X120576885Y-94171059D01*
X120643215Y-93952399D01*
X120660000Y-93781978D01*
X120660000Y-93218021D01*
X120643215Y-93047600D01*
X120576885Y-92828940D01*
X120534691Y-92750000D01*
X123296928Y-92750000D01*
X123300000Y-93214250D01*
X123458750Y-93373000D01*
X124333000Y-93373000D01*
X124333000Y-92273750D01*
X124174250Y-92115000D01*
X123935000Y-92111928D01*
X123810518Y-92124188D01*
X123690820Y-92160498D01*
X123580506Y-92219463D01*
X123483815Y-92298815D01*
X123404463Y-92395506D01*
X123345498Y-92505820D01*
X123309188Y-92625518D01*
X123296928Y-92750000D01*
X120534691Y-92750000D01*
X120469171Y-92627421D01*
X120324212Y-92450788D01*
X120147578Y-92305829D01*
X119946059Y-92198115D01*
X119727399Y-92131785D01*
X119500000Y-92109388D01*
X119272600Y-92131785D01*
X119053940Y-92198115D01*
X118990000Y-92232292D01*
X118990000Y-90164801D01*
X120388430Y-88766372D01*
X120542408Y-88797000D01*
X120817592Y-88797000D01*
X121087490Y-88743314D01*
X121341727Y-88638005D01*
X121570535Y-88485120D01*
X121765120Y-88290535D01*
X121918005Y-88061727D01*
X121950000Y-87984485D01*
X121981995Y-88061727D01*
X122134880Y-88290535D01*
X122329465Y-88485120D01*
X122558273Y-88638005D01*
X122812510Y-88743314D01*
X123082408Y-88797000D01*
X123357592Y-88797000D01*
X123511570Y-88766372D01*
X124970000Y-90224802D01*
X124970001Y-92112121D01*
X124745750Y-92115000D01*
X124587000Y-92273750D01*
X124587000Y-93046892D01*
X124586785Y-93047601D01*
X124570000Y-93218022D01*
X124570000Y-93781979D01*
X124586785Y-93952400D01*
X124587000Y-93953109D01*
X124587000Y-94726250D01*
X124745750Y-94885000D01*
X124985000Y-94888072D01*
X125109482Y-94875812D01*
X125229180Y-94839502D01*
X125293902Y-94804907D01*
X125502601Y-94868215D01*
X125730000Y-94890612D01*
X125957400Y-94868215D01*
X126176060Y-94801885D01*
X126365001Y-94700894D01*
X126553941Y-94801885D01*
X126772601Y-94868215D01*
X127000000Y-94890612D01*
X127227400Y-94868215D01*
X127446060Y-94801885D01*
X127647579Y-94694171D01*
X127824212Y-94549212D01*
X127969171Y-94372579D01*
X128034690Y-94250000D01*
X131336928Y-94250000D01*
X131349188Y-94374482D01*
X131385498Y-94494180D01*
X131444463Y-94604494D01*
X131523815Y-94701185D01*
X131620506Y-94780537D01*
X131730820Y-94839502D01*
X131850518Y-94875812D01*
X131975000Y-94888072D01*
X132214250Y-94885000D01*
X132373000Y-94726250D01*
X132373000Y-93627000D01*
X131498750Y-93627000D01*
X131340000Y-93785750D01*
X131336928Y-94250000D01*
X128034690Y-94250000D01*
X128076885Y-94171059D01*
X128143215Y-93952399D01*
X128160000Y-93781978D01*
X128160000Y-93218021D01*
X128143215Y-93047600D01*
X128076885Y-92828940D01*
X128034691Y-92750000D01*
X131336928Y-92750000D01*
X131340000Y-93214250D01*
X131498750Y-93373000D01*
X132373000Y-93373000D01*
X132373000Y-92273750D01*
X132214250Y-92115000D01*
X131975000Y-92111928D01*
X131850518Y-92124188D01*
X131730820Y-92160498D01*
X131620506Y-92219463D01*
X131523815Y-92298815D01*
X131444463Y-92395506D01*
X131385498Y-92505820D01*
X131349188Y-92625518D01*
X131336928Y-92750000D01*
X128034691Y-92750000D01*
X127969171Y-92627421D01*
X127824212Y-92450788D01*
X127647578Y-92305829D01*
X127446059Y-92198115D01*
X127227399Y-92131785D01*
X127000000Y-92109388D01*
X126772600Y-92131785D01*
X126553940Y-92198115D01*
X126490000Y-92232292D01*
X126490000Y-89947322D01*
X126493676Y-89909999D01*
X126490000Y-89872676D01*
X126490000Y-89872667D01*
X126479003Y-89761014D01*
X126435546Y-89617753D01*
X126432487Y-89612030D01*
X126364974Y-89485723D01*
X126293799Y-89398997D01*
X126270001Y-89369999D01*
X126241004Y-89346202D01*
X125583026Y-88688224D01*
X125633000Y-88638250D01*
X125633000Y-87527000D01*
X125613000Y-87527000D01*
X125613000Y-87273000D01*
X125633000Y-87273000D01*
X125633000Y-86161750D01*
X125887000Y-86161750D01*
X125887000Y-87273000D01*
X125907000Y-87273000D01*
X125907000Y-87527000D01*
X125887000Y-87527000D01*
X125887000Y-88638250D01*
X126045750Y-88797000D01*
X126522000Y-88800072D01*
X126646482Y-88787812D01*
X126766180Y-88751502D01*
X126876494Y-88692537D01*
X126973185Y-88613185D01*
X127052537Y-88516494D01*
X127111502Y-88406180D01*
X127147812Y-88286482D01*
X127156080Y-88202535D01*
X127214880Y-88290535D01*
X127409465Y-88485120D01*
X127638273Y-88638005D01*
X127892510Y-88743314D01*
X128162408Y-88797000D01*
X128437592Y-88797000D01*
X128707490Y-88743314D01*
X128961727Y-88638005D01*
X129190535Y-88485120D01*
X129385120Y-88290535D01*
X129538005Y-88061727D01*
X129570000Y-87984485D01*
X129601995Y-88061727D01*
X129754880Y-88290535D01*
X129949465Y-88485120D01*
X130178273Y-88638005D01*
X130432510Y-88743314D01*
X130702408Y-88797000D01*
X130977592Y-88797000D01*
X131131571Y-88766372D01*
X133010000Y-90644802D01*
X133010001Y-92112121D01*
X132785750Y-92115000D01*
X132627000Y-92273750D01*
X132627000Y-93046892D01*
X132626785Y-93047601D01*
X132610000Y-93218022D01*
X132610000Y-93781979D01*
X132626785Y-93952400D01*
X132627000Y-93953109D01*
X132627000Y-94726250D01*
X132785750Y-94885000D01*
X133025000Y-94888072D01*
X133149482Y-94875812D01*
X133269180Y-94839502D01*
X133333902Y-94804907D01*
X133542601Y-94868215D01*
X133770000Y-94890612D01*
X133997400Y-94868215D01*
X134216060Y-94801885D01*
X134405001Y-94700894D01*
X134593941Y-94801885D01*
X134812601Y-94868215D01*
X135040000Y-94890612D01*
X135267400Y-94868215D01*
X135486060Y-94801885D01*
X135687579Y-94694171D01*
X135864212Y-94549212D01*
X136009171Y-94372579D01*
X136074690Y-94250000D01*
X138836928Y-94250000D01*
X138849188Y-94374482D01*
X138885498Y-94494180D01*
X138944463Y-94604494D01*
X139023815Y-94701185D01*
X139120506Y-94780537D01*
X139230820Y-94839502D01*
X139350518Y-94875812D01*
X139475000Y-94888072D01*
X139714250Y-94885000D01*
X139873000Y-94726250D01*
X139873000Y-93627000D01*
X138998750Y-93627000D01*
X138840000Y-93785750D01*
X138836928Y-94250000D01*
X136074690Y-94250000D01*
X136116885Y-94171059D01*
X136183215Y-93952399D01*
X136200000Y-93781978D01*
X136200000Y-93218021D01*
X136183215Y-93047600D01*
X136116885Y-92828940D01*
X136009171Y-92627421D01*
X135864212Y-92450788D01*
X135687578Y-92305829D01*
X135486059Y-92198115D01*
X135267399Y-92131785D01*
X135040000Y-92109388D01*
X134812600Y-92131785D01*
X134593940Y-92198115D01*
X134530000Y-92232292D01*
X134530000Y-90367325D01*
X134533676Y-90330000D01*
X134530000Y-90292675D01*
X134530000Y-90292667D01*
X134519003Y-90181014D01*
X134475546Y-90037753D01*
X134404974Y-89905724D01*
X134310001Y-89789999D01*
X134281004Y-89766202D01*
X133311802Y-88797000D01*
X133517592Y-88797000D01*
X133671570Y-88766372D01*
X133903201Y-88998003D01*
X133927000Y-89027002D01*
X133955998Y-89050800D01*
X134042725Y-89121975D01*
X134174754Y-89192547D01*
X134318015Y-89236004D01*
X134467001Y-89250678D01*
X134504334Y-89247001D01*
X136532202Y-89247001D01*
X139404110Y-92118910D01*
X139350518Y-92124188D01*
X139230820Y-92160498D01*
X139120506Y-92219463D01*
X139023815Y-92298815D01*
X138944463Y-92395506D01*
X138885498Y-92505820D01*
X138849188Y-92625518D01*
X138836928Y-92750000D01*
X138840000Y-93214250D01*
X138998750Y-93373000D01*
X139873000Y-93373000D01*
X139873000Y-93353000D01*
X140110000Y-93353000D01*
X140110000Y-93781979D01*
X140126785Y-93952400D01*
X140127000Y-93953109D01*
X140127000Y-94726250D01*
X140285750Y-94885000D01*
X140525000Y-94888072D01*
X140649482Y-94875812D01*
X140769180Y-94839502D01*
X140833902Y-94804907D01*
X141042601Y-94868215D01*
X141270000Y-94890612D01*
X141497400Y-94868215D01*
X141716060Y-94801885D01*
X141905001Y-94700894D01*
X142093941Y-94801885D01*
X142312601Y-94868215D01*
X142540000Y-94890612D01*
X142767400Y-94868215D01*
X142986060Y-94801885D01*
X143187579Y-94694171D01*
X143364212Y-94549212D01*
X143509171Y-94372579D01*
X143574690Y-94250000D01*
X146336928Y-94250000D01*
X146349188Y-94374482D01*
X146385498Y-94494180D01*
X146444463Y-94604494D01*
X146523815Y-94701185D01*
X146620506Y-94780537D01*
X146730820Y-94839502D01*
X146850518Y-94875812D01*
X146975000Y-94888072D01*
X147214250Y-94885000D01*
X147373000Y-94726250D01*
X147373000Y-93627000D01*
X146498750Y-93627000D01*
X146340000Y-93785750D01*
X146336928Y-94250000D01*
X143574690Y-94250000D01*
X143616885Y-94171059D01*
X143683215Y-93952399D01*
X143700000Y-93781978D01*
X143700000Y-93218021D01*
X143696748Y-93184999D01*
X146339806Y-93184999D01*
X146340000Y-93214250D01*
X146498750Y-93373000D01*
X147373000Y-93373000D01*
X147373000Y-93353000D01*
X147610000Y-93353000D01*
X147610000Y-93781979D01*
X147626785Y-93952400D01*
X147627000Y-93953109D01*
X147627000Y-94726250D01*
X147785750Y-94885000D01*
X148025000Y-94888072D01*
X148149482Y-94875812D01*
X148269180Y-94839502D01*
X148333902Y-94804907D01*
X148542601Y-94868215D01*
X148770000Y-94890612D01*
X148997400Y-94868215D01*
X149216060Y-94801885D01*
X149405001Y-94700894D01*
X149593941Y-94801885D01*
X149812601Y-94868215D01*
X150040000Y-94890612D01*
X150267400Y-94868215D01*
X150486060Y-94801885D01*
X150687579Y-94694171D01*
X150864212Y-94549212D01*
X151009171Y-94372579D01*
X151085059Y-94230600D01*
X168787228Y-94230600D01*
X168787228Y-97230600D01*
X168799488Y-97355082D01*
X168835798Y-97474780D01*
X168894763Y-97585094D01*
X168974115Y-97681785D01*
X169070806Y-97761137D01*
X169181120Y-97820102D01*
X169300818Y-97856412D01*
X169425300Y-97868672D01*
X172425300Y-97868672D01*
X172549782Y-97856412D01*
X172669480Y-97820102D01*
X172779794Y-97761137D01*
X172876485Y-97681785D01*
X172955837Y-97585094D01*
X173014802Y-97474780D01*
X173051112Y-97355082D01*
X173063372Y-97230600D01*
X173063372Y-94230600D01*
X173051112Y-94106118D01*
X173014802Y-93986420D01*
X172955837Y-93876106D01*
X172876485Y-93779415D01*
X172779794Y-93700063D01*
X172669480Y-93641098D01*
X172549782Y-93604788D01*
X172425300Y-93592528D01*
X169425300Y-93592528D01*
X169300818Y-93604788D01*
X169181120Y-93641098D01*
X169070806Y-93700063D01*
X168974115Y-93779415D01*
X168894763Y-93876106D01*
X168835798Y-93986420D01*
X168799488Y-94106118D01*
X168787228Y-94230600D01*
X151085059Y-94230600D01*
X151116885Y-94171059D01*
X151183215Y-93952399D01*
X151200000Y-93781978D01*
X151200000Y-93218021D01*
X151183215Y-93047600D01*
X151116885Y-92828940D01*
X151009171Y-92627421D01*
X150864212Y-92450788D01*
X150687578Y-92305829D01*
X150486059Y-92198115D01*
X150267399Y-92131785D01*
X150040000Y-92109388D01*
X149812600Y-92131785D01*
X149593940Y-92198115D01*
X149405000Y-92299106D01*
X149216059Y-92198115D01*
X149096715Y-92161912D01*
X148848805Y-91914002D01*
X148825002Y-91884998D01*
X148709277Y-91790025D01*
X148577248Y-91719453D01*
X148433987Y-91675996D01*
X148322334Y-91664999D01*
X148322323Y-91664999D01*
X148285001Y-91661323D01*
X148247679Y-91664999D01*
X142191039Y-91664999D01*
X140966361Y-90440321D01*
X168790300Y-90440321D01*
X168790300Y-90860879D01*
X168872347Y-91273356D01*
X169033288Y-91661902D01*
X169266937Y-92011583D01*
X169564317Y-92308963D01*
X169913998Y-92542612D01*
X170302544Y-92703553D01*
X170715021Y-92785600D01*
X171135579Y-92785600D01*
X171548056Y-92703553D01*
X171936602Y-92542612D01*
X172286283Y-92308963D01*
X172583663Y-92011583D01*
X172817312Y-91661902D01*
X172978253Y-91273356D01*
X173060300Y-90860879D01*
X173060300Y-90440321D01*
X172978253Y-90027844D01*
X172817312Y-89639298D01*
X172583663Y-89289617D01*
X172286283Y-88992237D01*
X171936602Y-88758588D01*
X171548056Y-88597647D01*
X171135579Y-88515600D01*
X170715021Y-88515600D01*
X170302544Y-88597647D01*
X169913998Y-88758588D01*
X169564317Y-88992237D01*
X169266937Y-89289617D01*
X169033288Y-89639298D01*
X168872347Y-90027844D01*
X168790300Y-90440321D01*
X140966361Y-90440321D01*
X139147094Y-88621055D01*
X139350535Y-88485120D01*
X139545120Y-88290535D01*
X139698005Y-88061727D01*
X139730000Y-87984485D01*
X139761995Y-88061727D01*
X139914880Y-88290535D01*
X140109465Y-88485120D01*
X140338273Y-88638005D01*
X140592510Y-88743314D01*
X140862408Y-88797000D01*
X141137592Y-88797000D01*
X141407490Y-88743314D01*
X141661727Y-88638005D01*
X141890535Y-88485120D01*
X142085120Y-88290535D01*
X142238005Y-88061727D01*
X142343314Y-87807490D01*
X142397000Y-87537592D01*
X142397000Y-87262408D01*
X142344804Y-87000000D01*
X155409428Y-87000000D01*
X155409428Y-89000000D01*
X155421688Y-89124482D01*
X155457998Y-89244180D01*
X155516963Y-89354494D01*
X155596315Y-89451185D01*
X155693006Y-89530537D01*
X155803320Y-89589502D01*
X155923018Y-89625812D01*
X156047500Y-89638072D01*
X157952500Y-89638072D01*
X158076982Y-89625812D01*
X158196680Y-89589502D01*
X158306994Y-89530537D01*
X158403685Y-89451185D01*
X158483037Y-89354494D01*
X158527905Y-89270553D01*
X158653766Y-89373845D01*
X158929552Y-89521255D01*
X159228797Y-89612030D01*
X159540000Y-89642681D01*
X159851204Y-89612030D01*
X160150449Y-89521255D01*
X160426235Y-89373845D01*
X160667963Y-89175463D01*
X160815162Y-88996100D01*
X160970563Y-89181315D01*
X161213077Y-89375969D01*
X161488906Y-89519571D01*
X161707020Y-89590563D01*
X161953000Y-89470594D01*
X161953000Y-88127000D01*
X162207000Y-88127000D01*
X162207000Y-89470594D01*
X162452980Y-89590563D01*
X162671094Y-89519571D01*
X162946923Y-89375969D01*
X163189437Y-89181315D01*
X163389316Y-88943089D01*
X163538879Y-88670446D01*
X163632378Y-88373863D01*
X163505570Y-88127000D01*
X162207000Y-88127000D01*
X161953000Y-88127000D01*
X161933000Y-88127000D01*
X161933000Y-87873000D01*
X161953000Y-87873000D01*
X161953000Y-86529406D01*
X162207000Y-86529406D01*
X162207000Y-87873000D01*
X163505570Y-87873000D01*
X163632378Y-87626137D01*
X163538879Y-87329554D01*
X163389316Y-87056911D01*
X163189437Y-86818685D01*
X162946923Y-86624031D01*
X162671094Y-86480429D01*
X162452980Y-86409437D01*
X162207000Y-86529406D01*
X161953000Y-86529406D01*
X161707020Y-86409437D01*
X161488906Y-86480429D01*
X161213077Y-86624031D01*
X160970563Y-86818685D01*
X160815163Y-87003899D01*
X160667963Y-86824537D01*
X160426234Y-86626155D01*
X160150448Y-86478745D01*
X159851203Y-86387970D01*
X159540000Y-86357319D01*
X159228796Y-86387970D01*
X158929551Y-86478745D01*
X158653765Y-86626155D01*
X158527905Y-86729446D01*
X158483037Y-86645506D01*
X158403685Y-86548815D01*
X158306994Y-86469463D01*
X158196680Y-86410498D01*
X158076982Y-86374188D01*
X157952500Y-86361928D01*
X156047500Y-86361928D01*
X155923018Y-86374188D01*
X155803320Y-86410498D01*
X155693006Y-86469463D01*
X155596315Y-86548815D01*
X155516963Y-86645506D01*
X155457998Y-86755820D01*
X155421688Y-86875518D01*
X155409428Y-87000000D01*
X142344804Y-87000000D01*
X142343314Y-86992510D01*
X142238005Y-86738273D01*
X142085120Y-86509465D01*
X141890535Y-86314880D01*
X141661727Y-86161995D01*
X141407490Y-86056686D01*
X141137592Y-86003000D01*
X140862408Y-86003000D01*
X140592510Y-86056686D01*
X140338273Y-86161995D01*
X140109465Y-86314880D01*
X139914880Y-86509465D01*
X139761995Y-86738273D01*
X139730000Y-86815515D01*
X139698005Y-86738273D01*
X139545120Y-86509465D01*
X139350535Y-86314880D01*
X139121727Y-86161995D01*
X138867490Y-86056686D01*
X138597592Y-86003000D01*
X138322408Y-86003000D01*
X138052510Y-86056686D01*
X137798273Y-86161995D01*
X137569465Y-86314880D01*
X137374880Y-86509465D01*
X137222908Y-86736907D01*
X137143485Y-86694454D01*
X137124974Y-86688839D01*
X137005120Y-86509465D01*
X136810535Y-86314880D01*
X136581727Y-86161995D01*
X136327490Y-86056686D01*
X136057592Y-86003000D01*
X135782408Y-86003000D01*
X135512510Y-86056686D01*
X135258273Y-86161995D01*
X135029465Y-86314880D01*
X134834880Y-86509465D01*
X134681995Y-86738273D01*
X134650000Y-86815515D01*
X134618005Y-86738273D01*
X134465120Y-86509465D01*
X134270535Y-86314880D01*
X134041727Y-86161995D01*
X133787490Y-86056686D01*
X133517592Y-86003000D01*
X133242408Y-86003000D01*
X132972510Y-86056686D01*
X132718273Y-86161995D01*
X132489465Y-86314880D01*
X132294880Y-86509465D01*
X132141995Y-86738273D01*
X132110000Y-86815515D01*
X132078005Y-86738273D01*
X131925120Y-86509465D01*
X131730535Y-86314880D01*
X131501727Y-86161995D01*
X131247490Y-86056686D01*
X130977592Y-86003000D01*
X130702408Y-86003000D01*
X130432510Y-86056686D01*
X130178273Y-86161995D01*
X129949465Y-86314880D01*
X129754880Y-86509465D01*
X129601995Y-86738273D01*
X129570000Y-86815515D01*
X129538005Y-86738273D01*
X129385120Y-86509465D01*
X129190535Y-86314880D01*
X128961727Y-86161995D01*
X128707490Y-86056686D01*
X128437592Y-86003000D01*
X128162408Y-86003000D01*
X127892510Y-86056686D01*
X127638273Y-86161995D01*
X127409465Y-86314880D01*
X127214880Y-86509465D01*
X127156080Y-86597465D01*
X127147812Y-86513518D01*
X127111502Y-86393820D01*
X127052537Y-86283506D01*
X126973185Y-86186815D01*
X126876494Y-86107463D01*
X126766180Y-86048498D01*
X126646482Y-86012188D01*
X126522000Y-85999928D01*
X126045750Y-86003000D01*
X125887000Y-86161750D01*
X125633000Y-86161750D01*
X125474250Y-86003000D01*
X124998000Y-85999928D01*
X124873518Y-86012188D01*
X124753820Y-86048498D01*
X124643506Y-86107463D01*
X124546815Y-86186815D01*
X124467463Y-86283506D01*
X124408498Y-86393820D01*
X124372188Y-86513518D01*
X124363920Y-86597465D01*
X124305120Y-86509465D01*
X124110535Y-86314880D01*
X123881727Y-86161995D01*
X123627490Y-86056686D01*
X123357592Y-86003000D01*
X123082408Y-86003000D01*
X122812510Y-86056686D01*
X122558273Y-86161995D01*
X122329465Y-86314880D01*
X122134880Y-86509465D01*
X121981995Y-86738273D01*
X121950000Y-86815515D01*
X121918005Y-86738273D01*
X121765120Y-86509465D01*
X121570535Y-86314880D01*
X121341727Y-86161995D01*
X121087490Y-86056686D01*
X120817592Y-86003000D01*
X120542408Y-86003000D01*
X120272510Y-86056686D01*
X120018273Y-86161995D01*
X119789465Y-86314880D01*
X119594880Y-86509465D01*
X119441995Y-86738273D01*
X119410000Y-86815515D01*
X119378005Y-86738273D01*
X119225120Y-86509465D01*
X119030535Y-86314880D01*
X118801727Y-86161995D01*
X118547490Y-86056686D01*
X118277592Y-86003000D01*
X118002408Y-86003000D01*
X117732510Y-86056686D01*
X117478273Y-86161995D01*
X117249465Y-86314880D01*
X117054880Y-86509465D01*
X116901995Y-86738273D01*
X116870000Y-86815515D01*
X116838005Y-86738273D01*
X116685120Y-86509465D01*
X116490535Y-86314880D01*
X116261727Y-86161995D01*
X116007490Y-86056686D01*
X115737592Y-86003000D01*
X115462408Y-86003000D01*
X115192510Y-86056686D01*
X114938273Y-86161995D01*
X114709465Y-86314880D01*
X114514880Y-86509465D01*
X114361995Y-86738273D01*
X114330000Y-86815515D01*
X114298005Y-86738273D01*
X114145120Y-86509465D01*
X113950535Y-86314880D01*
X113721727Y-86161995D01*
X113467490Y-86056686D01*
X113197592Y-86003000D01*
X112922408Y-86003000D01*
X112652510Y-86056686D01*
X112398273Y-86161995D01*
X112169465Y-86314880D01*
X111974880Y-86509465D01*
X111821995Y-86738273D01*
X111790000Y-86815515D01*
X111758005Y-86738273D01*
X111605120Y-86509465D01*
X111410535Y-86314880D01*
X111181727Y-86161995D01*
X110927490Y-86056686D01*
X110657592Y-86003000D01*
X110382408Y-86003000D01*
X110112510Y-86056686D01*
X109858273Y-86161995D01*
X109629465Y-86314880D01*
X109434880Y-86509465D01*
X109376080Y-86597465D01*
X109367812Y-86513518D01*
X109331502Y-86393820D01*
X109272537Y-86283506D01*
X109193185Y-86186815D01*
X109096494Y-86107463D01*
X108986180Y-86048498D01*
X108866482Y-86012188D01*
X108742000Y-85999928D01*
X108265750Y-86003000D01*
X108107000Y-86161750D01*
X107853000Y-86161750D01*
X107694250Y-86003000D01*
X107218000Y-85999928D01*
X107093518Y-86012188D01*
X106973820Y-86048498D01*
X106863506Y-86107463D01*
X106766815Y-86186815D01*
X106687463Y-86283506D01*
X106628498Y-86393820D01*
X106592188Y-86513518D01*
X106583920Y-86597465D01*
X106525120Y-86509465D01*
X106330535Y-86314880D01*
X106101727Y-86161995D01*
X105847490Y-86056686D01*
X105577592Y-86003000D01*
X105302408Y-86003000D01*
X105032510Y-86056686D01*
X104778273Y-86161995D01*
X104549465Y-86314880D01*
X104354880Y-86509465D01*
X104201995Y-86738273D01*
X104096686Y-86992510D01*
X104043000Y-87262408D01*
X95330555Y-87262408D01*
X95271680Y-87120273D01*
X95234607Y-87064790D01*
X95251185Y-87051185D01*
X95330537Y-86954494D01*
X95389502Y-86844180D01*
X95425812Y-86724482D01*
X95438072Y-86600000D01*
X95435000Y-86085750D01*
X95276250Y-85927000D01*
X94127000Y-85927000D01*
X94127000Y-85947000D01*
X93873000Y-85947000D01*
X93873000Y-85927000D01*
X92723750Y-85927000D01*
X92565000Y-86085750D01*
X92561928Y-86600000D01*
X90660000Y-86600000D01*
X90660000Y-85000000D01*
X92561928Y-85000000D01*
X92565000Y-85514250D01*
X92723750Y-85673000D01*
X93873000Y-85673000D01*
X93873000Y-84523750D01*
X94127000Y-84523750D01*
X94127000Y-85673000D01*
X95276250Y-85673000D01*
X95435000Y-85514250D01*
X95435919Y-85360321D01*
X168790300Y-85360321D01*
X168790300Y-85780879D01*
X168872347Y-86193356D01*
X169033288Y-86581902D01*
X169266937Y-86931583D01*
X169564317Y-87228963D01*
X169913998Y-87462612D01*
X170302544Y-87623553D01*
X170715021Y-87705600D01*
X171135579Y-87705600D01*
X171548056Y-87623553D01*
X171936602Y-87462612D01*
X172286283Y-87228963D01*
X172583663Y-86931583D01*
X172817312Y-86581902D01*
X172978253Y-86193356D01*
X173060300Y-85780879D01*
X173060300Y-85360321D01*
X172978253Y-84947844D01*
X172817312Y-84559298D01*
X172583663Y-84209617D01*
X172286283Y-83912237D01*
X171936602Y-83678588D01*
X171548056Y-83517647D01*
X171135579Y-83435600D01*
X170715021Y-83435600D01*
X170302544Y-83517647D01*
X169913998Y-83678588D01*
X169564317Y-83912237D01*
X169266937Y-84209617D01*
X169033288Y-84559298D01*
X168872347Y-84947844D01*
X168790300Y-85360321D01*
X95435919Y-85360321D01*
X95438072Y-85000000D01*
X95425812Y-84875518D01*
X95389502Y-84755820D01*
X95330537Y-84645506D01*
X95251185Y-84548815D01*
X95154494Y-84469463D01*
X95044180Y-84410498D01*
X94924482Y-84374188D01*
X94800000Y-84361928D01*
X94285750Y-84365000D01*
X94127000Y-84523750D01*
X93873000Y-84523750D01*
X93714250Y-84365000D01*
X93200000Y-84361928D01*
X93075518Y-84374188D01*
X92955820Y-84410498D01*
X92845506Y-84469463D01*
X92748815Y-84548815D01*
X92669463Y-84645506D01*
X92610498Y-84755820D01*
X92574188Y-84875518D01*
X92561928Y-85000000D01*
X90660000Y-85000000D01*
X90660000Y-78500000D01*
X155369428Y-78500000D01*
X155369428Y-80500000D01*
X155381688Y-80624482D01*
X155417998Y-80744180D01*
X155476963Y-80854494D01*
X155556315Y-80951185D01*
X155653006Y-81030537D01*
X155763320Y-81089502D01*
X155883018Y-81125812D01*
X156007500Y-81138072D01*
X157912500Y-81138072D01*
X158036982Y-81125812D01*
X158156680Y-81089502D01*
X158266994Y-81030537D01*
X158363685Y-80951185D01*
X158443037Y-80854494D01*
X158487905Y-80770553D01*
X158613766Y-80873845D01*
X158889552Y-81021255D01*
X159188797Y-81112030D01*
X159500000Y-81142681D01*
X159811204Y-81112030D01*
X160110449Y-81021255D01*
X160386235Y-80873845D01*
X160627963Y-80675463D01*
X160775162Y-80496100D01*
X160930563Y-80681315D01*
X161173077Y-80875969D01*
X161448906Y-81019571D01*
X161667020Y-81090563D01*
X161913000Y-80970594D01*
X161913000Y-79627000D01*
X162167000Y-79627000D01*
X162167000Y-80970594D01*
X162412980Y-81090563D01*
X162631094Y-81019571D01*
X162906923Y-80875969D01*
X163149437Y-80681315D01*
X163349316Y-80443089D01*
X163438605Y-80280321D01*
X168790300Y-80280321D01*
X168790300Y-80700879D01*
X168872347Y-81113356D01*
X169033288Y-81501902D01*
X169266937Y-81851583D01*
X169564317Y-82148963D01*
X169913998Y-82382612D01*
X170302544Y-82543553D01*
X170715021Y-82625600D01*
X171135579Y-82625600D01*
X171548056Y-82543553D01*
X171936602Y-82382612D01*
X172286283Y-82148963D01*
X172583663Y-81851583D01*
X172817312Y-81501902D01*
X172978253Y-81113356D01*
X173060300Y-80700879D01*
X173060300Y-80280321D01*
X172978253Y-79867844D01*
X172817312Y-79479298D01*
X172583663Y-79129617D01*
X172286283Y-78832237D01*
X171936602Y-78598588D01*
X171548056Y-78437647D01*
X171135579Y-78355600D01*
X170715021Y-78355600D01*
X170302544Y-78437647D01*
X169913998Y-78598588D01*
X169564317Y-78832237D01*
X169266937Y-79129617D01*
X169033288Y-79479298D01*
X168872347Y-79867844D01*
X168790300Y-80280321D01*
X163438605Y-80280321D01*
X163498879Y-80170446D01*
X163592378Y-79873863D01*
X163465570Y-79627000D01*
X162167000Y-79627000D01*
X161913000Y-79627000D01*
X161893000Y-79627000D01*
X161893000Y-79373000D01*
X161913000Y-79373000D01*
X161913000Y-78029406D01*
X162167000Y-78029406D01*
X162167000Y-79373000D01*
X163465570Y-79373000D01*
X163592378Y-79126137D01*
X163498879Y-78829554D01*
X163349316Y-78556911D01*
X163149437Y-78318685D01*
X162906923Y-78124031D01*
X162631094Y-77980429D01*
X162412980Y-77909437D01*
X162167000Y-78029406D01*
X161913000Y-78029406D01*
X161667020Y-77909437D01*
X161448906Y-77980429D01*
X161173077Y-78124031D01*
X160930563Y-78318685D01*
X160775163Y-78503899D01*
X160627963Y-78324537D01*
X160386234Y-78126155D01*
X160110448Y-77978745D01*
X159811203Y-77887970D01*
X159500000Y-77857319D01*
X159188796Y-77887970D01*
X158889551Y-77978745D01*
X158613765Y-78126155D01*
X158487905Y-78229446D01*
X158443037Y-78145506D01*
X158363685Y-78048815D01*
X158266994Y-77969463D01*
X158156680Y-77910498D01*
X158036982Y-77874188D01*
X157912500Y-77861928D01*
X156007500Y-77861928D01*
X155883018Y-77874188D01*
X155763320Y-77910498D01*
X155653006Y-77969463D01*
X155556315Y-78048815D01*
X155476963Y-78145506D01*
X155417998Y-78255820D01*
X155381688Y-78375518D01*
X155369428Y-78500000D01*
X90660000Y-78500000D01*
X90660000Y-75200321D01*
X168790300Y-75200321D01*
X168790300Y-75620879D01*
X168872347Y-76033356D01*
X169033288Y-76421902D01*
X169266937Y-76771583D01*
X169564317Y-77068963D01*
X169913998Y-77302612D01*
X170302544Y-77463553D01*
X170715021Y-77545600D01*
X171135579Y-77545600D01*
X171548056Y-77463553D01*
X171936602Y-77302612D01*
X172286283Y-77068963D01*
X172583663Y-76771583D01*
X172817312Y-76421902D01*
X172978253Y-76033356D01*
X173060300Y-75620879D01*
X173060300Y-75200321D01*
X172978253Y-74787844D01*
X172817312Y-74399298D01*
X172583663Y-74049617D01*
X172286283Y-73752237D01*
X171936602Y-73518588D01*
X171548056Y-73357647D01*
X171135579Y-73275600D01*
X170715021Y-73275600D01*
X170302544Y-73357647D01*
X169913998Y-73518588D01*
X169564317Y-73752237D01*
X169266937Y-74049617D01*
X169033288Y-74399298D01*
X168872347Y-74787844D01*
X168790300Y-75200321D01*
X90660000Y-75200321D01*
X90660000Y-70000000D01*
X155369428Y-70000000D01*
X155369428Y-72000000D01*
X155381688Y-72124482D01*
X155417998Y-72244180D01*
X155476963Y-72354494D01*
X155556315Y-72451185D01*
X155653006Y-72530537D01*
X155763320Y-72589502D01*
X155883018Y-72625812D01*
X156007500Y-72638072D01*
X157912500Y-72638072D01*
X158036982Y-72625812D01*
X158156680Y-72589502D01*
X158266994Y-72530537D01*
X158363685Y-72451185D01*
X158443037Y-72354494D01*
X158487905Y-72270553D01*
X158613766Y-72373845D01*
X158889552Y-72521255D01*
X159188797Y-72612030D01*
X159500000Y-72642681D01*
X159811204Y-72612030D01*
X160110449Y-72521255D01*
X160386235Y-72373845D01*
X160627963Y-72175463D01*
X160775162Y-71996100D01*
X160930563Y-72181315D01*
X161173077Y-72375969D01*
X161448906Y-72519571D01*
X161667020Y-72590563D01*
X161913000Y-72470594D01*
X161913000Y-71127000D01*
X162167000Y-71127000D01*
X162167000Y-72470594D01*
X162412980Y-72590563D01*
X162631094Y-72519571D01*
X162906923Y-72375969D01*
X163149437Y-72181315D01*
X163349316Y-71943089D01*
X163498879Y-71670446D01*
X163592378Y-71373863D01*
X163465570Y-71127000D01*
X162167000Y-71127000D01*
X161913000Y-71127000D01*
X161893000Y-71127000D01*
X161893000Y-70873000D01*
X161913000Y-70873000D01*
X161913000Y-69529406D01*
X162167000Y-69529406D01*
X162167000Y-70873000D01*
X163465570Y-70873000D01*
X163592378Y-70626137D01*
X163498879Y-70329554D01*
X163384101Y-70120321D01*
X168790300Y-70120321D01*
X168790300Y-70540879D01*
X168872347Y-70953356D01*
X169033288Y-71341902D01*
X169266937Y-71691583D01*
X169564317Y-71988963D01*
X169913998Y-72222612D01*
X170302544Y-72383553D01*
X170715021Y-72465600D01*
X171135579Y-72465600D01*
X171548056Y-72383553D01*
X171936602Y-72222612D01*
X172286283Y-71988963D01*
X172583663Y-71691583D01*
X172817312Y-71341902D01*
X172978253Y-70953356D01*
X173060300Y-70540879D01*
X173060300Y-70120321D01*
X172978253Y-69707844D01*
X172817312Y-69319298D01*
X172583663Y-68969617D01*
X172286283Y-68672237D01*
X171936602Y-68438588D01*
X171548056Y-68277647D01*
X171135579Y-68195600D01*
X170715021Y-68195600D01*
X170302544Y-68277647D01*
X169913998Y-68438588D01*
X169564317Y-68672237D01*
X169266937Y-68969617D01*
X169033288Y-69319298D01*
X168872347Y-69707844D01*
X168790300Y-70120321D01*
X163384101Y-70120321D01*
X163349316Y-70056911D01*
X163149437Y-69818685D01*
X162906923Y-69624031D01*
X162631094Y-69480429D01*
X162412980Y-69409437D01*
X162167000Y-69529406D01*
X161913000Y-69529406D01*
X161667020Y-69409437D01*
X161448906Y-69480429D01*
X161173077Y-69624031D01*
X160930563Y-69818685D01*
X160775163Y-70003899D01*
X160627963Y-69824537D01*
X160386234Y-69626155D01*
X160110448Y-69478745D01*
X159811203Y-69387970D01*
X159500000Y-69357319D01*
X159188796Y-69387970D01*
X158889551Y-69478745D01*
X158613765Y-69626155D01*
X158487905Y-69729446D01*
X158443037Y-69645506D01*
X158363685Y-69548815D01*
X158266994Y-69469463D01*
X158156680Y-69410498D01*
X158036982Y-69374188D01*
X157912500Y-69361928D01*
X156007500Y-69361928D01*
X155883018Y-69374188D01*
X155763320Y-69410498D01*
X155653006Y-69469463D01*
X155556315Y-69548815D01*
X155476963Y-69645506D01*
X155417998Y-69755820D01*
X155381688Y-69875518D01*
X155369428Y-70000000D01*
X90660000Y-70000000D01*
X90660000Y-65435239D01*
X90778705Y-65721818D01*
X91176511Y-66317177D01*
X91682823Y-66823489D01*
X92278182Y-67221295D01*
X92939710Y-67495309D01*
X93641984Y-67635000D01*
X94358016Y-67635000D01*
X95060290Y-67495309D01*
X95721818Y-67221295D01*
X96317177Y-66823489D01*
X96823489Y-66317177D01*
X97221295Y-65721818D01*
X97495309Y-65060290D01*
X97635000Y-64358016D01*
X97635000Y-63641984D01*
X97495309Y-62939710D01*
X97221295Y-62278182D01*
X96823489Y-61682823D01*
X96317177Y-61176511D01*
X95721818Y-60778705D01*
X95435239Y-60660000D01*
X105024509Y-60660000D01*
X104778273Y-60761995D01*
G37*
%TD.AperFunction*%
%TD*%
M02*
