%TF.GenerationSoftware,KiCad,Pcbnew,5.1.10-88a1d61d58~90~ubuntu20.04.1*%
%TF.CreationDate,2021-10-06T22:50:43-04:00*%
%TF.ProjectId,jrgbwww24,6a726762-7777-4773-9234-2e6b69636164,rev?*%
%TF.SameCoordinates,Original*%
%TF.FileFunction,Paste,Top*%
%TF.FilePolarity,Positive*%
%FSLAX46Y46*%
G04 Gerber Fmt 4.6, Leading zero omitted, Abs format (unit mm)*
G04 Created by KiCad (PCBNEW 5.1.10-88a1d61d58~90~ubuntu20.04.1) date 2021-10-06 22:50:43*
%MOMM*%
%LPD*%
G01*
G04 APERTURE LIST*
G04 APERTURE END LIST*
%TO.C,D3*%
G36*
G01*
X126625000Y-113375000D02*
X126625000Y-114625000D01*
G75*
G02*
X126375000Y-114875000I-250000J0D01*
G01*
X125625000Y-114875000D01*
G75*
G02*
X125375000Y-114625000I0J250000D01*
G01*
X125375000Y-113375000D01*
G75*
G02*
X125625000Y-113125000I250000J0D01*
G01*
X126375000Y-113125000D01*
G75*
G02*
X126625000Y-113375000I0J-250000D01*
G01*
G37*
G36*
G01*
X129425000Y-113375000D02*
X129425000Y-114625000D01*
G75*
G02*
X129175000Y-114875000I-250000J0D01*
G01*
X128425000Y-114875000D01*
G75*
G02*
X128175000Y-114625000I0J250000D01*
G01*
X128175000Y-113375000D01*
G75*
G02*
X128425000Y-113125000I250000J0D01*
G01*
X129175000Y-113125000D01*
G75*
G02*
X129425000Y-113375000I0J-250000D01*
G01*
G37*
%TD*%
%TO.C,D2*%
G36*
G01*
X120625000Y-113375000D02*
X120625000Y-114625000D01*
G75*
G02*
X120375000Y-114875000I-250000J0D01*
G01*
X119625000Y-114875000D01*
G75*
G02*
X119375000Y-114625000I0J250000D01*
G01*
X119375000Y-113375000D01*
G75*
G02*
X119625000Y-113125000I250000J0D01*
G01*
X120375000Y-113125000D01*
G75*
G02*
X120625000Y-113375000I0J-250000D01*
G01*
G37*
G36*
G01*
X123425000Y-113375000D02*
X123425000Y-114625000D01*
G75*
G02*
X123175000Y-114875000I-250000J0D01*
G01*
X122425000Y-114875000D01*
G75*
G02*
X122175000Y-114625000I0J250000D01*
G01*
X122175000Y-113375000D01*
G75*
G02*
X122425000Y-113125000I250000J0D01*
G01*
X123175000Y-113125000D01*
G75*
G02*
X123425000Y-113375000I0J-250000D01*
G01*
G37*
%TD*%
%TO.C,D1*%
G36*
G01*
X114625000Y-113375000D02*
X114625000Y-114625000D01*
G75*
G02*
X114375000Y-114875000I-250000J0D01*
G01*
X113625000Y-114875000D01*
G75*
G02*
X113375000Y-114625000I0J250000D01*
G01*
X113375000Y-113375000D01*
G75*
G02*
X113625000Y-113125000I250000J0D01*
G01*
X114375000Y-113125000D01*
G75*
G02*
X114625000Y-113375000I0J-250000D01*
G01*
G37*
G36*
G01*
X117425000Y-113375000D02*
X117425000Y-114625000D01*
G75*
G02*
X117175000Y-114875000I-250000J0D01*
G01*
X116425000Y-114875000D01*
G75*
G02*
X116175000Y-114625000I0J250000D01*
G01*
X116175000Y-113375000D01*
G75*
G02*
X116425000Y-113125000I250000J0D01*
G01*
X117175000Y-113125000D01*
G75*
G02*
X117425000Y-113375000I0J-250000D01*
G01*
G37*
%TD*%
M02*
